SplineFontDB: 3.0
FontName: Istok-Regular
FullName: Istok Regular
FamilyName: Istok
Weight: Regular
Copyright: (C) 2008-2014 Andrey V. Panov (panov@canopus.iacp.dvo.ru), with Reserved Font Name Istok.
UComments: "2008-10-29: Created." 
Version: 1.0.3
ItalicAngle: 0
UnderlinePosition: -204
UnderlineWidth: 102
Ascent: 1548
Descent: 500
LayerCount: 2
Layer: 0 1 "+BBcEMAQ0BD0EOAQ5 +BD8EOwQwBD0A"  1
Layer: 1 1 "+BB8ENQRABDUENAQ9BDgEOQAA +BD8EOwQwBD0A"  0
XUID: [1021 513 629268104 9940963]
FSType: 0
OS2Version: 0
OS2_WeightWidthSlopeOnly: 0
OS2_UseTypoMetrics: 1
CreationTime: 1225286394
ModificationTime: 1418892943
PfmFamily: 33
TTFWeight: 500
TTFWidth: 5
LineGap: 0
VLineGap: 0
Panose: 2 15 6 3 3 4 3 2 2 4
OS2TypoAscent: 1548
OS2TypoAOffset: 0
OS2TypoDescent: -500
OS2TypoDOffset: 0
OS2TypoLinegap: 410
OS2WinAscent: 1950
OS2WinAOffset: 0
OS2WinDescent: 508
OS2WinDOffset: 0
HheadAscent: 1950
HheadAOffset: 0
HheadDescent: -508
HheadDOffset: 0
OS2FamilyClass: 2048
OS2Vendor: 'PfEd'
Lookup: 258 0 0 "LGC kerning"  {"LGC kerning subtable"  } ['kern' ('latn' <'dflt' > 'grek' <'dflt' > 'cyrl' <'dflt' > ) ]
MarkAttachClasses: 1
DEI: 91125
LangName: 1033 "" "" "" "" "" "" "" "" "Andrey V. Panov" "Andrey V. Panov" "" "http://code.google.com/p/istok" "http://code.google.com/u/andrej.panov/" "GNU General Public License with font exception" "http://www.gnu.org/licenses/gpl.html http://www.gnu.org/licenses/gpl-faq.html#FontException" 
LangName: 1049 "" "+BBgEQQRCBD4EOgAA" "" "" "" "" "" "" "" "+BBAA. +BBIA. +BB8EMAQ9BD4EMgAA" 
Encoding: UnicodeBmp
UnicodeInterp: none
NameList: Adobe Glyph List
DisplaySize: -48
AntiAlias: 1
FitToEm: 1
WinInfo: 8432 16 13
BeginPrivate: 8
BlueValues 47 [-30 0 1050 1067 1422 1423 1434 1464 1476 1493]
OtherBlues 41 [-417 -400 -370 -370 -310 -310 1136 1150]
BlueScale 9 0.0282857
StdHW 5 [130]
StdVW 5 [176]
StemSnapH 25 [120 130 132 156 164 172]
StemSnapV 29 [176 186 192 205 154 166 120]
ForceBold 5 false
EndPrivate
Grid
-2048 1768 m 0
 4096 1768 l 0

StartChar: dotlessi
Encoding: 305 305 0
Width: 460
Flags: W
HStem: 0 21G<164.5 295.5> 1030 20G<164.5 295.5>
VStem: 142 176<4.5e-07 1050>
LayerCount: 2
Back
SplineSet
267 -1 m 2,0,-1
 244 0 l 1,1,-1
 178 0 l 1,2,3
 141 6 141 6 141 49 c 2,4,-1
 141 988 l 2,5,6
 141 1018 141 1018 153.5 1029.5 c 128,-1,7
 166 1041 166 1041 193 1041 c 2,8,-1
 215 1040 l 1,9,-1
 254 1040 l 1,10,-1
 272 1041 l 2,11,12
 317 1041 317 1041 317 991 c 2,13,-1
 317 70 l 1,14,-1
 318 50 l 2,15,16
 318 17 318 17 301 6 c 1,17,18
 300 6 300 6 291.5 2.5 c 128,-1,19
 283 -0.999984 283 -0.999984 267 -1 c 2,0,-1
EndSplineSet
Fore
SplineSet
187 0 m 2,0,1
 142 0 142 0 142 45 c 2,2,-1
 142 1005 l 2,3,4
 142 1050 142 1050 187 1050 c 2,5,-1
 273 1050 l 2,6,7
 318 1050 318 1050 318 1005 c 2,8,-1
 318 45 l 2,9,10
 318 0 318 0 273 0 c 2,11,-1
 187 0 l 2,0,1
EndSplineSet
EndChar

StartChar: afii10079
Encoding: 1085 1085 1
Width: 1120
Flags: W
HStem: 0 21G<164.5 295.5 824.5 955.5> 482 132<318 802> 1030 20G<164.5 295.5 824.5 955.5>
VStem: 142 176<4.5e-07 482 614 1050> 802 176<4.5e-07 482 614 1050>
LayerCount: 2
Back
SplineSet
293 618 m 1,0,-1
 851 618 l 1,1,-1
 851 488 l 1,2,-1
 293 488 l 1,3,-1
 293 618 l 1,0,-1
815 1040 m 1,4,-1
 846 1041 l 2,5,6
 853 1041 853 1041 870 1040 c 0,7,8
 911 1040 911 1040 911 989 c 2,9,-1
 911 66 l 2,10,11
 911 43 911 43 909 33 c 2,12,13
 909 27.8333 909 27.8333 905.5 21.4167 c 128,-1,14
 902 15 902 15 897 10.5 c 0,15,16
 885.333 -1.81516e-05 885.333 -1.81516e-05 858 0 c 2,17,-1
 809 0 l 2,18,19
 769 0 769 0 755 8.5 c 128,-1,20
 741 17 741 17 741 51 c 2,21,-1
 741 504 l 1,22,-1
 313 504 l 1,23,-1
 313 53 l 2,24,25
 313 18 313 18 300.5 9 c 128,-1,26
 288 9.53674e-07 288 9.53674e-07 246 0 c 2,27,-1
 194 0 l 2,28,29
 177 0 177 0 166 4.5 c 128,-1,30
 155 9 155 9 152.5 13 c 128,-1,31
 150 17 150 17 150 20 c 1,32,33
 145 28 145 28 145 33 c 1,34,35
 143 43 143 43 143 66 c 2,36,-1
 143 989 l 2,37,38
 143 1040 143 1040 184 1040 c 1,39,40
 190 1041 190 1041 201 1041 c 2,41,-1
 238 1040 l 1,42,-1
 268 1041 l 2,43,44
 288 1041 288 1041 298.5 1032.5 c 128,-1,45
 309 1024 309 1024 311 1014 c 128,-1,46
 313 1004 313 1004 313 988 c 2,47,-1
 313 641 l 1,48,-1
 741 641 l 1,49,-1
 741 992 l 2,50,51
 741 1041 741 1041 786 1041 c 2,52,-1
 815 1040 l 1,4,-1
EndSplineSet
Fore
SplineSet
187 0 m 2,0,1
 142 0 142 0 142 45 c 2,2,-1
 142 1005 l 2,3,4
 142 1050 142 1050 187 1050 c 2,5,-1
 273 1050 l 2,6,7
 318 1050 318 1050 318 1005 c 2,8,-1
 318 614 l 1,9,-1
 802 614 l 1,10,-1
 802 1005 l 2,11,12
 802 1050 802 1050 847 1050 c 2,13,-1
 933 1050 l 2,14,15
 978 1050 978 1050 978 1005 c 2,16,-1
 978 45 l 2,17,18
 978 0 978 0 933 0 c 2,19,-1
 847 0 l 2,20,21
 802 0 802 0 802 45 c 2,22,-1
 802 482 l 1,23,-1
 318 482 l 1,24,-1
 318 45 l 2,25,26
 318 0 318 0 273 0 c 2,27,-1
 187 0 l 2,0,1
EndSplineSet
EndChar

StartChar: o
Encoding: 111 111 2
Width: 1148
Flags: W
HStem: -17 130<416.93 731.07> 937 130<416.93 731.07>
VStem: 85 186<277.934 772.066> 877 186<277.934 772.066>
LayerCount: 2
Back
SplineSet
860 449 m 1,0,-1
 862 500 l 1,1,-1
 862 567 l 2,2,3
 862 656 862 656 849 720 c 128,-1,4
 836 784 836 784 804.5 834.5 c 0,5,6
 741.188 936 741.188 936 573 936 c 0,7,8
 505 936 505 936 453.5 918.5 c 128,-1,9
 402 901 402 901 371 873.5 c 128,-1,10
 340 846 340 846 320.5 804.5 c 128,-1,11
 301 763 301 763 293 723 c 128,-1,12
 285 683 285 683 283 633 c 2,13,-1
 281 592 l 1,14,-1
 281 479 l 2,15,16
 282.896 406.924 282.896 406.924 292.5 348 c 0,17,18
 299 311 299 311 318 265 c 128,-1,19
 337 219 337 219 366.5 189 c 128,-1,20
 396 159 396 159 448.5 138.5 c 128,-1,21
 501 118 501 118 569.5 118 c 128,-1,22
 638 118 638 118 688 136 c 128,-1,23
 738 154 738 154 767.5 181 c 128,-1,24
 797 208 797 208 817 249.5 c 128,-1,25
 837 291 837 291 845 326.5 c 128,-1,26
 853 362 853 362 858 408 c 2,27,-1
 860 449 l 1,0,-1
567 1069 m 0,28,29
 638 1069 638 1069 702.5 1054.5 c 128,-1,30
 767 1040 767 1040 831.5 1001 c 128,-1,31
 896 962 896 962 943 902 c 128,-1,32
 990 842 990 842 1019 743 c 128,-1,33
 1048 644 1048 644 1048 519.5 c 128,-1,34
 1048 395 1048 395 1018.5 298.5 c 128,-1,35
 989 202 989 202 942 144 c 128,-1,36
 895 86 895 86 831 48.5 c 128,-1,37
 767 11 767 11 705 -3 c 128,-1,38
 643 -17 643 -17 574 -17 c 128,-1,39
 505 -17 505 -17 440.5 -2.5 c 128,-1,40
 376 12 376 12 311.5 49 c 128,-1,41
 247 86 247 86 200 143.5 c 128,-1,42
 153 201 153 201 124 295 c 128,-1,43
 95 389 95 389 95 509 c 0,44,45
 95 612 95 612 113 696 c 128,-1,46
 131 780 131 780 160 837 c 128,-1,47
 189 894 189 894 230 937.5 c 128,-1,48
 271 981 271 981 312.5 1005 c 128,-1,49
 354 1029 354 1029 402.5 1044.5 c 128,-1,50
 451 1060 451 1060 489.5 1064.5 c 128,-1,51
 528 1069 528 1069 567 1069 c 0,28,29
EndSplineSet
Fore
SplineSet
85 525 m 256,0,1
 85 760 85 760 209.5 913.5 c 128,-1,2
 334 1067 334 1067 574 1067 c 256,3,4
 814 1067 814 1067 938.5 913.5 c 128,-1,5
 1063 760 1063 760 1063 525 c 256,6,7
 1063 290 1063 290 938.5 136.5 c 128,-1,8
 814 -17 814 -17 574 -17 c 256,9,10
 334 -17 334 -17 209.5 136.5 c 128,-1,11
 85 290 85 290 85 525 c 256,0,1
271 525 m 256,12,13
 271 315 271 315 354 214 c 128,-1,14
 437 113 437 113 574 113 c 256,15,16
 711 113 711 113 794 214 c 128,-1,17
 877 315 877 315 877 525 c 256,18,19
 877 735 877 735 794 836 c 128,-1,20
 711 937 711 937 574 937 c 256,21,22
 437 937 437 937 354 836 c 128,-1,23
 271 735 271 735 271 525 c 256,12,13
EndSplineSet
EndChar

StartChar: afii10081
Encoding: 1087 1087 3
Width: 1114
Flags: W
HStem: 0 21G<164.5 295.5 818.5 949.5> 918 132<318 796>
VStem: 142 176<4.5e-07 918> 796 176<4.5e-07 918>
LayerCount: 2
Fore
SplineSet
187 0 m 2,0,1
 142 0 142 0 142 45 c 2,2,-1
 142 1005 l 2,3,4
 142 1050 142 1050 187 1050 c 2,5,-1
 927 1050 l 2,6,7
 972 1050 972 1050 972 1005 c 2,8,-1
 972 45 l 2,9,10
 972 0 972 0 927 0 c 2,11,-1
 841 0 l 2,12,13
 796 0 796 0 796 45 c 2,14,-1
 796 918 l 1,15,-1
 318 918 l 1,16,-1
 318 45 l 2,17,18
 318 0 318 0 273 0 c 2,19,-1
 187 0 l 2,0,1
EndSplineSet
EndChar

StartChar: afii10074
Encoding: 1080 1080 4
Width: 1170
Flags: W
HStem: 0 21G<164.5 337 874.5 1005.5> 1030 20G<164.5 295.5 833 1005.5>
VStem: 142 176<207 1050> 852 176<4.5e-07 843>
DStem2: 318 207 394 49 0.499659 0.866222<0 817.735>
LayerCount: 2
Fore
SplineSet
187 0 m 2,0,1
 142 0 142 0 142 45 c 2,2,-1
 142 1005 l 2,3,4
 142 1050 142 1050 187 1050 c 2,5,-1
 273 1050 l 2,6,7
 318 1050 318 1050 318 1005 c 2,8,-1
 318 267 l 2,9,10
 318 237 318 237 316 207 c 25,11,-1
 318 207 l 17,12,-1
 776 1001 l 2,13,14
 804 1050 804 1050 862 1050 c 2,15,-1
 983 1050 l 2,16,17
 1028 1050 1028 1050 1028 1005 c 2,18,-1
 1028 45 l 2,19,20
 1028 0 1028 0 983 0 c 2,21,-1
 897 0 l 2,22,23
 852 0 852 0 852 45 c 2,24,-1
 852 783 l 2,25,26
 852 813 852 813 854 843 c 9,27,-1
 852 843 l 17,28,-1
 394 49 l 2,29,30
 366 0 366 0 308 0 c 2,31,-1
 187 0 l 2,0,1
EndSplineSet
EndChar

StartChar: afii10088
Encoding: 1094 1094 5
Width: 1188
Flags: W
HStem: -310 21G<998 1112> 0 132<318 790 966 978> 1030 20G<164.5 295.5 812.5 943.5>
VStem: 142 176<132 1050> 790 176<132 1050> 978 154<-310 0>
LayerCount: 2
Back
SplineSet
1026 -332 m 1,0,-1
 972 -332 l 2,1,2
 918 -332 918 -332 918 -289 c 2,3,-1
 918 0 l 1,4,-1
 200 0 l 2,5,6
 183 0 183 0 172.5 2 c 128,-1,7
 162 4 162 4 152.5 15.5 c 128,-1,8
 143 27 143 27 143 47 c 2,9,-1
 143 991 l 2,10,11
 143 1006 143 1006 146.5 1016 c 128,-1,12
 150 1026 150 1026 155 1031 c 128,-1,13
 160 1036 160 1036 173.5 1038.5 c 128,-1,14
 187 1041 187 1041 197 1041.5 c 128,-1,15
 207 1042 207 1042 231 1042 c 0,16,17
 282 1042 282 1042 297.5 1033.5 c 128,-1,18
 313 1025 313 1025 313 987 c 2,19,-1
 313 133 l 1,20,-1
 774 133 l 1,21,-1
 774 979 l 2,22,23
 774 1021 774 1021 787.5 1031.5 c 128,-1,24
 801 1042 801 1042 836 1042 c 2,25,-1
 877 1042 l 2,26,27
 897 1042 897 1042 905 1040 c 1,28,29
 946 1040 946 1040 946 985 c 2,30,-1
 946 133 l 1,31,-1
 1014 133 l 2,32,33
 1030 131 1030 131 1035.5 129.5 c 128,-1,34
 1041 128 1041 128 1048.5 123 c 128,-1,35
 1056 118 1056 118 1057.5 109 c 128,-1,36
 1059 100 1059 100 1059 84 c 2,37,-1
 1059 -281 l 2,38,39
 1059 -296 1059 -296 1057.5 -304 c 128,-1,40
 1056 -312 1056 -312 1048.5 -320.5 c 128,-1,41
 1041 -329 1041 -329 1026 -332 c 1,0,-1
EndSplineSet
Fore
SplineSet
187 0 m 2,0,1
 142 0 142 0 142 45 c 2,2,-1
 142 1005 l 2,3,4
 142 1050 142 1050 187 1050 c 2,5,-1
 273 1050 l 2,6,7
 318 1050 318 1050 318 1005 c 2,8,-1
 318 132 l 1,9,-1
 790 132 l 1,10,-1
 790 1005 l 2,11,12
 790 1050 790 1050 835 1050 c 2,13,-1
 921 1050 l 2,14,15
 966 1050 966 1050 966 1005 c 2,16,-1
 966 132 l 5,17,-1
 1087 132 l 6,18,19
 1132 132 1132 132 1132 87 c 6,20,-1
 1132 -265 l 6,21,22
 1132 -310 1132 -310 1092 -310 c 6,23,-1
 1018 -310 l 6,24,25
 978 -310 978 -310 978 -265 c 6,26,-1
 978 0 l 5,27,-1
 187 0 l 2,0,1
EndSplineSet
EndChar

StartChar: afii10077
Encoding: 1083 1083 7
Width: 1136
Flags: W
HStem: -17 136<51.5312 218.007> 0 21G<840.5 971.5> 918 132<475 818>
VStem: 321 154<278.36 918> 818 176<4.5e-07 918>
LayerCount: 2
Back
SplineSet
137 137 m 2,0,1
 182 137 182 137 213.5 167.5 c 128,-1,2
 245 198 245 198 270.5 275 c 0,3,4
 322 430.51 322 430.51 322 854 c 2,5,-1
 322 977 l 2,6,7
 322 1000 322 1000 326 1014 c 128,-1,8
 330 1028 330 1028 334.5 1031.5 c 128,-1,9
 339 1035 339 1035 345 1037 c 128,-1,10
 351 1039 351 1039 352 1040 c 1,11,-1
 889 1040 l 2,12,13
 922 1040 922 1040 932 1028.5 c 128,-1,14
 942 1017 942 1017 942 981 c 2,15,-1
 942 80 l 2,16,17
 942 55 942 55 940 41 c 1,18,19
 940 23 940 23 930 13.5 c 128,-1,20
 920 4 920 4 909.5 2 c 128,-1,21
 899 1.19209e-07 899 1.19209e-07 881 0 c 2,22,-1
 811 0 l 1,23,24
 793 3 793 3 783.5 12.5 c 128,-1,25
 774 22 774 22 772 31.5 c 128,-1,26
 770 41 770 41 770 57 c 2,27,-1
 770 909 l 1,28,-1
 465 909 l 1,29,30
 465 738 465 738 456.5 603 c 128,-1,31
 448 468 448 468 433.5 373 c 128,-1,32
 419 278 419 278 395 210 c 128,-1,33
 371 142 371 142 345 101.5 c 128,-1,34
 319 61 319 61 282.5 38 c 128,-1,35
 246 15 246 15 211.5 7.5 c 128,-1,36
 177 0 177 0 131 0 c 2,37,-1
 84 0 l 2,38,39
 41 0 41 0 41 35 c 2,40,-1
 41 106 l 1,41,42
 46 137 46 137 76 137 c 2,43,-1
 137 137 l 2,0,1
EndSplineSet
Fore
SplineSet
57 -8 m 256,0,1
 35 1 35 1 40 22 c 2,2,-1
 58 105 l 2,3,4
 62 124 62 124 84 119 c 256,5,6
 107 113 107 113 124 113 c 256,7,8
 214 113 214 113 267.5 250.5 c 128,-1,9
 321 388 321 388 321 762 c 2,10,-1
 321 1005 l 2,11,12
 321 1050 321 1050 384 1050 c 2,13,-1
 949 1050 l 2,14,15
 994 1050 994 1050 994 1005 c 2,16,-1
 994 45 l 2,17,18
 994 0 994 0 949 0 c 2,19,-1
 863 0 l 2,20,21
 818 0 818 0 818 45 c 2,22,-1
 818 918 l 1,23,-1
 475 918 l 1,24,-1
 475 711 l 2,25,26
 475 341 475 341 394.5 162 c 128,-1,27
 314 -17 314 -17 146 -17 c 256,28,29
 78 -17 78 -17 57 -8 c 256,0,1
EndSplineSet
EndChar

StartChar: p
Encoding: 112 112 8
Width: 1119
Flags: W
HStem: -400 21G<164.5 295.5> -17 130<430.682 722.215> 937 130<430.682 722.215> 1030 20G<164.5 288.812>
VStem: 142 176<-400 125 222.317 827.683 925 1049.96> 848 186<266.624 783.376>
LayerCount: 2
Back
SplineSet
187 0 m 2,0,1
 142 0 142 0 142 45 c 2,2,-1
 142 995 l 2,3,4
 142 1040 142 1040 187 1040 c 2,5,-1
 271 1040 l 2,6,7
 316 1040 316 1040 316 995 c 2,8,-1
 316 915 l 1,9,-1
 320 915 l 1,10,11
 385 987 385 987 460 1022 c 128,-1,12
 535 1057 535 1057 647 1057 c 256,13,14
 829 1057 829 1057 908.5 954.5 c 128,-1,15
 988 852 988 852 988 674 c 2,16,-1
 988 45 l 2,17,18
 988 0 988 0 943 0 c 2,19,-1
 857 0 l 2,20,21
 812 0 812 0 812 45 c 2,22,-1
 812 626 l 2,23,24
 812 822 812 822 747 874.5 c 128,-1,25
 682 927 682 927 582 927 c 256,26,27
 452 927 452 927 385 849.5 c 128,-1,28
 318 772 318 772 318 584 c 2,29,-1
 318 45 l 2,30,31
 318 0 318 0 273 0 c 2,32,-1
 187 0 l 2,0,1
EndSplineSet
Fore
SplineSet
187 -400 m 2,0,1
 142 -400 142 -400 142 -355 c 2,2,-1
 142 1005 l 2,3,4
 142 1050 142 1050 187 1050 c 2,5,-1
 271 1050 l 2,6,7
 306.625 1050 306.625 1050 310 1005 c 2,8,-1
 316 925 l 1,9,-1
 318 925 l 1,10,11
 373 991 373 991 442 1029 c 128,-1,12
 511 1067 511 1067 626 1067 c 256,13,14
 826 1067 826 1067 930 903.5 c 128,-1,15
 1034 740 1034 740 1034 525 c 256,16,17
 1034 310 1034 310 930 146.5 c 128,-1,18
 826 -17 826 -17 626 -17 c 256,19,20
 511 -17 511 -17 442 21 c 128,-1,21
 373 59 373 59 318 125 c 1,22,-1
 316 125 l 1,23,24
 318 95 318 95 318 64 c 2,25,-1
 318 -355 l 2,26,27
 318 -400 318 -400 273 -400 c 2,28,-1
 187 -400 l 2,0,1
318 410 m 2,29,30
 318 260 318 260 389.5 186.5 c 128,-1,31
 461 113 461 113 569 113 c 256,32,33
 721 113 721 113 784.5 227 c 128,-1,34
 848 341 848 341 848 525 c 256,35,36
 848 709 848 709 784.5 823 c 128,-1,37
 721 937 721 937 569 937 c 256,38,39
 461 937 461 937 389.5 863.5 c 128,-1,40
 318 790 318 790 318 640 c 2,41,-1
 318 410 l 2,29,30
EndSplineSet
EndChar

StartChar: afii10086
Encoding: 1092 1092 12
Width: 1638
Flags: W
HStem: -400 21G<753.5 884.5> -17 130<391.422 639.228 998.772 1246.58> 937 130<391.422 639.228 998.772 1246.58> 1420 20G<753.5 884.5>
VStem: 85 186<270.91 779.09> 731 176<-400 125 211.214 838.786 925 1440> 1367 186<270.91 779.09>
CounterMasks: 1 0e
LayerCount: 2
Fore
SplineSet
85 525 m 256,0,1
 85 748 85 748 196.5 907.5 c 128,-1,2
 308 1067 308 1067 468 1067 c 256,3,4
 573 1067 573 1067 628.5 1030.5 c 128,-1,5
 684 994 684 994 731 925 c 1,6,-1
 733 925 l 1,7,8
 731 955 731 955 731 985 c 2,9,-1
 731 1395 l 2,10,11
 731 1440 731 1440 776 1440 c 2,12,-1
 862 1440 l 2,13,14
 907 1440 907 1440 907 1395 c 2,15,-1
 907 985 l 2,16,17
 907 955 907 955 905 925 c 1,18,-1
 907 925 l 1,19,20
 954 994 954 994 1009.5 1030.5 c 128,-1,21
 1065 1067 1065 1067 1170 1067 c 256,22,23
 1330 1067 1330 1067 1441.5 907.5 c 128,-1,24
 1553 748 1553 748 1553 525 c 256,25,26
 1553 302 1553 302 1441.5 142.5 c 128,-1,27
 1330 -17 1330 -17 1170 -17 c 256,28,29
 1065 -17 1065 -17 1009.5 19.5 c 128,-1,30
 954 56 954 56 907 125 c 1,31,-1
 905 125 l 1,32,33
 907 95 907 95 907 65 c 2,34,-1
 907 -355 l 2,35,36
 907 -400 907 -400 862 -400 c 2,37,-1
 776 -400 l 2,38,39
 731 -400 731 -400 731 -355 c 2,40,-1
 731 65 l 2,41,42
 731 95 731 95 733 125 c 1,43,-1
 731 125 l 1,44,45
 684 56 684 56 628.5 19.5 c 128,-1,46
 573 -17 573 -17 468 -17 c 256,47,48
 308 -17 308 -17 196.5 142.5 c 128,-1,49
 85 302 85 302 85 525 c 256,0,1
271 525 m 256,50,51
 271 345 271 345 333 229 c 128,-1,52
 395 113 395 113 525 113 c 256,53,54
 605 113 605 113 668 186.5 c 128,-1,55
 731 260 731 260 731 405 c 10,56,-1
 731 645 l 18,57,58
 731 790 731 790 668 863.5 c 128,-1,59
 605 937 605 937 525 937 c 256,60,61
 395 937 395 937 333 821 c 128,-1,62
 271 705 271 705 271 525 c 256,50,51
907 405 m 18,63,64
 907 260 907 260 970 186.5 c 128,-1,65
 1033 113 1033 113 1113 113 c 256,66,67
 1243 113 1243 113 1305 229 c 128,-1,68
 1367 345 1367 345 1367 525 c 256,69,70
 1367 705 1367 705 1305 821 c 128,-1,71
 1243 937 1243 937 1113 937 c 256,72,73
 1033 937 1033 937 970 863.5 c 128,-1,74
 907 790 907 790 907 645 c 10,75,-1
 907 405 l 18,63,64
EndSplineSet
EndChar

StartChar: afii10094
Encoding: 1100 1100 13
Width: 1017
Flags: W
HStem: 0 131<318 708.434> 488 130<318 708.434> 1030 20G<164.5 295.5>
VStem: 142 176<131 488 618 1050> 756 186<177.723 442.195>
LayerCount: 2
Fore
SplineSet
187 0 m 2,0,1
 142 0 142 0 142 45 c 2,2,-1
 142 1005 l 2,3,4
 142 1050 142 1050 187 1050 c 2,5,-1
 273 1050 l 2,6,7
 318 1050 318 1050 318 1005 c 2,8,-1
 318 618 l 1,9,-1
 540 618 l 2,10,11
 770 618 770 618 856 533.5 c 128,-1,12
 942 449 942 449 942 309 c 256,13,14
 942 169 942 169 856 84.5 c 128,-1,15
 770 0 770 0 540 0 c 2,16,-1
 187 0 l 2,0,1
318 131 m 1,17,-1
 494 131 l 2,18,19
 634 131 634 131 695 165 c 128,-1,20
 756 199 756 199 756 309 c 260,21,22
 756 419 756 419 695 453.5 c 128,-1,23
 634 488 634 488 494 488 c 2,24,-1
 318 488 l 1,25,-1
 318 131 l 1,17,-1
EndSplineSet
EndChar

StartChar: x
Encoding: 120 120 14
Width: 974
Flags: MW
HStem: 0 21G<42.5 192 780 929.5> 1030 20G<80.5 230 740.5 891.5>
DStem2: 50 59 227 26 0.562779 0.826608<10.6736 552.87 755.388 1229.5> 265 1024 88 991 0.562779 -0.826608<-61.6601 412.034 614.552 1156.75>
LayerCount: 2
Back
SplineSet
209 0 m 29,0,-1
 924 1050 l 29,1,-1
9 0 m 29,2,-1
 724 1050 l 29,3,-1
248 1050 m 29,4,-1
 963 0 l 29,5,-1
48 1050 m 29,6,-1
 763 0 l 29,7,-1
EndSplineSet
Fore
SplineSet
76 0 m 2,0,1
 9 0 9 0 50 59 c 2,2,-1
 391 553 l 1,3,-1
 88 991 l 2,4,5
 47 1050 47 1050 114 1050 c 2,6,-1
 212 1050 l 2,7,8
 248 1050 248 1050 265 1024 c 2,9,-1
 486 676 l 1,10,-1
 706 1024 l 2,11,12
 722 1050 722 1050 759 1050 c 2,13,-1
 858 1050 l 2,14,15
 925 1050 925 1050 884 991 c 2,16,-1
 581 553 l 1,17,-1
 922 59 l 2,18,19
 963 0 963 0 896 0 c 2,20,-1
 798 0 l 2,21,22
 762 0 762 0 745 26 c 2,23,-1
 486 431 l 1,24,-1
 227 26 l 2,25,26
 210 0 210 0 174 0 c 2,27,-1
 76 0 l 2,0,1
EndSplineSet
EndChar

StartChar: c
Encoding: 99 99 15
Width: 1026
Flags: W
HStem: -17 130<406.241 730.142> 937 130<406.241 731.735>
VStem: 85 186<268.095 781.905>
LayerCount: 2
Back
SplineSet
85 525 m 256,0,1
 85 760 85 760 209.5 913.5 c 128,-1,2
 334 1067 334 1067 574 1067 c 256,3,4
 814 1067 814 1067 938.5 913.5 c 128,-1,5
 1063 760 1063 760 1063 525 c 256,6,7
 1063 290 1063 290 938.5 136.5 c 128,-1,8
 814 -17 814 -17 574 -17 c 256,9,10
 334 -17 334 -17 209.5 136.5 c 128,-1,11
 85 290 85 290 85 525 c 256,0,1
271 525 m 256,12,13
 271 315 271 315 354 214 c 128,-1,14
 437 113 437 113 574 113 c 256,15,16
 711 113 711 113 794 214 c 128,-1,17
 877 315 877 315 877 525 c 256,18,19
 877 735 877 735 794 836 c 128,-1,20
 711 937 711 937 574 937 c 256,21,22
 437 937 437 937 354 836 c 128,-1,23
 271 735 271 735 271 525 c 256,12,13
EndSplineSet
Fore
SplineSet
85 525 m 256,0,1
 85 760 85 760 201.5 913.5 c 128,-1,2
 318 1067 318 1067 558 1067 c 256,3,4
 720 1067 720 1067 805.5 1009.5 c 128,-1,5
 891 952 891 952 929 892 c 256,6,7
 950.465 858.827 950.465 858.827 920 839 c 282,8,-1
 857 798 l 273,9,10
 827 777 827 777 797 825 c 256,11,12
 768 871 768 871 715.5 904 c 128,-1,13
 663 937 663 937 558 937 c 256,14,15
 421 937 421 937 346 836 c 128,-1,16
 271 735 271 735 271 525 c 256,17,18
 271 315 271 315 346 214 c 128,-1,19
 421 113 421 113 558 113 c 256,20,21
 669 113 669 113 728 155.5 c 128,-1,22
 787 198 787 198 814 248 c 256,23,24
 839.876 294.776 839.876 294.776 873 275 c 266,25,-1
 940 235 l 282,26,27
 970.039 217.066 970.039 217.066 949 181 c 256,28,29
 924 138 924 138 835.5 60.5 c 128,-1,30
 747 -17 747 -17 558 -17 c 256,31,32
 318 -17 318 -17 201.5 136.5 c 128,-1,33
 85 290 85 290 85 525 c 256,0,1
EndSplineSet
EndChar

StartChar: afii10068
Encoding: 1075 1075 16
Width: 868
Flags: W
HStem: 0 21G<164.5 295.5> 918 132<318 836>
VStem: 142 176<4.5e-07 918>
LayerCount: 2
Back
SplineSet
319 70 m 1,0,-1
 320 58 l 2,1,2
 320 21 320 21 307 10.5 c 128,-1,3
 294 0 294 0 260 0 c 2,4,-1
 176 0 l 1,5,6
 163 2 163 2 155 7 c 128,-1,7
 147 12 147 12 143.5 23 c 128,-1,8
 140 34 140 34 139.5 42 c 128,-1,9
 139 50 139 50 139 66 c 2,10,-1
 139 979 l 2,11,12
 139 998 139 998 140.5 1008 c 128,-1,13
 142 1018 142 1018 150.5 1028 c 128,-1,14
 159 1038 159 1038 176 1040 c 2,15,-1
 750 1040 l 2,16,17
 780 1040 780 1040 788.5 1027.5 c 128,-1,18
 797 1015 797 1015 797 985 c 2,19,-1
 797 971 l 2,20,21
 797 915 797 915 768 915 c 1,22,23
 762 911 762 911 745 911 c 2,24,-1
 319 911 l 1,25,-1
 319 70 l 1,0,-1
EndSplineSet
Fore
SplineSet
187 0 m 2,0,1
 142 0 142 0 142 45 c 2,2,-1
 142 1005 l 2,3,4
 142 1050 142 1050 187 1050 c 2,5,-1
 791 1050 l 2,6,7
 836 1050 836 1050 836 1015 c 2,8,-1
 836 953 l 2,9,10
 836 918 836 918 791 918 c 2,11,-1
 318 918 l 1,12,-1
 318 45 l 2,13,14
 318 0 318 0 273 0 c 2,15,-1
 187 0 l 2,0,1
EndSplineSet
EndChar

StartChar: afii10084
Encoding: 1090 1090 17
Width: 960
Flags: W
HStem: 0 21G<414.5 545.5> 915 135<32 392 568 928>
VStem: 392 176<4.5e-07 915>
LayerCount: 2
Fore
SplineSet
77 915 m 2,0,1
 32 915 32 915 32 950 c 2,2,-1
 32 1015 l 2,3,4
 32 1050 32 1050 77 1050 c 2,5,-1
 883 1050 l 2,6,7
 928 1050 928 1050 928 1015 c 2,8,-1
 928 950 l 2,9,10
 928 915 928 915 883 915 c 2,11,-1
 568 915 l 1,12,-1
 568 45 l 2,13,14
 568 0 568 0 523 0 c 2,15,-1
 437 0 l 2,16,17
 392 0 392 0 392 45 c 2,18,-1
 392 915 l 1,19,-1
 77 915 l 2,0,1
EndSplineSet
EndChar

StartChar: n
Encoding: 110 110 18
Width: 1128
Flags: W
HStem: 0 21G<164.5 295.5 834.5 965.5> 937 130<441.349 736.543> 1030 20G<164.5 293.5>
VStem: 142 176<4.5e-07 826.553 925 1049.96> 812 176<4.5e-07 860.361>
LayerCount: 2
Fore
SplineSet
187 0 m 2,0,1
 142 0 142 0 142 45 c 2,2,-1
 142 1005 l 2,3,4
 142 1050 142 1050 187 1050 c 2,5,-1
 271 1050 l 2,6,7
 316 1050 316 1050 316 1005 c 2,8,-1
 316 925 l 1,9,-1
 320 925 l 1,10,11
 385 997 385 997 460 1032 c 128,-1,12
 535 1067 535 1067 647 1067 c 256,13,14
 829 1067 829 1067 908.5 964.5 c 128,-1,15
 988 862 988 862 988 684 c 2,16,-1
 988 45 l 2,17,18
 988 0 988 0 943 0 c 2,19,-1
 857 0 l 2,20,21
 812 0 812 0 812 45 c 2,22,-1
 812 636 l 2,23,24
 812 832 812 832 747 884.5 c 128,-1,25
 682 937 682 937 582 937 c 256,26,27
 452 937 452 937 385 859.5 c 128,-1,28
 318 782 318 782 318 594 c 2,29,-1
 318 45 l 2,30,31
 318 0 318 0 273 0 c 2,32,-1
 187 0 l 2,0,1
EndSplineSet
EndChar

StartChar: afii10090
Encoding: 1096 1096 19
Width: 1672
Flags: W
HStem: 0 132<318 748 924 1354> 1030 20G<164.5 295.5 770.5 901.5 1376.5 1507.5>
VStem: 142 176<132 1050> 748 176<132 1050> 1354 176<132 1050>
CounterMasks: 1 38
LayerCount: 2
Fore
SplineSet
187 0 m 6,0,1
 142 0 142 0 142 45 c 6,2,-1
 142 1005 l 6,3,4
 142 1050 142 1050 187 1050 c 6,5,-1
 273 1050 l 6,6,7
 318 1050 318 1050 318 1005 c 6,8,-1
 318 132 l 5,9,-1
 748 132 l 5,10,-1
 748 1005 l 6,11,12
 748 1050 748 1050 793 1050 c 6,13,-1
 879 1050 l 6,14,15
 924 1050 924 1050 924 1005 c 6,16,-1
 924 132 l 5,17,-1
 1354 132 l 5,18,-1
 1354 1005 l 6,19,20
 1354 1050 1354 1050 1399 1050 c 6,21,-1
 1485 1050 l 6,22,23
 1530 1050 1530 1050 1530 1005 c 6,24,-1
 1530 45 l 6,25,26
 1530 0 1530 0 1485 0 c 6,27,-1
 187 0 l 6,0,1
EndSplineSet
EndChar

StartChar: afii10091
Encoding: 1097 1097 20
Width: 1752
Flags: W
HStem: -310 21G<1562 1676> 0 132<318 748 924 1354 1530 1542> 1030 20G<164.5 295.5 770.5 901.5 1376.5 1507.5>
VStem: 142 176<132 1050> 748 176<132 1050> 1354 176<132 1050> 1542 154<-310 0>
LayerCount: 2
Fore
SplineSet
187 0 m 2,0,1
 142 0 142 0 142 45 c 2,2,-1
 142 1005 l 2,3,4
 142 1050 142 1050 187 1050 c 2,5,-1
 273 1050 l 2,6,7
 318 1050 318 1050 318 1005 c 2,8,-1
 318 132 l 1,9,-1
 748 132 l 1,10,-1
 748 1005 l 2,11,12
 748 1050 748 1050 793 1050 c 2,13,-1
 879 1050 l 2,14,15
 924 1050 924 1050 924 1005 c 2,16,-1
 924 132 l 1,17,-1
 1354 132 l 1,18,-1
 1354 1005 l 2,19,20
 1354 1050 1354 1050 1399 1050 c 2,21,-1
 1485 1050 l 2,22,23
 1530 1050 1530 1050 1530 1005 c 2,24,-1
 1530 132 l 1,25,-1
 1651 132 l 2,26,27
 1696 132 1696 132 1696 87 c 2,28,-1
 1696 -265 l 2,29,30
 1696 -310 1696 -310 1656 -310 c 2,31,-1
 1582 -310 l 2,32,33
 1542 -310 1542 -310 1542 -265 c 2,34,-1
 1542 0 l 1,35,-1
 187 0 l 2,0,1
EndSplineSet
EndChar

StartChar: afii10069
Encoding: 1076 1076 21
Width: 1210
Flags: W
HStem: -310 442<44 191.852 1000.01 1154> 0 132<329 814 990 1000> 918 132<471 814>
VStem: 44 154<-310 0> 317 154<359.957 918> 814 176<132 918> 1000 154<-310 0>
LayerCount: 2
Back
SplineSet
53 -8 m 256,0,1
 31 1 31 1 36 22 c 2,2,-1
 54 105 l 2,3,4
 58 124 58 124 80 119 c 256,5,6
 103 113 103 113 120 113 c 256,7,8
 210 113 210 113 263.5 250.5 c 128,-1,9
 317 388 317 388 317 762 c 2,10,-1
 317 995 l 2,11,12
 317 1040 317 1040 380 1040 c 2,13,-1
 945 1040 l 2,14,15
 990 1040 990 1040 990 995 c 2,16,-1
 990 45 l 2,17,18
 990 0 990 0 945 0 c 2,19,-1
 859 0 l 2,20,21
 814 0 814 0 814 45 c 2,22,-1
 814 910 l 1,23,-1
 467 910 l 1,24,-1
 467 711 l 2,25,26
 467 343 467 343 383.5 163 c 128,-1,27
 300 -17 300 -17 142 -17 c 256,28,29
 74 -17 74 -17 53 -8 c 256,0,1
EndSplineSet
Fore
SplineSet
84 -310 m 2,0,1
 44 -310 44 -310 44 -265 c 2,2,-1
 44 87 l 2,3,4
 44 132 44 132 89 132 c 2,5,-1
 153 132 l 1,6,7
 256 228 256 228 286.5 433 c 128,-1,8
 317 638 317 638 317 775 c 2,9,-1
 317 1005 l 2,10,11
 317 1050 317 1050 380 1050 c 2,12,-1
 945 1050 l 2,13,14
 990 1050 990 1050 990 1005 c 2,15,-1
 990 132 l 1,16,-1
 1109 132 l 2,17,18
 1154 132 1154 132 1154 87 c 2,19,-1
 1154 -265 l 2,20,21
 1154 -310 1154 -310 1114 -310 c 2,22,-1
 1040 -310 l 2,23,24
 1000 -310 1000 -310 1000 -265 c 2,25,-1
 1000 0 l 1,26,-1
 198 0 l 1,27,-1
 198 -265 l 2,28,29
 198 -310 198 -310 158 -310 c 2,30,-1
 84 -310 l 2,0,1
329 132 m 1,31,-1
 814 132 l 1,32,-1
 814 918 l 1,33,-1
 471 918 l 1,34,-1
 471 720 l 2,35,36
 471 458 471 458 423.5 311 c 128,-1,37
 376 164 376 164 329 132 c 1,31,-1
EndSplineSet
EndChar

StartChar: afii10089
Encoding: 1095 1095 23
Width: 1060
Flags: W
HStem: 0 21G<764.5 895.5> 413 130<315.88 722.04> 1030 20G<126.5 257.5 764.5 895.5>
VStem: 104 176<581.25 1050> 742 176<4.5e-07 469 573.5 1050>
LayerCount: 2
Back
SplineSet
195 1041 m 2,0,-1
 217 1040 l 1,1,-1
 258 1040 l 2,2,3
 288 1040 288 1040 300.5 1031 c 128,-1,4
 313 1022 313 1022 313 991 c 2,5,-1
 313 727 l 2,6,7
 313 687 313 687 317.5 662.5 c 128,-1,8
 322 638 322 638 336 614 c 128,-1,9
 350 590 350 590 381.5 578.5 c 128,-1,10
 413 567 413 567 463 567 c 2,11,-1
 774 567 l 1,12,-1
 774 991 l 2,13,14
 774 992 774 992 775.5 1000.5 c 128,-1,15
 777 1009 777 1009 779 1014 c 128,-1,16
 781 1019 781 1019 785 1026.5 c 0,17,18
 792.733 1041 792.733 1041 819 1041 c 2,19,-1
 844 1040 l 1,20,-1
 893 1040 l 2,21,22
 927 1040 927 1040 936.5 1026 c 128,-1,23
 946 1012 946 1012 946 975 c 2,24,-1
 946 51 l 1,25,26
 941 20 941 20 933 11 c 0,27,28
 922 0 922 0 901 0 c 2,29,-1
 848 0 l 2,30,31
 799 0 799 0 786.5 11.5 c 128,-1,32
 774 23 774 23 774 74 c 2,33,-1
 774 432 l 1,34,-1
 467 432 l 2,35,36
 418 432 418 432 395 434 c 0,37,38
 292 451 292 451 217.5 523.5 c 128,-1,39
 143 596 143 596 143 715 c 2,40,-1
 143 987 l 2,41,42
 143 1040 143 1040 184 1040 c 1,43,44
 188 1041 188 1041 195 1041 c 2,0,-1
EndSplineSet
Fore
SplineSet
104 706 m 2,0,-1
 104 1005 l 2,1,2
 104 1050 104 1050 149 1050 c 2,3,-1
 235 1050 l 2,4,5
 280 1050 280 1050 280 1005 c 2,6,-1
 280 734 l 2,7,8
 280 610 280 610 328 576.5 c 128,-1,9
 376 543 376 543 454 543 c 256,10,11
 562 543 562 543 634.5 555 c 128,-1,12
 707 567 707 567 742 605 c 9,13,-1
 742 1005 l 2,14,15
 742 1050 742 1050 787 1050 c 2,16,-1
 873 1050 l 2,17,18
 918 1050 918 1050 918 1005 c 2,19,-1
 918 45 l 2,20,21
 918 0 918 0 873 0 c 2,22,-1
 787 0 l 2,23,24
 742 0 742 0 742 45 c 2,25,-1
 742 409 l 1,26,27
 743 439 743 439 744 469 c 1,28,-1
 740 469 l 1,29,30
 716 444 716 444 616.5 428.5 c 128,-1,31
 517 413 517 413 429 413 c 256,32,33
 277 413 277 413 190.5 489 c 128,-1,34
 104 565 104 565 104 706 c 2,0,-1
EndSplineSet
EndChar

StartChar: a
Encoding: 97 97 24
Width: 1067
Flags: W
HStem: -17 135<303.906 644.181> 0 21G<770.5 902.5> 507 131<439.424 749> 937 130<340.515 684.38>
VStem: 85 182<155.312 391.333> 749 176<4.5e-07 94 178.319 507 638 870.624>
LayerCount: 2
Back
SplineSet
85 280 m 256,0,1
 85 458 85 458 251.5 541 c 128,-1,2
 418 624 418 624 749 638 c 1,3,-1
 749 706 l 2,4,5
 749 800 749 800 706.5 868.5 c 128,-1,6
 664 937 664 937 538 937 c 256,7,8
 441 937 441 937 373.5 909 c 128,-1,9
 306 881 306 881 247 815 c 0,10,11
 220 785 220 785 196 812 c 2,12,-1
 144 872 l 2,13,14
 122 897 122 897 159 932 c 0,15,16
 241 1010 241 1010 351 1038.5 c 128,-1,17
 461 1067 461 1067 538 1067 c 256,18,19
 747 1067 747 1067 836 959.5 c 128,-1,20
 925 852 925 852 925 665 c 2,21,-1
 925 45 l 2,22,23
 925 0 925 0 880 0 c 2,24,-1
 790 0 l 2,25,26
 751 0 751 0 751 45 c 2,27,-1
 751 94 l 1,28,-1
 749 94 l 1,29,30
 670 32 670 32 594.5 7.5 c 128,-1,31
 519 -17 519 -17 426 -17 c 256,32,33
 262 -17 262 -17 173.5 61.5 c 128,-1,34
 85 140 85 140 85 280 c 256,0,1
267 286 m 256,35,36
 267 188 267 188 313.5 153 c 128,-1,37
 360 118 360 118 461 118 c 256,38,39
 538 118 538 118 607 133 c 128,-1,40
 676 148 676 148 749 212 c 9,41,-1
 749 507 l 1,42,43
 408 481 408 481 337.5 417.5 c 128,-1,44
 267 354 267 354 267 286 c 256,35,36
EndSplineSet
Fore
SplineSet
85 280 m 256,0,1
 85 458 85 458 251.5 541 c 128,-1,2
 418 624 418 624 749 638 c 1,3,-1
 749 706 l 2,4,5
 749 800 749 800 706.5 868.5 c 128,-1,6
 664 937 664 937 538 937 c 256,7,8
 458 937 458 937 410 921.5 c 128,-1,9
 362 906 362 906 322.5 880.5 c 128,-1,10
 283 855 283 855 247 815 c 0,11,12
 220 785 220 785 196 812 c 2,13,-1
 144 872 l 2,14,15
 122 897 122 897 159 932 c 0,16,17
 212 982 212 982 262 1007 c 128,-1,18
 312 1032 312 1032 386.5 1049.5 c 128,-1,19
 461 1067 461 1067 538 1067 c 256,20,21
 747 1067 747 1067 836 959.5 c 128,-1,22
 925 852 925 852 925 665 c 2,23,-1
 925 45 l 2,24,25
 925 0 925 0 880 0 c 2,26,-1
 790 0 l 2,27,28
 751 0 751 0 751 45 c 2,29,-1
 751 94 l 1,30,-1
 749 94 l 1,31,32
 670 32 670 32 594.5 7.5 c 128,-1,33
 519 -17 519 -17 426 -17 c 256,34,35
 262 -17 262 -17 173.5 61.5 c 128,-1,36
 85 140 85 140 85 280 c 256,0,1
267 276 m 256,37,38
 267 214 267 214 293 176.5 c 128,-1,39
 319 139 319 139 365 128.5 c 128,-1,40
 411 118 411 118 461 118 c 256,41,42
 538 118 538 118 607 133 c 128,-1,43
 676 148 676 148 749 212 c 9,44,-1
 749 507 l 1,45,46
 547 492 547 492 461 470.5 c 128,-1,47
 375 449 375 449 321 396.5 c 128,-1,48
 267 344 267 344 267 276 c 256,37,38
EndSplineSet
EndChar

StartChar: afii10067
Encoding: 1074 1074 26
Width: 1062
Flags: W
HStem: 0 131<318 732.512> 474 131<318 681.641> 920 130<318 693.984>
VStem: 142 176<131 474 605 920> 736 176<656.578 877.363> 776 186<172.325 420.703>
LayerCount: 2
Back
SplineSet
283 1040 m 1,0,-1
 510 1040 l 2,1,2
 740 1040 740 1040 826 968.5 c 128,-1,3
 912 897 912 897 912 757 c 256,4,5
 912 617 912 617 826 545.5 c 128,-1,6
 740 474 740 474 510 474 c 2,7,-1
 228 474 l 1,8,-1
 283 605 l 1,9,-1
 474 605 l 2,10,11
 614 605 614 605 675 636 c 128,-1,12
 736 667 736 667 736 757 c 256,13,14
 736 847 736 847 675 878.5 c 128,-1,15
 614 910 614 910 474 910 c 2,16,-1
 283 910 l 1,17,-1
 283 1040 l 1,0,-1
187 0 m 2,18,19
 142 0 142 0 142 45 c 2,20,-1
 142 995 l 2,21,22
 142 1040 142 1040 187 1040 c 2,23,-1
 273 1040 l 2,24,25
 318 1040 318 1040 318 995 c 2,26,-1
 318 45 l 2,27,28
 318 0 318 0 273 0 c 2,29,-1
 187 0 l 2,18,19
313 604 m 1,30,-1
 560 604 l 2,31,32
 790 604 790 604 876 523 c 128,-1,33
 962 442 962 442 962 302 c 256,34,35
 962 162 962 162 876 81 c 128,-1,36
 790 0 790 0 560 0 c 2,37,-1
 258 0 l 1,38,-1
 313 131 l 1,39,-1
 514 131 l 2,40,41
 654 131 654 131 715 171.5 c 128,-1,42
 776 212 776 212 776 302 c 256,43,44
 776 392 776 392 715 433 c 128,-1,45
 654 474 654 474 514 474 c 2,46,-1
 313 474 l 1,47,-1
 313 604 l 1,30,-1
EndSplineSet
Fore
SplineSet
187 0 m 2,0,1
 142 0 142 0 142 45 c 2,2,-1
 142 1005 l 2,3,4
 142 1050 142 1050 187 1050 c 2,5,-1
 510 1050 l 2,6,7
 740 1050 740 1050 826 975.5 c 128,-1,8
 912 901 912 901 912 778 c 256,9,10
 912 701 912 701 886 647.5 c 128,-1,11
 860 594 860 594 769 552 c 1,12,-1
 769 551 l 1,13,14
 874 516 874 516 918 469 c 128,-1,15
 962 422 962 422 962 282 c 256,16,17
 962 164 962 164 875 82 c 128,-1,18
 788 0 788 0 560 0 c 2,19,-1
 187 0 l 2,0,1
318 131 m 1,20,-1
 514 131 l 2,21,22
 654 131 654 131 715 161.5 c 128,-1,23
 776 192 776 192 776 302 c 256,24,25
 776 402 776 402 706 438 c 128,-1,26
 636 474 636 474 514 474 c 2,27,-1
 318 474 l 1,28,-1
 318 131 l 1,20,-1
318 605 m 1,29,-1
 474 605 l 2,30,31
 594 605 594 605 665 639.5 c 128,-1,32
 736 674 736 674 736 762 c 256,33,34
 736 857 736 857 675 888.5 c 128,-1,35
 614 920 614 920 474 920 c 2,36,-1
 318 920 l 1,37,-1
 318 605 l 1,29,-1
EndSplineSet
EndChar

StartChar: afii10092
Encoding: 1098 1098 27
Width: 1285
Flags: W
HStem: 0 131<586 976.434> 488 130<586 976.434> 920 130<50 410>
VStem: 410 176<131 488 618 920> 1024 186<177.723 442.195>
LayerCount: 2
Fore
SplineSet
95 920 m 2,0,1
 50 920 50 920 50 955 c 2,2,-1
 50 1015 l 2,3,4
 50 1050 50 1050 95 1050 c 2,5,-1
 541 1050 l 2,6,7
 586 1050 586 1050 586 1005 c 2,8,-1
 586 618 l 1,9,-1
 808 618 l 2,10,11
 1038 618 1038 618 1124 533.5 c 128,-1,12
 1210 449 1210 449 1210 309 c 256,13,14
 1210 169 1210 169 1124 84.5 c 128,-1,15
 1038 0 1038 0 808 0 c 2,16,-1
 455 0 l 2,17,18
 410 0 410 0 410 45 c 2,19,-1
 410 920 l 1,20,-1
 95 920 l 2,0,1
586 131 m 1,21,-1
 762 131 l 2,22,23
 902 131 902 131 963 165 c 128,-1,24
 1024 199 1024 199 1024 309 c 256,25,26
 1024 419 1024 419 963 453.5 c 128,-1,27
 902 488 902 488 762 488 c 2,28,-1
 586 488 l 1,29,-1
 586 131 l 1,21,-1
EndSplineSet
EndChar

StartChar: v
Encoding: 118 118 28
Width: 986
Flags: W
HStem: 0 21G<410.5 575.5> 1030 20G<50 197 789 936>
DStem2: 438 351 373 61 0.329455 -0.944171<-755.117 192.614> 548 351 613 61 0.329455 0.944171<-192.614 755.117>
LayerCount: 2
Fore
SplineSet
45 1001 m 2,0,1
 28 1050 28 1050 72 1050 c 2,2,-1
 181 1050 l 2,3,4
 213 1050 213 1050 226 1011 c 2,5,-1
 438 351 l 2,6,7
 464 270 464 270 473.5 239.5 c 128,-1,8
 483 209 483 209 491 164 c 1,9,-1
 495 164 l 1,10,11
 503 209 503 209 512.5 239.5 c 128,-1,12
 522 270 522 270 548 351 c 2,13,-1
 760 1011 l 2,14,15
 773 1050 773 1050 805 1050 c 2,16,-1
 914 1050 l 2,17,18
 958 1050 958 1050 941 1001 c 2,19,-1
 613 61 l 2,20,21
 592 0 592 0 559 0 c 2,22,-1
 427 0 l 2,23,24
 394 0 394 0 373 61 c 2,25,-1
 45 1001 l 2,0,1
EndSplineSet
EndChar

StartChar: y
Encoding: 121 121 29
Width: 990
Flags: MW
HStem: -417 130<88.8008 301.109> 1030 20G<55.5 203.5 793 940.5>
DStem2: 412 -1 608 61 0.328521 0.944497<-296.938 0 185.503 1127.75> 469.5 266.5 412 -1 0.338952 -0.940804<-726.223 104.003>
LayerCount: 2
Back
SplineSet
49 991 m 2,0,1
 31.7183 1040 31.7183 1040 76 1040 c 2,2,-1
 185 1040 l 2,3,4
 217.28 1040 217.28 1040 230 1001 c 2,5,-1
 442 351 l 2,6,7
 459.832 296.325 459.832 296.325 473 254 c 0,8,9
 487 209 487 209 495 164 c 1,10,-1
 499 164 l 1,11,12
 507 209 507 209 521 254 c 0,13,14
 534.168 296.325 534.168 296.325 552 351 c 2,15,-1
 764 1001 l 2,16,17
 776.72 1040 776.72 1040 809 1040 c 2,18,-1
 918 1040 l 2,19,20
 962.282 1040 962.282 1040 945 991 c 2,21,-1
 617 61 l 2,22,23
 595.486 0 595.486 0 563 0 c 2,24,-1
 431 0 l 2,25,26
 398.514 4.09382e-06 398.514 4.09382e-06 377 61 c 2,27,-1
 49 991 l 2,0,1
EndSplineSet
Fore
SplineSet
51 1001 m 2,0,1
 33.3463 1050 33.3463 1050 78 1050 c 2,2,-1
 187 1050 l 2,3,4
 219.591 1050 219.591 1050 232 1011 c 2,5,-1
 442 351 l 2,6,7
 451 324 451 324 469.5 266.5 c 128,-1,8
 488 209 488 209 496 164 c 1,9,-1
 498 164 l 1,10,11
 506 209 506 209 517.5 245.5 c 128,-1,12
 529 282 529 282 552 351 c 2,13,-1
 764 1011 l 2,14,15
 776.527 1050 776.527 1050 809 1050 c 2,16,-1
 918 1050 l 2,17,18
 962.567 1050 962.567 1050 945 1001 c 2,19,-1
 608 61 l 2,20,21
 512.989 -204.015 512.989 -204.015 438 -310.5 c 128,-1,22
 363 -417 363 -417 214 -417 c 256,23,24
 136 -417 136 -417 90 -394 c 256,25,26
 69.2249 -384.107 69.2249 -384.107 76 -363 c 2,27,-1
 102 -282 l 2,28,29
 108.773 -260.898 108.773 -260.898 129 -270 c 256,30,31
 170 -287 170 -287 208 -287 c 256,32,33
 278 -287 278 -287 322.167 -211.358 c 128,-1,34
 366.333 -135.716 366.333 -135.716 392 -60 c 2,35,-1
 412 -1 l 9,36,-1
 51 1001 l 2,0,1
EndSplineSet
EndChar

StartChar: e
Encoding: 101 101 30
Width: 1098
Flags: W
HStem: -17 131<419.57 756.595> 458 130<271 832> 939 128<405.742 703.432>
VStem: 85 186<272.007 458 588 783.894> 832 177<588 782.152>
LayerCount: 2
Back
SplineSet
85 525 m 260,0,1
 85 760 85 760 209.5 913.5 c 132,-1,2
 334 1067 334 1067 574 1067 c 260,3,4
 814 1067 814 1067 938.5 913.5 c 132,-1,5
 1063 760 1063 760 1063 525 c 260,6,7
 1063 290 1063 290 938.5 136.5 c 132,-1,8
 814 -17 814 -17 574 -17 c 260,9,10
 334 -17 334 -17 209.5 136.5 c 132,-1,11
 85 290 85 290 85 525 c 260,0,1
271 525 m 260,12,13
 271 315 271 315 354 214 c 132,-1,14
 437 113 437 113 574 113 c 260,15,16
 711 113 711 113 794 214 c 132,-1,17
 877 315 877 315 877 525 c 260,18,19
 877 735 877 735 794 836 c 132,-1,20
 711 937 711 937 574 937 c 260,21,22
 437 937 437 937 354 836 c 132,-1,23
 271 735 271 735 271 525 c 260,12,13
85 520 m 256,0,1
 85 755 85 755 201.5 906 c 128,-1,2
 318 1057 318 1057 558 1057 c 256,3,4
 768 1057 768 1057 844.5 979.5 c 128,-1,5
 921 902 921 902 929 882 c 256,6,7
 945 845 945 845 920 829 c 26,8,-1
 855 786 l 18,9,10
 817 761 817 761 795 813 c 0,11,12
 783 842 783 842 735.5 882 c 128,-1,13
 688 922 688 922 558 922 c 256,14,15
 423 922 423 922 347 826 c 128,-1,16
 271 730 271 730 271 520 c 256,17,18
 271 310 271 310 347 214 c 128,-1,19
 423 118 423 118 558 118 c 256,20,21
 682 118 682 118 733.5 159 c 128,-1,22
 785 200 785 200 812 250 c 256,23,24
 838 297 838 297 871 277 c 10,25,-1
 940 235 l 26,26,27
 965 220 965 220 949 181 c 256,28,29
 936 149 936 149 845.5 66 c 128,-1,30
 755 -17 755 -17 558 -17 c 256,31,32
 318 -17 318 -17 201.5 134 c 128,-1,33
 85 285 85 285 85 520 c 256,0,1
EndSplineSet
Fore
SplineSet
85 525 m 256,0,1
 85 773 85 773 209 920 c 128,-1,2
 333 1067 333 1067 564 1067 c 256,3,4
 756 1067 756 1067 882.5 932.5 c 128,-1,5
 1009 798 1009 798 1009 503 c 0,6,7
 1009 458 1009 458 968 458 c 2,8,-1
 271 458 l 1,9,10
 288 265 288 265 375 189.5 c 128,-1,11
 462 114 462 114 572 114 c 256,12,13
 688 114 688 114 750 153 c 128,-1,14
 812 192 812 192 841 230 c 256,15,16
 872.969 271.959 872.969 271.959 903 246 c 10,17,-1
 962 195 l 26,18,19
 985.05 175.076 985.05 175.076 962 140 c 256,20,21
 943 111 943 111 853.5 47 c 128,-1,22
 764 -17 764 -17 572 -17 c 256,23,24
 322 -17 322 -17 203.5 130 c 128,-1,25
 85 277 85 277 85 525 c 256,0,1
267 588 m 1,26,-1
 832 588 l 1,27,28
 828 728 828 728 760 833.5 c 128,-1,29
 692 939 692 939 560 939 c 256,30,31
 444 939 444 939 363 861.5 c 128,-1,32
 282 784 282 784 267 588 c 1,26,-1
EndSplineSet
EndChar

StartChar: i
Encoding: 105 105 31
Width: 460
Flags: W
HStem: 0 21<164.5 295.5> 1020 20<164.5 295.5> 1240 176<142 318>
VStem: 142 176<0 1040 1240 1416>
LayerCount: 2
Back
SplineSet
139 1335 m 2,0,-1
 139 1419 l 2,1,2
 144 1457 144 1457 187 1457 c 2,3,-1
 209 1456 l 1,4,-1
 272 1456 l 2,5,6
 293 1456 293 1456 303.5 1445 c 128,-1,7
 314 1434 314 1434 315.5 1425 c 128,-1,8
 317 1416 317 1416 317 1401 c 2,9,-1
 317 1352 l 2,10,11
 317 1303 317 1303 305.5 1290.5 c 128,-1,12
 294 1278 294 1278 248.5 1278 c 128,-1,13
 203 1278 203 1278 180 1280 c 0,14,15
 139 1280 139 1280 139 1335 c 2,0,-1
252 1040 m 1,16,-1
 269 1041 l 2,17,18
 283 1041 283 1041 292 1039 c 128,-1,19
 301 1037 301 1037 306 1029.5 c 128,-1,20
 311 1022 311 1022 312.5 1019.5 c 128,-1,21
 314 1017 314 1017 315.5 1004.5 c 128,-1,22
 317 992 317 992 317 991 c 2,23,-1
 317 58 l 2,24,25
 317 19 317 19 299 6 c 1,26,27
 298 6 298 6 289.5 2.5 c 128,-1,28
 281 -0.999984 281 -0.999984 266 -1 c 2,29,-1
 242 0 l 1,30,-1
 178 0 l 1,31,32
 141 6 141 6 141 49 c 2,33,-1
 139 84 l 1,34,-1
 139 982 l 2,35,36
 139 1020 139 1020 151.5 1030 c 128,-1,37
 164 1040 164 1040 195 1040 c 2,38,-1
 252 1040 l 1,16,-1
EndSplineSet
Fore
Refer: 0 305 N 1 0 0 1 0 0 3
Refer: 32 729 N 1 0 0 1 -77 0 2
EndChar

StartChar: dotaccent
Encoding: 729 729 32
Width: 614
Flags: W
HStem: 1240 176<219 395>
VStem: 219 176<1240 1416>
LayerCount: 2
Fore
SplineSet
264 1240 m 2,0,1
 219 1240 219 1240 219 1285 c 2,2,-1
 219 1371 l 2,3,4
 219 1416 219 1416 264 1416 c 2,5,-1
 350 1416 l 2,6,7
 395 1416 395 1416 395 1371 c 2,8,-1
 395 1285 l 2,9,10
 395 1240 395 1240 350 1240 c 2,11,-1
 264 1240 l 2,0,1
EndSplineSet
EndChar

StartChar: q
Encoding: 113 113 33
Width: 1119
Flags: W
HStem: -400 21<823.5 954.5> -17 130<396.785 688.318> 937 130<396.785 688.318> 1030 20<830.188 954.5>
VStem: 85 186<266.624 783.376> 801 176<-400 125 222.317 827.683 925 1049.96>
LayerCount: 2
Fore
SplineSet
85 525 m 256,0,1
 85 740 85 740 189 903.5 c 128,-1,2
 293 1067 293 1067 493 1067 c 256,3,4
 608 1067 608 1067 677 1029 c 128,-1,5
 746 991 746 991 801 925 c 1,6,-1
 803 925 l 1,7,-1
 809 1005 l 2,8,9
 812.375 1050 812.375 1050 848 1050 c 2,10,-1
 932 1050 l 2,11,12
 977 1050 977 1050 977 1005 c 2,13,-1
 977 -355 l 2,14,15
 977 -400 977 -400 932 -400 c 2,16,-1
 846 -400 l 2,17,18
 801 -400 801 -400 801 -355 c 2,19,-1
 801 64 l 2,20,21
 801 95 801 95 803 125 c 1,22,-1
 801 125 l 1,23,24
 746 59 746 59 677 21 c 128,-1,25
 608 -17 608 -17 493 -17 c 256,26,27
 293 -17 293 -17 189 146.5 c 128,-1,28
 85 310 85 310 85 525 c 256,0,1
271 525 m 256,29,30
 271 341 271 341 334.5 227 c 128,-1,31
 398 113 398 113 550 113 c 256,32,33
 658 113 658 113 729.5 186.5 c 128,-1,34
 801 260 801 260 801 410 c 2,35,-1
 801 640 l 2,36,37
 801 790 801 790 729.5 863.5 c 128,-1,38
 658 937 658 937 550 937 c 256,39,40
 398 937 398 937 334.5 823 c 128,-1,41
 271 709 271 709 271 525 c 256,29,30
EndSplineSet
EndChar

StartChar: cyrbreve
Encoding: 63188 63188 38
Width: 1170
Flags: MW
HStem: 1146 124<443.024 726.976>
VStem: 232 166<1371 1450> 772 162<1371 1450>
LayerCount: 2
Fore
SplineSet
232 1405 m 2,0,1
 229 1450 229 1450 277 1450 c 2,2,-1
 353 1450 l 2,3,4
 393 1450 393 1450 398 1405 c 2,5,-1
 402 1371 l 2,6,7
 410 1304 410 1304 460 1287 c 128,-1,8
 510 1270 510 1270 585 1270 c 256,9,10
 660 1270 660 1270 710 1287 c 128,-1,11
 760 1304 760 1304 768 1371 c 2,12,-1
 772 1405 l 2,13,14
 777 1450 777 1450 817 1450 c 2,15,-1
 893 1450 l 2,16,17
 941 1450 941 1450 938 1405 c 2,18,-1
 934 1344 l 2,19,20
 927 1244 927 1244 818.5 1195 c 128,-1,21
 710 1146 710 1146 585 1146 c 256,22,23
 460 1146 460 1146 351.5 1195 c 128,-1,24
 243 1244 243 1244 236 1344 c 2,25,-1
 232 1405 l 2,0,1
EndSplineSet
EndChar

StartChar: afii10076
Encoding: 1082 1082 39
Width: 989
Flags: W
HStem: 0 21G<164.5 295.5 782.5 929> 482 132<318 464.171> 1030 20G<164.5 295.5 766 908.5>
VStem: 142 176<4.5e-07 482 614 1050>
DStem2: 924 59 556 358 0.524097 -0.851658<-584.241 0.507719> 562 760 698 700 0.572138 0.820158<-175.15 384.384>
LayerCount: 2
Fore
SplineSet
187 0 m 2,0,1
 142 0 142 0 142 45 c 2,2,-1
 142 1005 l 2,3,4
 142 1050 142 1050 187 1050 c 2,5,-1
 273 1050 l 2,6,7
 318 1050 318 1050 318 1005 c 2,8,-1
 318 614 l 1,9,-1
 359 614 l 2,10,11
 429 614 429 614 482.5 667 c 128,-1,12
 536 720 536 720 562 760 c 2,13,-1
 731 1024 l 2,14,15
 748 1050 748 1050 784 1050 c 2,16,-1
 875 1050 l 2,17,18
 942 1050 942 1050 901 991 c 2,19,-1
 698 700 l 2,20,21
 678 671 678 671 627.5 618 c 128,-1,22
 577 565 577 565 533 554 c 1,23,-1
 533 552 l 1,24,25
 590 533 590 533 630 502 c 128,-1,26
 670 471 670 471 724 384 c 2,27,-1
 924 59 l 2,28,29
 960 0 960 0 898 0 c 2,30,-1
 800 0 l 2,31,32
 765 0 765 0 743 37 c 2,33,-1
 556 358 l 2,34,35
 523 415 523 415 469 448.5 c 128,-1,36
 415 482 415 482 360 482 c 2,37,-1
 318 482 l 1,38,-1
 318 45 l 2,39,40
 318 0 318 0 273 0 c 2,41,-1
 187 0 l 2,0,1
EndSplineSet
EndChar

StartChar: afii10072
Encoding: 1078 1078 40
Width: 1458
Flags: W
HStem: 0 21G<60 206 663.5 794.5 1252 1398> 482 132<515.42 641 817 942.58> 1030 20G<81 223.5 663.5 794.5 1234.5 1377>
VStem: 641 176<4.5e-07 482 614 1050>
DStem2: 65 59 245 37 0.516432 0.856328<4.38786 574.034> 423 760 88 991 0.56072 -0.828006<-380.696 178.454> 1393 59 1029 358 0.516432 -0.856328<-574.034 1.09116> 1035 760 1177 706 0.56072 0.828006<-178.454 380.696>
LayerCount: 2
Back
SplineSet
1367 0 m 2,0,1
 1269 0 l 2,71,-1
 1233 0 1233 0 1212 37 c 2,69,70
 1029 358 l 2,68,-1
 983 438 983 438 944 460 c 128,-1,67
 905 482 905 482 843 482 c 2,65,66
 817 482 l 1,64,-1
 817 45 l 2,63,-1
 817 0 817 0 772 0 c 2,61,62
 686 0 l 2,60,-1
 641 0 641 0 641 45 c 2,58,59
 641 482 l 1,57,-1
 615 482 l 2,56,-1
 553 482 553 482 514 460 c 128,-1,55
 475 438 475 438 429 358 c 2,53,54
 246 37 l 2,52,-1
 225 0 225 0 189 0 c 2,50,51
 91 0 l 2,49,-1
 29 0 29 0 65 59 c 2,47,48
 261 384 l 2,46,-1
 312 469 312 469 350.5 500.5 c 128,-1,45
 389 532 389 532 439 552 c 1,43,44
 439 554 l 1,42,-1
 395 566 395 566 357 608 c 128,-1,41
 319 650 319 650 281 706 c 2,39,40
 88 991 l 2,38,-1
 48 1050 48 1050 114 1050 c 2,36,37
 205 1050 l 2,35,-1
 242 1050 242 1050 258 1024 c 2,33,34
 423 760 l 2,32,-1
 447 722 447 722 505 668 c 128,-1,31
 563 614 563 614 616 614 c 2,29,30
 641 614 l 1,28,-1
 641 1005 l 2,27,-1
 641 1050 641 1050 686 1050 c 2,25,26
 772 1050 l 2,24,-1
 817 1050 817 1050 817 1005 c 2,22,23
 817 614 l 1,21,-1
 842 614 l 2,20,-1
 895 614 895 614 953 668 c 128,-1,19
 1011 722 1011 722 1035 760 c 2,17,18
 1200 1024 l 2,16,-1
 1216 1050 1216 1050 1253 1050 c 2,14,15
 1344 1050 l 2,13,-1
 1410 1050 1410 1050 1370 991 c 2,11,12
 1177 706 l 2,10,-1
 1139 650 1139 650 1101 608.5 c 128,-1,9
 1063 567 1063 567 1019 554 c 1,7,8
 1019 552 l 1,6,-1
 1069 531 1069 531 1106.5 501.5 c 128,-1,5
 1144 472 1144 472 1197 384 c 2,3,4
 1393 59 l 2,2,-1
 1429 0 1429 0 1367 0 c 2,0,1
EndSplineSet
Fore
SplineSet
91 0 m 2,0,1
 29 0 29 0 65 59 c 2,2,-1
 261 384 l 2,3,4
 313 469 313 469 351 500.5 c 128,-1,5
 389 532 389 532 439 552 c 1,6,-1
 439 554 l 1,7,8
 395 566 395 566 357 608 c 128,-1,9
 319 650 319 650 281 706 c 2,10,-1
 88 991 l 2,11,12
 48 1050 48 1050 114 1050 c 2,13,-1
 205 1050 l 2,14,15
 242 1050 242 1050 258 1024 c 2,16,-1
 423 760 l 2,17,18
 446 723 446 723 497 668.5 c 128,-1,19
 548 614 548 614 616 614 c 2,20,-1
 641 614 l 1,21,-1
 641 1005 l 2,22,23
 641 1050 641 1050 686 1050 c 2,24,-1
 772 1050 l 2,25,26
 817 1050 817 1050 817 1005 c 2,27,-1
 817 614 l 1,28,-1
 842 614 l 2,29,30
 910 614 910 614 961 668.5 c 128,-1,31
 1012 723 1012 723 1035 760 c 2,32,-1
 1200 1024 l 2,33,34
 1216 1050 1216 1050 1253 1050 c 2,35,-1
 1344 1050 l 2,36,37
 1410 1050 1410 1050 1370 991 c 2,38,-1
 1177 706 l 2,39,40
 1139 650 1139 650 1101 608 c 128,-1,41
 1063 566 1063 566 1019 554 c 1,42,-1
 1019 552 l 1,43,44
 1069 532 1069 532 1107 500.5 c 128,-1,45
 1145 469 1145 469 1197 384 c 2,46,-1
 1393 59 l 2,47,48
 1429 0 1429 0 1367 0 c 2,49,-1
 1270 0 l 2,50,51
 1234 -0 1234 -0 1213 37 c 2,52,-1
 1029 358 l 2,53,54
 996 415 996 415 947 448.5 c 128,-1,55
 898 482 898 482 843 482 c 2,56,-1
 817 482 l 1,57,-1
 817 45 l 2,58,59
 817 0 817 0 772 0 c 2,60,-1
 686 0 l 2,61,62
 641 0 641 0 641 45 c 2,63,-1
 641 482 l 1,64,-1
 615 482 l 2,65,66
 560 482 560 482 511 448.5 c 128,-1,67
 462 415 462 415 429 358 c 2,68,-1
 245 37 l 2,69,70
 224 0 224 0 188 0 c 2,71,-1
 91 0 l 2,0,1
EndSplineSet
EndChar

StartChar: afii10097
Encoding: 1103 1103 41
Width: 1084
Flags: W
HStem: 0 21G<86 246.5 788.5 919.5> 432 130<547.294 766> 919 131<381.566 766>
VStem: 148 186<625.391 872.295> 766 176<4.5e-07 432 562 919>
DStem2: 95 59 288 37 0.595454 0.80339<18.2302 529.079>
LayerCount: 2
Back
SplineSet
318 756 m 2,0,1
 318 713 318 713 328 683.5 c 128,-1,2
 338 654 338 654 352.5 637 c 128,-1,3
 367 620 367 620 395.5 610 c 128,-1,4
 424 600 424 600 447.5 596.5 c 128,-1,5
 471 593 471 593 514 590 c 2,6,-1
 766 590 l 1,7,-1
 766 909 l 1,8,-1
 498 909 l 2,9,10
 409 902 409 902 381 890 c 0,11,12
 321 864 321 864 318 768 c 2,13,-1
 318 756 l 2,0,1
180 0 m 2,14,-1
 90 0 l 2,15,16
 53 0 53 0 53 20 c 0,17,18
 53 30 53 30 64 44 c 0,19,20
 67 48 67 48 170 166 c 2,21,-1
 426 461 l 1,22,23
 425 461 425 461 405 465 c 128,-1,24
 385 469 385 469 374.5 471.5 c 128,-1,25
 364 474 364 474 340 481.5 c 128,-1,26
 316 489 316 489 301 496.5 c 128,-1,27
 286 504 286 504 263 517 c 128,-1,28
 240 530 240 530 224.5 545 c 128,-1,29
 209 560 209 560 191.5 582 c 128,-1,30
 174 604 174 604 164 629 c 128,-1,31
 154 654 154 654 147 687.5 c 128,-1,32
 140 721 140 721 140 763.5 c 128,-1,33
 140 806 140 806 152 847 c 128,-1,34
 164 888 164 888 190.5 925.5 c 128,-1,35
 217 963 217 963 265 989.5 c 128,-1,36
 313 1016 313 1016 379 1028 c 0,37,38
 436 1040 436 1040 557 1040 c 2,39,-1
 894 1040 l 2,40,41
 920 1040 920 1040 931 1029.5 c 128,-1,42
 942 1019 942 1019 942 990 c 2,43,-1
 942 43 l 2,44,45
 942 24 942 24 932 13.5 c 128,-1,46
 922 3 922 3 912.5 1.5 c 128,-1,47
 903 0 903 0 888 0 c 2,48,-1
 809 0 l 1,49,50
 782 4 782 4 774 16.5 c 128,-1,51
 766 29 766 29 766 50 c 2,52,-1
 766 453 l 1,53,-1
 598 453 l 1,54,55
 579 428 579 428 414 224 c 128,-1,56
 249 20 249 20 242 14 c 0,57,58
 227 4 227 4 217.5 2 c 128,-1,59
 208 0 208 0 180 0 c 2,14,-1
EndSplineSet
Fore
SplineSet
121 0 m 2,0,1
 51 0 51 0 95 59 c 2,2,-1
 284 314 l 2,3,4
 311 350 311 350 361.5 395.5 c 128,-1,5
 412 441 412 441 450 460 c 1,6,-1
 450 462 l 1,7,8
 276 498 276 498 212 568 c 128,-1,9
 148 638 148 638 148 761 c 256,10,11
 148 901 148 901 234 975.5 c 128,-1,12
 320 1050 320 1050 550 1050 c 2,13,-1
 897 1050 l 2,14,15
 942 1050 942 1050 942 1005 c 2,16,-1
 942 45 l 2,17,18
 942 0 942 0 897 0 c 2,19,-1
 811 0 l 2,20,21
 766 0 766 0 766 45 c 2,22,-1
 766 432 l 1,23,-1
 672 432 l 2,24,25
 604 432 604 432 561 398.5 c 128,-1,26
 518 365 518 365 464 288 c 2,27,-1
 288 37 l 2,28,29
 262 0 262 0 231 0 c 2,30,-1
 121 0 l 2,0,1
334 761 m 256,31,32
 334 640 334 640 411.5 601 c 128,-1,33
 489 562 489 562 595 562 c 2,34,-1
 766 562 l 1,35,-1
 766 919 l 1,36,-1
 596 919 l 2,37,38
 458 919 458 919 396 885.5 c 128,-1,39
 334 852 334 852 334 761 c 256,31,32
EndSplineSet
EndChar

StartChar: afii10096
Encoding: 1102 1102 42
Width: 1559
Flags: W
HStem: -17 130<828.188 1142.07> 0 21G<164.5 295.5> 482 132<318 497> 937 130<828.382 1142.07> 1030 20G<164.5 295.5>
VStem: 142 176<4.5e-07 482 614 1050> 497 185<278.353 482 614 770.625> 1288 186<277.934 772.066>
LayerCount: 2
Back
SplineSet
496 525 m 256,0,1
 496 760 496 760 620.5 913.5 c 128,-1,2
 745 1067 745 1067 985 1067 c 256,3,4
 1225 1067 1225 1067 1349.5 913.5 c 128,-1,5
 1474 760 1474 760 1474 525 c 256,6,7
 1474 290 1474 290 1349.5 136.5 c 128,-1,8
 1225 -17 1225 -17 985 -17 c 256,9,10
 745 -17 745 -17 620.5 136.5 c 128,-1,11
 496 290 496 290 496 525 c 256,0,1
682 525 m 256,12,13
 682 315 682 315 765 214 c 128,-1,14
 848 113 848 113 985 113 c 256,15,16
 1122 113 1122 113 1205 214 c 128,-1,17
 1288 315 1288 315 1288 525 c 256,18,19
 1288 735 1288 735 1205 836 c 128,-1,20
 1122 937 1122 937 985 937 c 256,21,22
 848 937 848 937 765 836 c 128,-1,23
 682 735 682 735 682 525 c 256,12,13
318 488 m 1,25,-1
 318 45 l 2,26,27
 318 0 318 0 273 0 c 2,28,-1
 187 0 l 2,0,1
 142 0 142 0 142 45 c 2,2,-1
 142 995 l 2,3,4
 142 1040 142 1040 187 1040 c 2,5,-1
 273 1040 l 2,6,7
 318 1040 318 1040 318 995 c 2,8,-1
 318 618 l 1,9,-1
 318 488 l 1,25,-1
EndSplineSet
Fore
SplineSet
187 0 m 2,0,1
 142 0 142 0 142 45 c 2,2,-1
 142 1005 l 2,3,4
 142 1050 142 1050 187 1050 c 2,5,-1
 273 1050 l 2,6,7
 318 1050 318 1050 318 1005 c 2,8,-1
 318 614 l 1,9,-1
 502 614 l 1,10,11
 510 774 510 774 627.5 920.5 c 128,-1,12
 745 1067 745 1067 985 1067 c 256,13,14
 1225 1067 1225 1067 1349.5 913.5 c 128,-1,15
 1474 760 1474 760 1474 525 c 256,16,17
 1474 290 1474 290 1349.5 136.5 c 128,-1,18
 1225 -17 1225 -17 985 -17 c 256,19,20
 745 -17 745 -17 624.5 132.5 c 128,-1,21
 504 282 504 282 497 482 c 1,22,-1
 318 482 l 1,23,-1
 318 45 l 2,24,25
 318 0 318 0 273 0 c 2,26,-1
 187 0 l 2,0,1
682 525 m 256,27,28
 682 315 682 315 765 214 c 128,-1,29
 848 113 848 113 985 113 c 256,30,31
 1122 113 1122 113 1205 214 c 128,-1,32
 1288 315 1288 315 1288 525 c 256,33,34
 1288 735 1288 735 1205 836 c 128,-1,35
 1122 937 1122 937 985 937 c 256,36,37
 848 937 848 937 765 836 c 128,-1,38
 682 735 682 735 682 525 c 256,27,28
EndSplineSet
EndChar

StartChar: afii10066
Encoding: 1073 1073 43
Width: 1148
Flags: MW
HStem: -17 130<419.339 731.07> 937 130<417.038 731.07> 1494 20G<928 986.5>
VStem: 89 182<296.264 773.4> 877 186<277.934 772.066>
LayerCount: 2
Back
SplineSet
85 525 m 260,0,1
 85 760 85 760 209.5 913.5 c 132,-1,2
 334 1067 334 1067 574 1067 c 260,3,4
 814 1067 814 1067 938.5 913.5 c 132,-1,5
 1063 760 1063 760 1063 525 c 260,6,7
 1063 290 1063 290 938.5 136.5 c 132,-1,8
 814 -17 814 -17 574 -17 c 260,9,10
 334 -17 334 -17 209.5 136.5 c 132,-1,11
 85 290 85 290 85 525 c 260,0,1
271 525 m 260,12,13
 271 315 271 315 354 214 c 132,-1,14
 437 113 437 113 574 113 c 260,15,16
 711 113 711 113 794 214 c 132,-1,17
 877 315 877 315 877 525 c 260,18,19
 877 735 877 735 794 836 c 132,-1,20
 711 937 711 937 574 937 c 260,21,22
 437 937 437 937 354 836 c 132,-1,23
 271 735 271 735 271 525 c 260,12,13
EndSplineSet
Fore
SplineSet
89 600 m 256,0,1
 89 714 89 714 108 870 c 128,-1,2
 127 1026 127 1026 170 1120.5 c 128,-1,3
 213 1215 213 1215 262.5 1272 c 128,-1,4
 312 1329 312 1329 397.5 1375.5 c 128,-1,5
 483 1422 483 1422 581 1430 c 256,6,7
 700 1440 700 1440 755 1441 c 128,-1,8
 810 1442 810 1442 855 1460 c 256,9,10
 894 1476 894 1476 902.5 1495 c 128,-1,11
 911 1514 911 1514 945 1514 c 10,12,-1
 969 1514 l 18,13,14
 1004 1514 1004 1514 1004 1479 c 256,15,16
 1004 1426 1004 1426 961 1370.5 c 128,-1,17
 918 1315 918 1315 818 1295 c 256,18,19
 774 1286 774 1286 687 1280 c 128,-1,20
 600 1274 600 1274 534.5 1267.5 c 128,-1,21
 469 1261 469 1261 419 1234 c 0,22,23
 221 1131 221 1131 200 822 c 1,24,-1
 208 818 l 17,25,26
 228 892 228 892 325 979.5 c 128,-1,27
 422 1067 422 1067 574 1067 c 256,28,29
 814 1067 814 1067 938.5 913.5 c 128,-1,30
 1063 760 1063 760 1063 525 c 256,31,32
 1063 290 1063 290 938.5 136.5 c 128,-1,33
 814 -17 814 -17 574 -17 c 256,34,35
 318 -17 318 -17 203.5 153.5 c 128,-1,36
 89 324 89 324 89 600 c 256,0,1
271 525 m 256,37,38
 271 315 271 315 354 214 c 128,-1,39
 437 113 437 113 574 113 c 256,40,41
 711 113 711 113 794 214 c 128,-1,42
 877 315 877 315 877 525 c 256,43,44
 877 735 877 735 794 836 c 128,-1,45
 711 937 711 937 574 937 c 256,46,47
 437 937 437 937 354 836 c 128,-1,48
 271 735 271 735 271 525 c 256,37,38
EndSplineSet
EndChar

StartChar: afii10095
Encoding: 1101 1101 45
Width: 1026
Flags: W
HStem: -17 130<271.937 629.115> 482 130<262 751> 937 130<279.148 621.369>
VStem: 755 186<252.314 482 612 791.798>
LayerCount: 2
Back
SplineSet
941 525 m 256,0,1
 941 760 941 760 824.5 913.5 c 128,-1,2
 708 1067 708 1067 468 1067 c 256,3,4
 306 1067 306 1067 220.5 1009.5 c 128,-1,5
 135 952 135 952 97 892 c 256,6,7
 76 859 76 859 106 839 c 282,8,-1
 169 798 l 273,9,10
 199 777 199 777 229 825 c 256,11,12
 258 871 258 871 310.5 904 c 128,-1,13
 363 937 363 937 468 937 c 256,14,15
 605 937 605 937 680 836 c 128,-1,16
 755 735 755 735 755 525 c 256,17,18
 755 315 755 315 680 214 c 128,-1,19
 605 113 605 113 468 113 c 256,20,21
 357 113 357 113 298 155.5 c 128,-1,22
 239 198 239 198 212 248 c 256,23,24
 186 295 186 295 153 275 c 266,25,-1
 86 235 l 282,26,27
 56 217 56 217 77 181 c 256,28,29
 102 138 102 138 190.5 60.5 c 128,-1,30
 279 -17 279 -17 468 -17 c 256,31,32
 708 -17 708 -17 824.5 136.5 c 128,-1,33
 941 290 941 290 941 525 c 256,0,1
EndSplineSet
Fore
SplineSet
78 148 m 256,0,1
 52 182 52 182 80 203 c 257,2,-1
 139 250 l 258,3,4
 173 277 173 277 201 231 c 257,5,6
 234 180 234 180 288 146.5 c 128,-1,7
 342 113 342 113 462 113 c 256,8,9
 604 113 604 113 677 198.5 c 128,-1,10
 750 284 750 284 755 482 c 1,11,-1
 307 482 l 2,12,13
 262 482 262 482 262 517 c 2,14,-1
 262 577 l 2,15,16
 262 612 262 612 307 612 c 2,17,-1
 751 612 l 1,18,19
 751 762 751 762 672.5 849.5 c 128,-1,20
 594 937 594 937 462 937 c 256,21,22
 360 937 360 937 301.5 905.5 c 128,-1,23
 243 874 243 874 216 839 c 256,24,25
 181 795 181 795 153 820 c 258,26,-1
 97 870 l 258,27,28
 70 894 70 894 106 934 c 256,29,30
 144 976 144 976 229.5 1021.5 c 128,-1,31
 315 1067 315 1067 462 1067 c 256,32,33
 707 1067 707 1067 824 926 c 128,-1,34
 941 785 941 785 941 525 c 256,35,36
 941 265 941 265 824 124 c 128,-1,37
 707 -17 707 -17 462 -17 c 256,38,39
 274 -17 274 -17 192 44.5 c 128,-1,40
 110 106 110 106 78 148 c 256,0,1
EndSplineSet
EndChar

StartChar: afii10073
Encoding: 1079 1079 46
Width: 982
Flags: W
HStem: -17 130<271.093 637.523> 483 130<296 604.842> 937 130<243.663 610.657>
VStem: 659 176<662.445 890.257> 696 186<173.296 426.776>
LayerCount: 2
Back
SplineSet
426 506 m 5,0,-1
 335 506 l 6,1,2
 297 506 297 506 297 543 c 6,3,-1
 297 612 l 5,4,5
 299 615 299 615 301.5 622 c 132,-1,6
 304 629 304 629 305.5 631 c 132,-1,7
 307 633 307 633 311.5 636 c 4,8,9
 319 641 319 641 342 641 c 6,10,-1
 422 641 l 6,11,12
 451 641 451 641 467 643 c 4,13,14
 505 643 505 643 539.5 650 c 132,-1,15
 574 657 574 657 608 673.5 c 132,-1,16
 642 690 642 690 662 721.5 c 132,-1,17
 682 753 682 753 682 797 c 4,18,19
 682 821 682 821 673 842.5 c 132,-1,20
 664 864 664 864 642 886.5 c 132,-1,21
 620 909 620 909 573 922.5 c 132,-1,22
 526 936 526 936 459 936 c 6,23,-1
 414 936 l 6,24,25
 354 936 354 936 307.5 925.5 c 132,-1,26
 261 915 261 915 235.5 899.5 c 132,-1,27
 210 884 210 884 192.5 868.5 c 132,-1,28
 175 853 175 853 161.5 842.5 c 132,-1,29
 148 832 148 832 136 832 c 4,30,31
 119 832 119 832 97.5 878 c 132,-1,32
 76 924 76 924 76 937 c 4,33,34
 76 955 76 955 98 971 c 4,35,36
 176.143 1028.34 176.143 1028.34 245.072 1048.67 c 132,-1,37
 314 1069 314 1069 424 1069 c 6,38,-1
 431 1069 l 6,39,40
 477 1069 477 1069 505.5 1068 c 132,-1,41
 534 1067 534 1067 584 1062 c 132,-1,42
 634 1057 634 1057 666.5 1047 c 132,-1,43
 699 1037 699 1037 739 1016 c 132,-1,44
 779 995 779 995 802 966.5 c 132,-1,45
 825 938 825 938 841.5 892.5 c 132,-1,46
 858 847 858 847 858 790 c 4,47,48
 858 762 858 762 851 735.5 c 132,-1,49
 844 709 844 709 832 688.5 c 132,-1,50
 820 668 820 668 806.5 651 c 132,-1,51
 793 634 793 634 777 620.5 c 132,-1,52
 761 607 761 607 750 598.5 c 132,-1,53
 739 590 739 590 727.5 583 c 132,-1,54
 716 576 716 576 715 575 c 5,55,56
 789 543 789 543 835.5 470.5 c 132,-1,57
 882 398 882 398 882 306 c 4,58,59
 882 238 882 238 855.5 176 c 132,-1,60
 829.03 114.07 829.03 114.07 780 74 c 4,61,62
 735.916 37.9723 735.916 37.9723 674 17.5 c 132,-1,63
 612 -2.99999 612 -2.99999 568 -8 c 132,-1,64
 524 -13 524 -13 461 -16 c 4,65,66
 381.857 -16 381.857 -16 341 -10.5 c 6,67,-1
 295.5 -4.5 l 6,68,69
 276 -2 276 -2 254.5 4.5 c 132,-1,70
 233 11 233 11 221.5 14 c 132,-1,71
 210 17 210 17 190.5 26 c 132,-1,72
 171 35 171 35 164.5 37.5 c 132,-1,73
 158 40 158 40 137.5 50.5 c 6,74,-1
 113 63 l 6,75,76
 112 64 112 64 95.5 74.5 c 132,-1,77
 79 85 79 85 71.5 94 c 132,-1,78
 64 103 64 103 64 115 c 4,79,80
 64 131 64 131 86.5 176 c 132,-1,81
 109 221 109 221 127 221 c 4,82,83
 136 221 136 221 159.5 205 c 6,84,-1
 212 169.5 l 6,85,86
 241 150 241 150 299.5 134 c 132,-1,87
 358 118 358 118 429 118 c 4,88,89
 514 118 514 118 572 136.5 c 132,-1,90
 630 155 630 155 657 186.5 c 132,-1,91
 684 218 684 218 694 247.5 c 132,-1,92
 704 277 704 277 704 310.5 c 132,-1,93
 704 344 704 344 694.5 373 c 132,-1,94
 685 402 685 402 661 431.5 c 132,-1,95
 637 461 637 461 586.5 480.5 c 132,-1,96
 536 500 536 500 465 504 c 6,97,-1
 426 506 l 5,0,-1
EndSplineSet
Fore
SplineSet
82 114 m 280,0,1
 58 148 58 148 79 169 c 2,2,-1
 134 223 l 2,3,4
 162 251 162 251 198 209 c 280,5,6
 204 202 204 202 270 157.5 c 128,-1,7
 336 113 336 113 436 113 c 256,8,9
 602 113 602 113 649 168.5 c 128,-1,10
 696 224 696 224 696 300 c 256,11,12
 696 398 696 398 636 440.5 c 128,-1,13
 576 483 576 483 465 483 c 2,14,-1
 341 483 l 2,15,16
 296 483 296 483 296 518 c 2,17,-1
 296 578 l 2,18,19
 296 613 296 613 341 613 c 2,20,-1
 432 613 l 2,21,22
 554 613 554 613 606.5 655.5 c 128,-1,23
 659 698 659 698 659 779 c 256,24,25
 659 868 659 868 596.5 902.5 c 128,-1,26
 534 937 534 937 434 937 c 256,27,28
 386 937 386 937 324 926.5 c 128,-1,29
 262 916 262 916 216 868 c 256,30,31
 173 823 173 823 148 848 c 2,32,-1
 95 901 l 2,33,34
 66 930 66 930 108 966 c 256,35,36
 162 1012 162 1012 237 1039.5 c 128,-1,37
 312 1067 312 1067 457 1067 c 256,38,39
 656 1067 656 1067 745.5 980.5 c 128,-1,40
 835 894 835 894 835 792 c 256,41,42
 835 686 835 686 795.5 636 c 128,-1,43
 756 586 756 586 697 559 c 1,44,-1
 697 556 l 1,45,46
 776 533 776 533 829 460.5 c 128,-1,47
 882 388 882 388 882 308 c 256,48,49
 882 134 882 134 773 58.5 c 128,-1,50
 664 -17 664 -17 450 -17 c 256,51,52
 282 -17 282 -17 186.5 42 c 128,-1,53
 91 101 91 101 82 114 c 280,0,1
EndSplineSet
EndChar

StartChar: afii10078
Encoding: 1084 1084 47
Width: 1422
Flags: W
HStem: 0 21G<164.5 295.5 656.5 765.5 1126.5 1257.5> 1030 20G<164.5 392.5 1029.5 1257.5>
VStem: 142 176<4.5e-07 860> 1104 176<4.5e-07 860>
DStem2: 422 1011 318 860 0.351509 -0.936185<104.807 734.385 738.022 888.479> 745 274 804 61 0.351509 0.936185<-108.876 674.796>
LayerCount: 2
Back
SplineSet
263 991 m 2,0,1
 246 1040 246 1040 290 1040 c 2,2,-1
 399 1040 l 2,3,4
 431 1040 431 1040 444 1001 c 2,5,-1
 656 351 l 2,6,7
 673 299 673 299 687 254 c 128,-1,8
 701 209 701 209 709 164 c 1,9,-1
 713 164 l 1,10,11
 721 209 721 209 735 254 c 128,-1,12
 749 299 749 299 766 351 c 2,13,-1
 978 1001 l 2,14,15
 991 1040 991 1040 1023 1040 c 2,16,-1
 1132 1040 l 2,17,18
 1176 1040 1176 1040 1159 991 c 2,19,-1
 831 61 l 2,20,21
 809 0 809 0 777 0 c 2,22,-1
 645 0 l 2,23,24
 613 0 613 0 591 61 c 2,25,-1
 263 991 l 2,0,1
EndSplineSet
Fore
SplineSet
187 0 m 2,0,1
 142 0 142 0 142 45 c 2,2,-1
 142 1005 l 2,3,4
 142 1050 142 1050 187 1050 c 2,5,-1
 377 1050 l 2,6,7
 408 1050 408 1050 422 1011 c 2,8,-1
 651 351 l 2,9,10
 658 330 658 330 677 274 c 128,-1,11
 696 218 696 218 709 168 c 1,12,-1
 713 168 l 1,13,14
 726 218 726 218 745 274 c 128,-1,15
 764 330 764 330 771 351 c 2,16,-1
 1000 1011 l 2,17,18
 1014 1050 1014 1050 1045 1050 c 2,19,-1
 1235 1050 l 2,20,21
 1280 1050 1280 1050 1280 1005 c 2,22,-1
 1280 45 l 2,23,24
 1280 0 1280 0 1235 0 c 2,25,-1
 1149 0 l 2,26,27
 1104 0 1104 0 1104 45 c 2,28,-1
 1104 800 l 2,29,30
 1104 830 1104 830 1106 860 c 9,31,-1
 1104 860 l 25,32,-1
 804 61 l 2,33,34
 781 0 781 0 750 0 c 2,35,-1
 672 0 l 2,36,37
 641 0 641 0 618 61 c 2,38,-1
 318 860 l 25,39,-1
 316 860 l 17,40,41
 318 830 318 830 318 800 c 2,42,-1
 318 45 l 2,43,44
 318 0 318 0 273 0 c 2,45,-1
 187 0 l 2,0,1
EndSplineSet
EndChar

StartChar: k
Encoding: 107 107 48
Width: 1003
Flags: W
HStem: 0 21G<164.5 295.5 797.5 944> 1030 20G<760.5 905> 1456 20G<164.5 295.5>
VStem: 142 176<4.5e-07 306 539 1476>
DStem2: 318 539 469 486 0.64293 0.765925<0 56.4884 227.547 704.133> 579 617 469 486 0.541062 -0.840983<50.6519 656.806>
LayerCount: 2
Back
SplineSet
893 1224 m 10,0,-1
 318 539 l 25,1,-1
893 991 m 10,2,-1
 318 306 l 25,3,-1
771 16 m 10,4,-1
 409 579 l 25,5,-1
EndSplineSet
Fore
SplineSet
187 0 m 2,0,1
 142 0 142 0 142 45 c 2,2,-1
 142 1431 l 2,3,4
 142 1476 142 1476 187 1476 c 2,5,-1
 273 1476 l 2,6,7
 318 1476 318 1476 318 1431 c 2,8,-1
 318 599 l 2,9,10
 318 569 318 569 316 539 c 1,11,-1
 318 539 l 1,12,-1
 723 1024 l 2,13,14
 745 1050 745 1050 776 1050 c 2,15,-1
 867 1050 l 2,16,17
 943 1050 943 1050 893 991 c 2,18,-1
 579 617 l 1,19,-1
 938 59 l 2,20,21
 976 0 976 0 912 0 c 2,22,-1
 814 0 l 2,23,24
 781 0 781 0 757 37 c 2,25,-1
 469 486 l 1,26,-1
 318 306 l 1,27,-1
 318 45 l 2,28,29
 318 0 318 0 273 0 c 2,30,-1
 187 0 l 2,0,1
EndSplineSet
EndChar

StartChar: f
Encoding: 102 102 49
Width: 652
Flags: W
HStem: 0 21G<219.5 350.5> 918 132<45 197 373 601> 1363 130<408.497 699.201>
VStem: 197 176<4.5e-07 918 1050 1321.73>
LayerCount: 2
Back
SplineSet
555 1475 m 256,0,1
 743 1475 743 1475 743 1430 c 2,2,-1
 743 1346 l 2,3,4
 743 1313 743 1313 722 1313 c 0,5,6
 715 1313 715 1313 661.5 1327.5 c 128,-1,7
 608 1342 608 1342 560.5 1342 c 256,8,9
 513 1342 513 1342 478.5 1334 c 0,10,11
 416.706 1319.67 416.706 1319.67 399.853 1289.84 c 128,-1,12
 383 1260 383 1260 383 1220 c 2,13,-1
 383 1040 l 1,14,-1
 567 1040 l 2,15,16
 597 1040 597 1040 605.5 1027.5 c 128,-1,17
 614 1015 614 1015 614 983 c 2,18,-1
 614 967 l 2,19,20
 614 932 614 932 599.5 923.5 c 128,-1,21
 585 915 585 915 563 915 c 2,22,-1
 385 915 l 1,23,-1
 385 63 l 6,24,25
 385 23 385 23 373.5 11.5 c 132,-1,26
 362 0 362 0 326 0 c 6,27,-1
 248 0 l 6,28,29
 223 3 223 3 216 16.5 c 132,-1,30
 209 30 209 30 209 57 c 6,31,-1
 209 915 l 1,32,-1
 108 915 l 2,33,34
 81 915 81 915 69 925 c 128,-1,35
 57 935 57 935 57 971 c 2,36,-1
 57 990 l 2,37,38
 57 1022 57 1022 70 1031 c 128,-1,39
 83 1040 83 1040 110 1040 c 2,40,-1
 209 1040 l 1,41,-1
 209 1139 l 1,42,-1
 208 1179 l 2,43,44
 208 1463 208 1463 555 1475 c 256,0,1
EndSplineSet
Fore
SplineSet
90 918 m 2,0,1
 45 918 45 918 45 953 c 2,2,-1
 45 1015 l 2,3,4
 45 1050 45 1050 90 1050 c 2,5,-1
 197 1050 l 1,6,-1
 197 1199 l 2,7,8
 197 1366 197 1366 287 1429.5 c 128,-1,9
 377 1493 377 1493 493 1493 c 256,10,11
 562 1493 562 1493 604.5 1486 c 128,-1,12
 647 1479 647 1479 705 1455 c 256,13,14
 727.021 1445.99 727.021 1445.99 718 1423 c 2,15,-1
 687 1344 l 2,16,17
 679.128 1323.94 679.128 1323.94 652 1336 c 256,18,19
 630 1346 630 1346 598 1354.5 c 128,-1,20
 566 1363 566 1363 529 1363 c 256,21,22
 446 1363 446 1363 409.5 1323 c 128,-1,23
 373 1283 373 1283 373 1170 c 2,24,-1
 373 1050 l 1,25,-1
 556 1050 l 2,26,27
 601 1050 601 1050 601 1015 c 2,28,-1
 601 953 l 2,29,30
 601 918 601 918 556 918 c 2,31,-1
 373 918 l 1,32,-1
 373 45 l 2,33,34
 373 0 373 0 328 0 c 2,35,-1
 242 0 l 2,36,37
 197 0 197 0 197 45 c 2,38,-1
 197 918 l 1,39,-1
 90 918 l 2,0,1
EndSplineSet
EndChar

StartChar: t
Encoding: 116 116 50
Width: 757
Flags: W
HStem: -17 130<412.767 625.028> 918 132<46 209 385 643>
VStem: 209 176<145.502 918 1050 1241.5>
LayerCount: 2
Back
SplineSet
293 1339 m 1,0,-1
 326 1340 l 1,1,-1
 342 1339 l 2,2,3
 360 1339 360 1339 369.5 1330.5 c 128,-1,4
 379 1322 379 1322 381 1312.5 c 128,-1,5
 383 1303 383 1303 383 1288 c 2,6,-1
 383 1042 l 1,7,-1
 616 1042 l 2,8,9
 641 1042 641 1042 653 1038 c 2,10,11
 656.5 1038 656.5 1038 661.75 1034.5 c 128,-1,12
 667 1031 667 1031 670.5 1026 c 128,-1,13
 674 1021 674 1021 677 1009.5 c 128,-1,14
 680 998 680 998 680 983 c 2,15,-1
 680 967 l 2,16,17
 680 915 680 915 631 915 c 2,18,-1
 383 915 l 1,19,-1
 383 287 l 2,20,21
 383 264.25 383 264.25 386.5 233.625 c 128,-1,22
 390 203 390 203 392.5 195 c 128,-1,23
 395 187 395 187 400 172.5 c 128,-1,24
 405 158 405 158 411.5 151 c 128,-1,25
 418 144 418 144 427.5 135.5 c 0,26,27
 444.824 120 444.824 120 477 120 c 0,28,29
 528 120 528 120 570 136 c 128,-1,30
 612 152 612 152 637 168 c 128,-1,31
 662 184 662 184 672 184 c 0,32,33
 685 184 685 184 695 159 c 128,-1,34
 705 134 705 134 709 109 c 2,35,-1
 713 84 l 1,36,37
 708 50 708 50 598.5 17 c 128,-1,38
 489 -16 489 -16 394 -16 c 0,39,40
 357 -14 357 -14 327.5 -2.5 c 128,-1,41
 298 9 298 9 279 24.5 c 128,-1,42
 260 40 260 40 246.5 65.5 c 128,-1,43
 233 91 233 91 226.5 113 c 128,-1,44
 220 135 220 135 216 167 c 128,-1,45
 212 199 212 199 211.5 219 c 128,-1,46
 211 239 211 239 211 270 c 2,47,-1
 211 915 l 1,48,-1
 93 915 l 2,49,50
 59 915 59 915 49 927 c 128,-1,51
 39 939 39 939 39 971 c 2,52,-1
 39 990 l 2,53,54
 39 1023 39 1023 52 1033 c 128,-1,55
 65 1043 65 1043 93 1043 c 2,56,-1
 111 1042 l 1,57,-1
 213 1042 l 1,58,-1
 213 1284 l 2,59,60
 213 1313 213 1313 222 1326.5 c 128,-1,61
 231 1340 231 1340 264 1340 c 2,62,-1
 293 1339 l 1,0,-1
EndSplineSet
Fore
SplineSet
91 918 m 2,0,1
 46 918 46 918 46 953 c 2,2,-1
 46 1015 l 2,3,4
 46 1050 46 1050 91 1050 c 2,5,-1
 209 1050 l 1,6,-1
 209 1140 l 2,7,8
 209 1159.86 209 1159.86 219 1178 c 2,9,-1
 289 1305 l 2,10,11
 308.291 1340 308.291 1340 320 1340 c 2,12,-1
 355 1340 l 2,13,14
 385 1340 385 1340 385 1305 c 2,15,-1
 385 1050 l 1,16,-1
 598 1050 l 2,17,18
 643 1050 643 1050 643 1015 c 2,19,-1
 643 953 l 2,20,21
 643 918 643 918 598 918 c 2,22,-1
 385 918 l 1,23,-1
 385 281 l 2,24,25
 385 176 385 176 416.5 144.5 c 128,-1,26
 448 113 448 113 492 113 c 256,27,28
 526 113 526 113 573.5 133 c 128,-1,29
 621 153 621 153 639 167 c 256,30,31
 657.107 181.083 657.107 181.083 667 158 c 2,32,-1
 700 81 l 2,33,34
 708.455 61.2726 708.455 61.2726 688 49 c 256,35,36
 649 26 649 26 574 4.5 c 144,-1,37
 499 -17 499 -17 424 -17 c 256,38,39
 320 -17 320 -17 264.5 58 c 128,-1,40
 209 133 209 133 209 270 c 2,41,-1
 209 918 l 1,42,-1
 91 918 l 2,0,1
EndSplineSet
EndChar

StartChar: l
Encoding: 108 108 51
Width: 460
Flags: W
HStem: 0 21G<164.5 295.5> 1473 20G<247 303>
VStem: 142 176<0 1394.5>
LayerCount: 2
Fore
SplineSet
187 0 m 2,0,1
 142 0 142 0 142 45 c 2,2,-1
 142 1293 l 2,3,4
 142 1313 142 1313 152 1331 c 2,5,-1
 222 1458 l 2,6,7
 241 1493 241 1493 253 1493 c 2,8,-1
 288 1493 l 2,9,10
 318 1493 318 1493 318 1458 c 2,11,-1
 318 45 l 2,12,13
 318 0 318 0 273 0 c 2,14,-1
 187 0 l 2,0,1
EndSplineSet
EndChar

StartChar: I
Encoding: 73 73 52
Width: 532
Flags: W
HStem: 0 21G<195 337> 1414 20G<195 337>
VStem: 170 192<0.214844 1433.79>
LayerCount: 2
Fore
SplineSet
220 0 m 6,0,1
 170 0 170 0 170 55 c 2,2,-1
 170 1379 l 2,3,4
 170 1434 170 1434 220 1434 c 2,5,-1
 312 1434 l 2,6,7
 362 1434 362 1434 362 1379 c 2,8,-1
 362 55 l 2,9,10
 362 0 362 0 312 0 c 2,11,-1
 220 0 l 6,0,1
EndSplineSet
EndChar

StartChar: H
Encoding: 72 72 53
Width: 1422
Flags: W
HStem: 0 21G<195 337 1085 1227> 664 164<362 1060> 1414 20G<195 337 1085 1227>
VStem: 170 192<0.214844 664 828 1433.79> 1060 192<0.214844 664 828 1433.79>
LayerCount: 2
Back
SplineSet
1179 664 m 1,0,-1
 277 664 l 1,1,-1
 277 828 l 1,2,-1
 1179 828 l 1,3,-1
 1179 664 l 1,0,-1
1130 0 m 2,4,5
 1080 0 1080 0 1080 55 c 2,6,-1
 1080 1379 l 2,7,8
 1080 1434 1080 1434 1130 1434 c 2,9,-1
 1222 1434 l 2,10,11
 1272 1434 1272 1434 1272 1379 c 2,12,-1
 1272 55 l 2,13,14
 1272 0 1272 0 1222 0 c 2,15,-1
 1130 0 l 2,4,5
220 0 m 2,16,17
 170 0 170 0 170 55 c 2,18,-1
 170 1379 l 2,19,20
 170 1434 170 1434 220 1434 c 2,21,-1
 312 1434 l 2,22,23
 362 1434 362 1434 362 1379 c 2,24,-1
 362 55 l 2,25,26
 362 0 362 0 312 0 c 2,27,-1
 220 0 l 2,16,17
1128 1435 m 2,0,-1
 1155 1434 l 1,1,-1
 1214 1434 l 2,2,3
 1229 1434 1229 1434 1245.5 1431 c 0,4,5
 1251 1430 1251 1430 1255 1426.5 c 128,-1,6
 1259 1423 1259 1423 1261.5 1422 c 128,-1,7
 1264 1421 1264 1421 1266 1415 c 128,-1,8
 1268 1409 1268 1409 1268.5 1406.5 c 128,-1,9
 1269 1404 1269 1404 1270 1395.5 c 128,-1,10
 1271 1387 1271 1387 1272 1384 c 1,11,-1
 1272 70 l 2,12,13
 1272 25 1272 25 1260.5 12.5 c 128,-1,14
 1249 0 1249 0 1208 0 c 2,15,-1
 1135 0 l 2,16,17
 1100 0 1100 0 1089.5 11.5 c 128,-1,18
 1079 23 1079 23 1079 61 c 2,19,-1
 1079 664 l 1,20,-1
 367 664 l 1,21,-1
 367 61 l 2,22,23
 367 26 367 26 357.5 13 c 128,-1,24
 348 9.53674e-07 348 9.53674e-07 313 0 c 2,25,-1
 240 0 l 2,26,27
 218 0 218 0 206.5 2 c 128,-1,28
 195 4 195 4 185.5 15.5 c 128,-1,29
 176 27 176 27 176 49 c 2,30,-1
 176 1384 l 2,31,32
 176 1416 176 1416 189.5 1425 c 128,-1,33
 203 1434 203 1434 233 1434 c 2,34,-1
 293 1434 l 1,35,-1
 319 1435 l 2,36,37
 349 1435 349 1435 358 1421 c 128,-1,38
 367 1407 367 1407 367 1376 c 2,39,-1
 367 827 l 1,40,-1
 1079 827 l 1,41,-1
 1079 1376 l 2,42,43
 1079 1396 1079 1396 1081.5 1407 c 128,-1,44
 1084 1418 1084 1418 1095 1426.5 c 128,-1,45
 1106 1435 1106 1435 1128 1435 c 2,0,-1
EndSplineSet
Fore
SplineSet
220 0 m 2,0,1
 170 0 170 0 170 55 c 2,2,-1
 170 1379 l 2,3,4
 170 1434 170 1434 220 1434 c 2,5,-1
 312 1434 l 2,6,7
 362 1434 362 1434 362 1379 c 2,8,-1
 362 828 l 1,9,-1
 1060 828 l 1,10,-1
 1060 1379 l 2,11,12
 1060 1434 1060 1434 1110 1434 c 2,13,-1
 1202 1434 l 2,14,15
 1252 1434 1252 1434 1252 1379 c 2,16,-1
 1252 55 l 2,17,18
 1252 0 1252 0 1202 0 c 2,19,-1
 1110 0 l 2,20,21
 1060 0 1060 0 1060 55 c 2,22,-1
 1060 664 l 1,23,-1
 362 664 l 1,24,-1
 362 55 l 2,25,26
 362 0 362 0 312 0 c 2,27,-1
 220 0 l 2,0,1
EndSplineSet
EndChar

StartChar: afii10033
Encoding: 1055 1055 54
Width: 1416
Flags: W
HStem: 0 21G<195 337 1079 1221> 1270 164<362 1054>
VStem: 170 192<0.214844 1270> 1054 192<0.214844 1270>
LayerCount: 2
Fore
SplineSet
220 0 m 2,0,1
 170 0 170 0 170 55 c 2,2,-1
 170 1379 l 2,3,4
 170 1434 170 1434 220 1434 c 2,5,-1
 1196 1434 l 2,6,7
 1246 1434 1246 1434 1246 1379 c 2,8,-1
 1246 55 l 2,9,10
 1246 0 1246 0 1196 0 c 2,11,-1
 1104 0 l 2,12,13
 1054 0 1054 0 1054 55 c 2,14,-1
 1054 1270 l 1,15,-1
 362 1270 l 1,16,-1
 362 55 l 2,17,18
 362 0 362 0 312 0 c 2,19,-1
 220 0 l 2,0,1
EndSplineSet
EndChar

StartChar: E
Encoding: 69 69 55
Width: 1270
Flags: W
HStem: 0 164<362 1180> 662 164<362 1090> 1270 164<362 1150>
VStem: 170 192<164 662 826 1270>
LayerCount: 2
Fore
SplineSet
220 0 m 2,0,1
 170 0 170 0 170 55 c 2,2,-1
 170 1379 l 2,3,4
 170 1434 170 1434 220 1434 c 2,5,-1
 1095 1434 l 2,6,7
 1150 1434 1150 1434 1150 1389 c 2,8,-1
 1150 1315 l 2,9,10
 1150 1270 1150 1270 1095 1270 c 2,11,-1
 362 1270 l 9,12,-1
 362 826 l 1,13,-1
 1035 826 l 2,14,15
 1090 826 1090 826 1090 781 c 2,16,-1
 1090 707 l 2,17,18
 1090 662 1090 662 1035 662 c 2,19,-1
 362 662 l 1,20,-1
 362 164 l 17,21,-1
 1125 164 l 2,22,23
 1180 164 1180 164 1180 119 c 2,24,-1
 1180 45 l 2,25,26
 1180 0 1180 0 1125 0 c 2,27,-1
 220 0 l 2,0,1
EndSplineSet
EndChar

StartChar: O
Encoding: 79 79 60
Width: 1524
Flags: W
HStem: -30 156<547.141 976.859> 1308 156<547.141 976.859>
VStem: 92 205<418.898 1015.1> 1227 205<418.898 1015.1>
LayerCount: 2
Fore
SplineSet
92 717 m 256,0,1
 92 1067 92 1067 264.5 1265.5 c 128,-1,2
 437 1464 437 1464 762 1464 c 256,3,4
 1087 1464 1087 1464 1259.5 1265.5 c 128,-1,5
 1432 1067 1432 1067 1432 717 c 256,6,7
 1432 367 1432 367 1259.5 168.5 c 128,-1,8
 1087 -30 1087 -30 762 -30 c 256,9,10
 437 -30 437 -30 264.5 168.5 c 128,-1,11
 92 367 92 367 92 717 c 256,0,1
297 717 m 256,12,13
 297 437 297 437 412 281.5 c 128,-1,14
 527 126 527 126 762 126 c 256,15,16
 997 126 997 126 1112 281.5 c 128,-1,17
 1227 437 1227 437 1227 717 c 256,18,19
 1227 997 1227 997 1112 1152.5 c 128,-1,20
 997 1308 997 1308 762 1308 c 256,21,22
 527 1308 527 1308 412 1152.5 c 128,-1,23
 297 997 297 997 297 717 c 256,12,13
EndSplineSet
EndChar

StartChar: s
Encoding: 115 115 61
Width: 944
Flags: W
LayerCount: 2
Fore
SplineSet
83 98 m 256,0,1
 52 127 52 127 70 152 c 2,2,-1
 115 215 l 2,3,4
 137 245 137 245 180 212 c 256,5,6
 239 167 239 167 311.5 140 c 128,-1,7
 384 113 384 113 477 113 c 256,8,9
 532 113 532 113 575 126.5 c 128,-1,10
 618 140 618 140 650.5 177 c 128,-1,11
 683 214 683 214 683 276 c 256,12,13
 683 312 683 312 667.5 344 c 128,-1,14
 652 376 652 376 619.5 395.5 c 128,-1,15
 587 415 587 415 556 426 c 256,16,17
 505 445 505 445 454.5 457.5 c 128,-1,18
 404 470 404 470 322 496 c 256,19,20
 267 513 267 513 218 544.5 c 128,-1,21
 169 576 169 576 132.5 630 c 128,-1,22
 96 684 96 684 96 779 c 256,23,24
 96 876 96 876 155 946 c 128,-1,25
 214 1016 214 1016 303 1041.5 c 128,-1,26
 392 1067 392 1067 476 1067 c 256,27,28
 600 1067 600 1067 675.5 1038.5 c 152,-1,29
 751 1010 751 1010 806 971 c 256,30,31
 838 948 838 948 815 918 c 26,32,-1
 770 858 l 18,33,34
 749 829 749 829 705 860 c 256,35,36
 668 886 668 886 600 909 c 128,-1,37
 532 932 532 932 481 932 c 256,38,39
 418 932 418 932 373 918 c 128,-1,40
 328 904 328 904 300 870 c 128,-1,41
 272 836 272 836 272 790 c 256,42,43
 272 755 272 755 283 727.5 c 128,-1,44
 294 700 294 700 324 677 c 128,-1,45
 354 654 354 654 408 640 c 256,46,47
 492 618 492 618 561.5 600 c 128,-1,48
 631 582 631 582 687 556 c 256,49,50
 760 522 760 522 799.5 481 c 128,-1,51
 839 440 839 440 854 392.5 c 128,-1,52
 869 345 869 345 869 287 c 256,53,54
 869 180 869 180 805.5 106 c 128,-1,55
 742 32 742 32 664 7.5 c 128,-1,56
 586 -17 586 -17 476 -17 c 256,57,58
 327 -17 327 -17 220.5 25.5 c 152,-1,59
 114 68 114 68 83 98 c 256,0,1
EndSplineSet
EndChar

StartChar: afii10040
Encoding: 1062 1062 62
Width: 1486
Flags: W
HStem: -370 21G<1276 1402> 0 164<362 1048 1240 1256> 1414 20G<195 337 1073 1215>
VStem: 170 192<164 1433.79> 1048 192<164 1433.79> 1256 166<-370 0>
LayerCount: 2
Back
SplineSet
1362 -397 m 5,0,-1
 1308 -397 l 6,1,2
 1276 -397 1276 -397 1265.5 -387.5 c 132,-1,3
 1255 -378 1255 -378 1255 -350 c 6,4,-1
 1255 0 l 5,5,-1
 221 0 l 1,6,7
 193 4 193 4 184 13 c 0,8,9
 174 25 174 25 174 47 c 2,10,-1
 174 1380 l 2,11,12
 174 1396 174 1396 176 1405.5 c 128,-1,13
 178 1415 178 1415 189.5 1425.5 c 128,-1,14
 201 1436 201 1436 223 1436 c 2,15,-1
 299 1436 l 2,16,17
 324 1436 324 1436 337.5 1433 c 128,-1,18
 351 1430 351 1430 357 1419.5 c 128,-1,19
 363 1409 363 1409 364 1400 c 128,-1,20
 365 1391 365 1391 365 1368 c 2,21,-1
 365 166 l 1,22,-1
 1069 166 l 1,23,-1
 1069 1372 l 2,24,25
 1069 1397 1069 1397 1075 1412 c 128,-1,26
 1081 1427 1081 1427 1085.5 1429.5 c 128,-1,27
 1090 1432 1090 1432 1094 1432 c 2,28,29
 1110 1436 1110 1436 1118 1436 c 2,30,-1
 1194 1436 l 2,31,32
 1219 1436 1219 1436 1232.5 1433 c 128,-1,33
 1246 1430 1246 1430 1252 1419.5 c 128,-1,34
 1258 1409 1258 1409 1259 1400 c 128,-1,35
 1260 1391 1260 1391 1260 1368 c 2,36,-1
 1260 166 l 5,37,-1
 1346 166 l 6,38,39
 1361 166 1361 166 1370 164 c 132,-1,40
 1379 162 1379 162 1387 152.5 c 132,-1,41
 1395 143 1395 143 1395 125 c 6,42,-1
 1395 -356 l 6,43,44
 1395 -376 1395 -376 1387.5 -385 c 132,-1,45
 1380 -394 1380 -394 1362 -397 c 5,0,-1
EndSplineSet
Fore
SplineSet
220 0 m 2,0,1
 170 0 170 0 170 55 c 2,2,-1
 170 1379 l 2,3,4
 170 1434 170 1434 220 1434 c 2,5,-1
 312 1434 l 2,6,7
 362 1434 362 1434 362 1379 c 2,8,-1
 362 164 l 1,9,-1
 1048 164 l 1,10,-1
 1048 1379 l 2,11,12
 1048 1434 1048 1434 1098 1434 c 2,13,-1
 1190 1434 l 2,14,15
 1240 1434 1240 1434 1240 1379 c 2,16,-1
 1240 164 l 1,17,-1
 1372 164 l 2,18,19
 1422 164 1422 164 1422 109 c 2,20,-1
 1422 -320 l 2,21,22
 1422 -370 1422 -370 1382 -370 c 2,23,-1
 1296 -370 l 2,24,25
 1256 -370 1256 -370 1256 -320 c 2,26,-1
 1256 0 l 1,27,-1
 220 0 l 2,0,1
EndSplineSet
EndChar

StartChar: afii10042
Encoding: 1064 1064 63
Width: 2040
Flags: W
HStem: 0 164<362 924 1116 1678> 1414 20G<195 337 949 1091 1703 1845>
VStem: 170 192<164 1433.79> 924 192<164 1433.79> 1678 192<164 1433.79>
CounterMasks: 1 38
LayerCount: 2
Fore
SplineSet
220 0 m 2,0,1
 170 0 170 0 170 55 c 2,2,-1
 170 1379 l 2,3,4
 170 1434 170 1434 220 1434 c 2,5,-1
 312 1434 l 2,6,7
 362 1434 362 1434 362 1379 c 2,8,-1
 362 164 l 1,9,-1
 924 164 l 1,10,-1
 924 1379 l 2,11,12
 924 1434 924 1434 974 1434 c 2,13,-1
 1066 1434 l 2,14,15
 1116 1434 1116 1434 1116 1379 c 2,16,-1
 1116 164 l 1,17,-1
 1678 164 l 1,18,-1
 1678 1379 l 2,19,20
 1678 1434 1678 1434 1728 1434 c 2,21,-1
 1820 1434 l 2,22,23
 1870 1434 1870 1434 1870 1379 c 2,24,-1
 1870 55 l 2,25,26
 1870 0 1870 0 1820 0 c 2,27,-1
 220 0 l 2,0,1
EndSplineSet
EndChar

StartChar: afii10041
Encoding: 1063 1063 64
Width: 1286
Flags: W
HStem: 0 21G<949 1091> 566 154<374.28 809.617> 1414 20G<145 287 949 1091>
VStem: 120 192<782.014 1433.79> 924 192<0.214844 653 770.676 1433.79>
LayerCount: 2
Fore
SplineSet
120 912 m 2,0,-1
 120 1379 l 2,1,2
 120 1434 120 1434 170 1434 c 2,3,-1
 262 1434 l 2,4,5
 312 1434 312 1434 312 1379 c 2,6,-1
 312 960 l 2,7,8
 312 820 312 820 367 770 c 128,-1,9
 422 720 422 720 518 720 c 256,10,11
 596 720 596 720 704 730 c 128,-1,12
 812 740 812 740 924 787 c 1,13,-1
 924 1379 l 2,14,15
 924 1434 924 1434 974 1434 c 2,16,-1
 1066 1434 l 2,17,18
 1116 1434 1116 1434 1116 1379 c 2,19,-1
 1116 55 l 2,20,21
 1116 0 1116 0 1066 0 c 2,22,-1
 974 0 l 2,23,24
 924 0 924 0 924 55 c 2,25,-1
 924 573 l 2,26,27
 924 613 924 613 926 653 c 1,28,-1
 922 653 l 1,29,30
 828 612 828 612 732 589 c 128,-1,31
 636 566 636 566 493 566 c 256,32,33
 304 566 304 566 212 668.5 c 128,-1,34
 120 771 120 771 120 912 c 2,0,-1
EndSplineSet
EndChar

StartChar: uni0237
Encoding: 567 567 65
Width: 466
Flags: W
HStem: -417 130<-88.688 114.178> 1030 20G<170.5 301.5>
VStem: 148 176<-227.158 1050>
LayerCount: 2
Fore
SplineSet
-84 -397 m 256,0,1
 -106 -387 -106 -387 -102 -365 c 258,2,-1
 -85 -284 l 258,3,4
 -80 -260 -80 -260 -60 -269 c 256,5,6
 -21 -287 -21 -287 36 -287 c 256,7,8
 95 -287 95 -287 121.5 -229 c 128,-1,9
 148 -171 148 -171 148 6 c 2,10,-1
 148 1005 l 2,11,12
 148 1050 148 1050 193 1050 c 2,13,-1
 279 1050 l 2,14,15
 324 1050 324 1050 324 1005 c 2,16,-1
 324 -93 l 2,17,18
 324 -287 324 -287 250.5 -352 c 128,-1,19
 177 -417 177 -417 68 -417 c 256,20,21
 -38 -417 -38 -417 -84 -397 c 256,0,1
EndSplineSet
EndChar

StartChar: four
Encoding: 52 52 67
Width: 1110
Flags: W
HStem: 0 21G<676.5 807.5> 354 164<243 654 830 1046> 1420 20G<676.5 807>
VStem: 654 176<4.5e-07 354 518 1153>
DStem2: 88 556 243 518 0.543456 0.839437<52.3371 808.74>
LayerCount: 2
Back
SplineSet
260 556.5 m 2,5,-1
 809 1404 l 2,6,7
80 556.5 m 2,5,-1
 629 1404 l 2,6,7
EndSplineSet
Fore
SplineSet
109 354 m 2,0,1
 64 354 64 354 64 399 c 2,2,-1
 64 487 l 2,3,4
 64 519 64 519 88 556 c 2,5,-1
 637 1404 l 2,6,7
 660 1440 660 1440 693 1440 c 2,8,-1
 784 1440 l 2,9,10
 830 1440 830 1440 830 1395 c 2,11,-1
 830 518 l 1,12,-1
 1001 518 l 2,13,14
 1046 518 1046 518 1046 473 c 2,15,-1
 1046 399 l 2,16,17
 1046 354 1046 354 1002 354 c 2,18,-1
 830 354 l 1,19,-1
 830 45 l 2,20,21
 830 0 830 0 785 0 c 2,22,-1
 699 0 l 2,23,24
 654 0 654 0 654 45 c 2,25,-1
 654 354 l 1,26,-1
 109 354 l 2,0,1
243 518 m 1,27,-1
 654 518 l 1,28,-1
 654 1093 l 2,29,30
 654 1123 654 1123 656 1153 c 1,31,-1
 654 1153 l 1,32,-1
 243 518 l 1,27,-1
EndSplineSet
EndChar

StartChar: zero
Encoding: 48 48 68
Width: 1110
Flags: W
HStem: -30 144<402.123 707.877> 1308 144<402.123 707.877>
VStem: 93 186<309.528 1112.47> 831 186<309.528 1112.47>
LayerCount: 2
Fore
SplineSet
93 711 m 256,0,1
 93 1061 93 1061 189 1256.5 c 128,-1,2
 285 1452 285 1452 555 1452 c 256,3,4
 825 1452 825 1452 921 1256.5 c 128,-1,5
 1017 1061 1017 1061 1017 711 c 256,6,7
 1017 361 1017 361 921 165.5 c 128,-1,8
 825 -30 825 -30 555 -30 c 256,9,10
 285 -30 285 -30 189 165.5 c 128,-1,11
 93 361 93 361 93 711 c 256,0,1
279 711 m 256,12,13
 279 431 279 431 327 272.5 c 128,-1,14
 375 114 375 114 555 114 c 256,15,16
 735 114 735 114 783 272.5 c 128,-1,17
 831 431 831 431 831 711 c 256,18,19
 831 991 831 991 783 1149.5 c 128,-1,20
 735 1308 735 1308 555 1308 c 256,21,22
 375 1308 375 1308 327 1149.5 c 128,-1,23
 279 991 279 991 279 711 c 256,12,13
EndSplineSet
EndChar

StartChar: seven
Encoding: 55 55 69
Width: 1100
Flags: W
HStem: -6 21G<375.5 511.5> 1258 164<88 831>
VStem: 353 181<-6 476.756>
LayerCount: 2
Back
SplineSet
133 1258 m 2,0,1
 88 1258 88 1258 88 1303 c 2,2,-1
 88 1377 l 2,3,4
 88 1422 88 1422 133 1422 c 2,5,-1
 967 1422 l 2,6,7
 1012 1422 1012 1422 1012 1377 c 2,8,-1
 1012 1308 l 2,9,10
 1012 1274 1012 1274 976 1236 c 0,11,12
 781 1029 781 1029 657.5 762 c 128,-1,13
 534 495 534 495 534 153 c 2,14,-1
 534 45 l 2,15,16
 534 0 534 0 489 0 c 2,17,-1
 398 0 l 2,18,19
 353 0 353 0 353 45 c 2,20,-1
 353 108 l 2,21,22
 353 537 353 537 514 826.5 c 128,-1,23
 675 1116 675 1116 815 1258 c 1,24,-1
 815 1260 l 1,25,26
 785 1258 785 1258 755 1258 c 2,27,-1
 133 1258 l 2,0,1
EndSplineSet
Fore
SplineSet
133 1258 m 2,0,1
 88 1258 88 1258 88 1303 c 2,2,-1
 88 1377 l 2,3,4
 88 1422 88 1422 133 1422 c 2,5,-1
 967 1422 l 2,6,7
 1012 1422 1012 1422 1012 1377 c 2,8,-1
 1012 1308 l 2,9,10
 1012 1276 1012 1276 976 1236 c 0,11,12
 776 1009 776 1009 655 733.5 c 128,-1,13
 534 458 534 458 534 133 c 2,14,-1
 534 39 l 2,15,16
 534 -6 534 -6 489 -6 c 2,17,-1
 398 -6 l 2,18,19
 353 -6 353 -6 353 39 c 2,20,-1
 353 98 l 2,21,22
 353 459 353 459 490 733.5 c 128,-1,23
 627 1008 627 1008 831 1258 c 1,24,-1
 831 1260 l 1,25,26
 801 1258 801 1258 771 1258 c 2,27,-1
 133 1258 l 2,0,1
EndSplineSet
EndChar

StartChar: afii10046
Encoding: 1068 1068 70
Width: 1328
Flags: W
HStem: 0 164<362 904.393> 664 164<362 904.393> 1414 20G<195 337>
VStem: 170 192<164 664 828 1433.79> 1033 205<271.344 556.656>
LayerCount: 2
Back
SplineSet
367 164 m 5,0,-1
 655 164 l 6,1,2
 723 164 723 164 765 166 c 132,-1,3
 807 168 807 168 865.5 180.5 c 132,-1,4
 924 193 924 193 969 217 c 4,5,6
 1039 255 1039 255 1066 310.5 c 132,-1,7
 1093 366 1093 366 1093 414 c 4,8,9
 1093 567 1093 567 909 637 c 4,10,11
 825 664 825 664 668 664 c 6,12,-1
 367 664 l 5,13,-1
 367 164 l 5,0,-1
297 1434 m 5,14,-1
 322 1435 l 6,15,16
 340.333 1433.17 340.333 1433.17 351 1426.5 c 4,17,18
 356.6 1423 356.6 1423 362 1409.5 c 4,19,20
 363 1407 363 1407 364.5 1397 c 132,-1,21
 366 1387 366 1387 367 1384 c 5,22,-1
 367 827 l 5,23,-1
 690 827 l 6,24,25
 785 827 785 827 853 821 c 132,-1,26
 921 815 921 815 995 796 c 4,27,28
 1143.82 757.789 1143.82 757.789 1227 635 c 4,29,30
 1288 541 1288 541 1288 414 c 4,31,32
 1288 361 1288 361 1276.5 310.5 c 132,-1,33
 1265 260 1265 260 1233.5 206 c 132,-1,34
 1202 152 1202 152 1153.5 111 c 132,-1,35
 1105 70 1105 70 1023.5 40.5 c 132,-1,36
 942 11 942 11 838 4 c 4,37,38
 793 0 793 0 700 0 c 6,39,-1
 252 0 l 6,40,41
 227 0 227 0 213 2 c 4,42,43
 209 2 209 2 201 6 c 5,44,45
 198 6 198 6 193.5 9 c 132,-1,46
 189 12 189 12 184.5 22.5 c 132,-1,47
 180 33 180 33 180 50 c 6,48,-1
 180 1372 l 6,49,50
 180 1393 180 1393 182.5 1404 c 132,-1,51
 185 1415 185 1415 195.5 1424.5 c 132,-1,52
 206 1434 206 1434 227 1434 c 6,53,-1
 297 1434 l 5,14,-1
EndSplineSet
Fore
SplineSet
220 0 m 2,0,1
 170 0 170 0 170 55 c 2,2,-1
 170 1379 l 2,3,4
 170 1434 170 1434 220 1434 c 2,5,-1
 312 1434 l 2,6,7
 362 1434 362 1434 362 1379 c 2,8,-1
 362 828 l 1,9,-1
 650 828 l 2,10,11
 987 828 987 828 1112.5 716 c 128,-1,12
 1238 604 1238 604 1238 414 c 256,13,14
 1238 224 1238 224 1112.5 112 c 128,-1,15
 987 0 987 0 650 0 c 2,16,-1
 220 0 l 2,0,1
362 164 m 1,17,-1
 618 164 l 2,18,19
 833 164 833 164 933 221.5 c 128,-1,20
 1033 279 1033 279 1033 414 c 256,21,22
 1033 549 1033 549 933 606.5 c 128,-1,23
 833 664 833 664 618 664 c 2,24,-1
 362 664 l 1,25,-1
 362 164 l 1,17,-1
EndSplineSet
EndChar

StartChar: afii10020
Encoding: 1043 1043 71
Width: 1106
Flags: W
HStem: 0 21G<195 337> 1270 164<362 1070>
VStem: 170 192<0.214844 1270>
LayerCount: 2
Back
SplineSet
1063 1376 m 6,0,-1
 1063 1326 l 6,1,2
 1063 1306 1063 1306 1059 1294.5 c 132,-1,3
 1055 1283 1055 1283 1045 1278.5 c 132,-1,4
 1035 1274 1035 1274 1028 1273 c 132,-1,5
 1021 1272 1021 1272 1006 1272 c 6,6,-1
 361 1272 l 5,7,-1
 361 55 l 6,8,9
 361 28 361 28 352 14 c 132,-1,10
 343 0 343 0 313 0 c 6,11,-1
 207 0 l 6,12,13
 170 4 170 4 170 51 c 6,14,-1
 170 1366 l 6,15,16
 170 1386 170 1386 171 1395.5 c 132,-1,17
 172 1405 172 1405 176.5 1415.5 c 132,-1,18
 181 1426 181 1426 192 1430 c 132,-1,19
 203 1434 203 1434 221 1434 c 6,20,-1
 1008 1434 l 6,21,22
 1042 1434 1042 1434 1052.5 1422.5 c 132,-1,23
 1063 1411 1063 1411 1063 1376 c 6,0,-1
EndSplineSet
Fore
SplineSet
220 0 m 2,0,1
 170 0 170 0 170 55 c 2,2,-1
 170 1379 l 2,3,4
 170 1434 170 1434 220 1434 c 2,5,-1
 1015 1434 l 2,6,7
 1070 1434 1070 1434 1070 1389 c 2,8,-1
 1070 1315 l 2,9,10
 1070 1270 1070 1270 1015 1270 c 2,11,-1
 362 1270 l 9,12,-1
 362 55 l 2,13,14
 362 0 362 0 312 0 c 2,15,-1
 220 0 l 2,0,1
EndSplineSet
EndChar

StartChar: afii10018
Encoding: 1041 1041 72
Width: 1348
Flags: W
HStem: 0 164<362 914.393> 668 164<362 914.393> 1270 164<362 1130>
VStem: 170 192<164 668 832 1270> 1043 205<272.763 559.237>
LayerCount: 2
Fore
SplineSet
220 0 m 2,0,1
 170 0 170 0 170 55 c 2,2,-1
 170 1379 l 2,3,4
 170 1434 170 1434 220 1434 c 2,5,-1
 1075 1434 l 2,6,7
 1130 1434 1130 1434 1130 1389 c 2,8,-1
 1130 1315 l 2,9,10
 1130 1270 1130 1270 1075 1270 c 2,11,-1
 362 1270 l 1,12,-1
 362 832 l 1,13,-1
 660 832 l 2,14,15
 997 832 997 832 1122.5 719.5 c 128,-1,16
 1248 607 1248 607 1248 416 c 256,17,18
 1248 225 1248 225 1122.5 112.5 c 128,-1,19
 997 0 997 0 660 0 c 2,20,-1
 220 0 l 2,0,1
362 164 m 1,21,-1
 628 164 l 2,22,23
 843 164 843 164 943 222.5 c 128,-1,24
 1043 281 1043 281 1043 416 c 256,25,26
 1043 551 1043 551 943 609.5 c 128,-1,27
 843 668 843 668 628 668 c 2,28,-1
 362 668 l 1,29,-1
 362 164 l 1,21,-1
EndSplineSet
EndChar

StartChar: afii10194
Encoding: 1123 1123 73
Width: 1275
Flags: W
HStem: 0 131<576 966.434> 488 130<576 966.434> 918 132<50 400 576 926> 1456 20G<422.5 553.5>
VStem: 400 176<131 488 618 918 1050 1476> 1014 186<177.723 442.195>
LayerCount: 2
Fore
SplineSet
95 918 m 6,0,1
 50 918 50 918 50 953 c 6,2,-1
 50 1015 l 6,3,4
 50 1050 50 1050 95 1050 c 6,5,-1
 400 1050 l 5,6,-1
 400 1431 l 2,7,8
 400 1476 400 1476 445 1476 c 2,9,-1
 531 1476 l 2,10,11
 576 1476 576 1476 576 1431 c 2,12,-1
 576 1050 l 5,13,-1
 881 1050 l 6,14,15
 926 1050 926 1050 926 1015 c 6,16,-1
 926 953 l 6,17,18
 926 918 926 918 881 918 c 6,19,-1
 576 918 l 5,20,-1
 576 618 l 1,21,-1
 798 618 l 2,22,23
 1028 618 1028 618 1114 533.5 c 128,-1,24
 1200 449 1200 449 1200 309 c 256,25,26
 1200 169 1200 169 1114 84.5 c 128,-1,27
 1028 0 1028 0 798 0 c 2,28,-1
 445 0 l 2,29,30
 400 0 400 0 400 45 c 2,31,-1
 400 918 l 5,32,-1
 95 918 l 6,0,1
576 131 m 1,33,-1
 752 131 l 2,34,35
 892 131 892 131 953 165 c 128,-1,36
 1014 199 1014 199 1014 309 c 256,37,38
 1014 419 1014 419 953 453.5 c 128,-1,39
 892 488 892 488 752 488 c 2,40,-1
 576 488 l 1,41,-1
 576 131 l 1,33,-1
EndSplineSet
EndChar

StartChar: period
Encoding: 46 46 74
Width: 600
Flags: W
HStem: 0 212<199 401>
VStem: 199 202<0 212>
LayerCount: 2
Back
SplineSet
399 45 m 2,2,3
 399 0 399 0 362 0 c 2,6,-1
 246 0 l 2,7,8
 218 0 218 0 207 7.5 c 128,-1,9
 196 15 196 15 196 42 c 1,10,-1
 197 57 l 1,11,-1
 197 158 l 2,12,13
 197 203 197 203 233 203 c 2,16,-1
 360 203 l 2,17,18
 381 203 381 203 390.5 195 c 128,-1,19
 400 187 400 187 400 161 c 1,0,-1
 399 147 l 1,1,-1
 399 45 l 2,2,3
EndSplineSet
Fore
SplineSet
244 0 m 2,0,1
 199 0 199 0 199 45 c 2,2,-1
 199 167 l 2,3,4
 199 212 199 212 244 212 c 2,5,-1
 356 212 l 2,6,7
 401 212 401 212 401 167 c 2,8,-1
 401 45 l 2,9,10
 401 0 401 0 356 0 c 2,11,-1
 244 0 l 2,0,1
EndSplineSet
EndChar

StartChar: h
Encoding: 104 104 75
Width: 1128
Flags: W
HStem: 0 21G<164.5 295.5 834.5 965.5> 937 130<441.349 736.543> 1456 20G<164.5 295.5>
VStem: 142 176<4.5e-07 826.553 925 1476> 812 176<4.5e-07 860.361>
LayerCount: 2
Fore
SplineSet
187 0 m 2,0,1
 142 0 142 0 142 45 c 2,2,-1
 142 1431 l 2,3,4
 142 1476 142 1476 187 1476 c 2,5,-1
 273 1476 l 2,6,7
 318 1476 318 1476 318 1431 c 2,8,-1
 318 985 l 2,9,10
 318 955 318 955 316 925 c 1,11,-1
 320 925 l 1,12,13
 385 997 385 997 460 1032 c 128,-1,14
 535 1067 535 1067 647 1067 c 256,15,16
 829 1067 829 1067 908.5 964.5 c 128,-1,17
 988 862 988 862 988 684 c 2,18,-1
 988 45 l 2,19,20
 988 0 988 0 943 0 c 2,21,-1
 857 0 l 2,22,23
 812 0 812 0 812 45 c 2,24,-1
 812 636 l 2,25,26
 812 832 812 832 747 884.5 c 128,-1,27
 682 937 682 937 582 937 c 256,28,29
 452 937 452 937 385 859.5 c 128,-1,30
 318 782 318 782 318 594 c 2,31,-1
 318 45 l 2,32,33
 318 0 318 0 273 0 c 2,34,-1
 187 0 l 2,0,1
EndSplineSet
EndChar

StartChar: b
Encoding: 98 98 76
Width: 1119
Flags: W
HStem: -17 130<430.682 722.215> 0 21G<164.5 288.812> 937 130<430.682 722.215> 1456 20G<164.5 295.5>
VStem: 142 176<0.0439453 125 222.317 827.683 925 1476> 848 186<266.624 783.376>
LayerCount: 2
Fore
SplineSet
187 0 m 2,0,1
 142 0 142 0 142 45 c 2,2,-1
 142 1431 l 2,3,4
 142 1476 142 1476 187 1476 c 2,5,-1
 273 1476 l 6,6,7
 318 1476 318 1476 318 1431 c 6,8,-1
 318 986 l 6,9,10
 318 955 318 955 316 925 c 5,11,-1
 318 925 l 5,12,13
 373 991 373 991 442 1029 c 132,-1,14
 511 1067 511 1067 626 1067 c 260,15,16
 826 1067 826 1067 930 903.5 c 132,-1,17
 1034 740 1034 740 1034 525 c 260,18,19
 1034 310 1034 310 930 146.5 c 132,-1,20
 826 -17 826 -17 626 -17 c 260,21,22
 511 -17 511 -17 442 21 c 132,-1,23
 373 59 373 59 318 125 c 5,24,-1
 316 125 l 5,25,-1
 310 45 l 6,26,27
 306.625 0 306.625 0 271 0 c 6,28,-1
 187 0 l 2,0,1
318 410 m 6,29,30
 318 260 318 260 389.5 186.5 c 132,-1,31
 461 113 461 113 569 113 c 260,32,33
 721 113 721 113 784.5 227 c 132,-1,34
 848 341 848 341 848 525 c 260,35,36
 848 709 848 709 784.5 823 c 132,-1,37
 721 937 721 937 569 937 c 260,38,39
 461 937 461 937 389.5 863.5 c 132,-1,40
 318 790 318 790 318 640 c 6,41,-1
 318 410 l 6,29,30
EndSplineSet
EndChar

StartChar: d
Encoding: 100 100 77
Width: 1119
Flags: W
HStem: -17 130<396.785 688.318> 0 21<830.188 954.5> 937 130<396.785 688.318> 1456 20<823.5 954.5>
VStem: 85 186<266.624 783.376> 801 176<0.0439453 125 222.317 827.683 925 1476>
LayerCount: 2
Fore
SplineSet
85 525 m 256,0,1
 85 740 85 740 189 903.5 c 128,-1,2
 293 1067 293 1067 493 1067 c 256,3,4
 608 1067 608 1067 677 1029 c 128,-1,5
 746 991 746 991 801 925 c 1,6,-1
 803 925 l 1,7,8
 801 955 801 955 801 986 c 2,9,-1
 801 1431 l 2,10,11
 801 1476 801 1476 846 1476 c 2,12,-1
 932 1476 l 2,13,14
 977 1476 977 1476 977 1431 c 2,15,-1
 977 45 l 2,16,17
 977 0 977 0 932 0 c 2,18,-1
 848 0 l 2,19,20
 812.375 0 812.375 0 809 45 c 2,21,-1
 803 125 l 1,22,-1
 801 125 l 1,23,24
 746 59 746 59 677 21 c 128,-1,25
 608 -17 608 -17 493 -17 c 256,26,27
 293 -17 293 -17 189 146.5 c 128,-1,28
 85 310 85 310 85 525 c 256,0,1
271 525 m 256,29,30
 271 341 271 341 334.5 227 c 128,-1,31
 398 113 398 113 550 113 c 256,32,33
 658 113 658 113 729.5 186.5 c 128,-1,34
 801 260 801 260 801 410 c 2,35,-1
 801 640 l 2,36,37
 801 790 801 790 729.5 863.5 c 128,-1,38
 658 937 658 937 550 937 c 256,39,40
 398 937 398 937 334.5 823 c 128,-1,41
 271 709 271 709 271 525 c 256,29,30
EndSplineSet
EndChar

StartChar: X
Encoding: 88 88 78
Width: 1310
Flags: MW
HStem: 0 21G<44.5 223 1087 1265.5> 607 266<522 788> 1414 20G<78.5 256 1054 1231.5>
DStem2: 59 66 271 39 0.58031 0.814395<21.9079 786.453 1003.08 1710.96> 304 1395 93 1368 0.58031 -0.814395<-79.0749 628.803 845.433 1611.1>
LayerCount: 2
Back
SplineSet
1035 1434 m 25,0,0
 10 0 l 25,0,0
1266 1434 m 25,0,0
 242 0 l 25,0,0
275 1434 m 25,0,0
 1300 0 l 25,0,0
44 1434 m 25,0,0
 1068 0 l 25,0,0
EndSplineSet
Fore
SplineSet
77 0 m 2,0,1
 12 0 12 0 59 66 c 2,2,-1
 539 740 l 1,3,-1
 93 1368 l 2,4,5
 46 1434 46 1434 111 1434 c 2,6,-1
 234 1434 l 2,7,8
 278 1434 278 1434 304 1395 c 2,9,-1
 655 873 l 1,10,-1
 1006 1395 l 2,11,12
 1032 1434 1032 1434 1076 1434 c 2,13,-1
 1199 1434 l 2,14,15
 1264 1434 1264 1434 1217 1368 c 2,16,-1
 771 740 l 1,17,-1
 1251 66 l 2,18,19
 1298 0 1298 0 1233 0 c 2,20,-1
 1109 0 l 2,21,22
 1065 -0 1065 -0 1039 39 c 2,23,-1
 655 607 l 1,24,-1
 271 39 l 2,25,26
 245 0 245 0 201 0 c 2,27,-1
 77 0 l 2,0,1
EndSplineSet
EndChar

StartChar: comma
Encoding: 44 44 82
Width: 600
Flags: W
HStem: 0 212<197 294>
VStem: 197 206<0.330566 212> 294 109<-164.908 0>
LayerCount: 2
Fore
SplineSet
242 0 m 2,0,1
 197 0 197 0 197 45 c 2,2,-1
 197 167 l 2,3,4
 197 212 197 212 242 212 c 2,5,-1
 358 212 l 2,6,7
 403 212 403 212 403 167 c 2,8,-1
 403 45 l 258,9,10
 403 -60 403 -60 380.5 -138.5 c 128,-1,11
 358 -217 358 -217 292 -276 c 256,12,13
 270 -295 270 -295 255 -281 c 2,14,-1
 210 -239 l 2,15,16
 195 -225 195 -225 217 -205 c 256,17,18
 251 -175 251 -175 272.5 -118.5 c 128,-1,19
 294 -62 294 -62 294 0 c 9,20,-1
 242 0 l 2,0,1
EndSplineSet
EndChar

StartChar: afii10028
Encoding: 1050 1050 83
Width: 1270
Flags: W
HStem: 0 21G<195 337 1041.5 1222.5> 653 160<362 567.797> 1414 20G<195 337 1022.5 1193>
VStem: 170 192<0.214844 653 813 1433.79>
DStem2: 714 1014 872 932 0.575726 0.817643<-224.791 544.977> 922 506 774 408 0.547659 -0.836702<-258.537 517.988>
LayerCount: 2
Fore
SplineSet
220 0 m 2,0,1
 170 0 170 0 170 55 c 2,2,-1
 170 1379 l 2,3,4
 170 1434 170 1434 220 1434 c 2,5,-1
 312 1434 l 2,6,7
 362 1434 362 1434 362 1379 c 2,8,-1
 362 813 l 1,9,-1
 404 813 l 2,10,11
 518 813 518 813 586.5 870.5 c 128,-1,12
 655 928 655 928 714 1014 c 2,13,-1
 974 1395 l 2,14,15
 1001 1434 1001 1434 1044 1434 c 2,16,-1
 1161 1434 l 2,17,18
 1225 1434 1225 1434 1179 1368 c 2,19,-1
 872 932 l 2,20,21
 818 856 818 856 751.5 800.5 c 128,-1,22
 685 745 685 745 659 735 c 1,23,-1
 659 734 l 1,24,25
 715 722 715 722 775 680.5 c 128,-1,26
 835 639 835 639 922 506 c 2,27,-1
 1210 66 l 2,28,29
 1253 0 1253 0 1192 0 c 2,30,-1
 1065 0 l 2,31,32
 1018 -0 1018 -0 995 39 c 2,33,-1
 774 408 l 2,34,35
 709 516 709 516 617.5 584.5 c 128,-1,36
 526 653 526 653 419 653 c 2,37,-1
 362 653 l 1,38,-1
 362 55 l 2,39,40
 362 0 362 0 312 0 c 2,41,-1
 220 0 l 2,0,1
EndSplineSet
EndChar

StartChar: afii10024
Encoding: 1046 1046 84
Width: 1928
Flags: W
HStem: 0 21G<48 228.5 893 1035 1699.5 1880> 653 160<688.229 868 1060 1239.77> 1414 20G<77.5 248 893 1035 1680 1850.5>
VStem: 868 192<0.214844 653 813 1433.79>
DStem2: 548 1014 91 1368 0.565565 -0.824704<-539.861 223.772> 340 506 488 408 0.536875 0.843661<-515.351 254.643> 1380 1014 1538 932 0.565565 0.824704<-223.772 539.861> 1588 506 1440 408 0.536875 -0.843661<-254.643 515.351>
LayerCount: 2
Fore
SplineSet
78 0 m 2,0,1
 18 0 18 0 60 66 c 2,2,-1
 340 506 l 2,3,4
 423 637 423 637 483 679.5 c 128,-1,5
 543 722 543 722 599 734 c 1,6,-1
 599 735 l 1,7,8
 573 745 573 745 509 798.5 c 128,-1,9
 445 852 445 852 390 932 c 2,10,-1
 91 1368 l 2,11,12
 46 1434 46 1434 109 1434 c 2,13,-1
 226 1434 l 2,14,15
 270 1434 270 1434 296 1395 c 2,16,-1
 548 1014 l 2,17,18
 608 923 608 923 673.5 868 c 128,-1,19
 739 813 739 813 838 813 c 2,20,-1
 868 813 l 1,21,-1
 868 1379 l 2,22,23
 868 1434 868 1434 918 1434 c 2,24,-1
 1010 1434 l 2,25,26
 1060 1434 1060 1434 1060 1379 c 2,27,-1
 1060 813 l 1,28,-1
 1090 813 l 2,29,30
 1189 813 1189 813 1254.5 868 c 128,-1,31
 1320 923 1320 923 1380 1014 c 2,32,-1
 1632 1395 l 2,33,34
 1658 1434 1658 1434 1702 1434 c 2,35,-1
 1819 1434 l 2,36,37
 1882 1434 1882 1434 1837 1368 c 2,38,-1
 1538 932 l 2,39,40
 1483 852 1483 852 1419 798.5 c 128,-1,41
 1355 745 1355 745 1329 735 c 1,42,-1
 1329 734 l 1,43,44
 1385 722 1385 722 1445 679.5 c 128,-1,45
 1505 637 1505 637 1588 506 c 2,46,-1
 1868 66 l 2,47,48
 1910 0 1910 0 1850 0 c 2,49,-1
 1723 0 l 2,50,51
 1676 0 1676 0 1653 39 c 2,52,-1
 1440 408 l 2,53,54
 1376 519 1376 519 1286.5 586 c 128,-1,55
 1197 653 1197 653 1105 653 c 2,56,-1
 1060 653 l 1,57,-1
 1060 55 l 2,58,59
 1060 0 1060 0 1010 0 c 2,60,-1
 918 0 l 2,61,62
 868 0 868 0 868 55 c 2,63,-1
 868 653 l 1,64,-1
 823 653 l 2,65,66
 731 653 731 653 641.5 586 c 128,-1,67
 552 519 552 519 488 408 c 2,68,-1
 275 39 l 2,69,70
 252 0 252 0 205 0 c 2,71,-1
 78 0 l 2,0,1
EndSplineSet
EndChar

StartChar: P
Encoding: 80 80 85
Width: 1308
Flags: W
HStem: 0 21G<195 337> 576 164<362 910.19> 1270 164<362 910.19>
VStem: 170 192<0.214844 576 740 1270> 1023 195<839.949 1170.05>
LayerCount: 2
Back
SplineSet
1024 991 m 0,0,1
 1024 1076.57 1024 1076.57 1000.5 1137 c 0,2,3
 990 1164 990 1164 971.5 1185.5 c 128,-1,4
 953 1207 953 1207 935.5 1221 c 128,-1,5
 918 1235 918 1235 890.5 1245 c 128,-1,6
 863 1255 863 1255 841.5 1260 c 128,-1,7
 820 1265 820 1265 786.5 1268 c 128,-1,8
 753 1271 753 1271 729.5 1271.5 c 128,-1,9
 706 1272 706 1272 670 1272 c 2,10,-1
 359 1272 l 1,11,-1
 359 717 l 1,12,-1
 670 717 l 2,13,14
 738 717 738 717 783.5 721.5 c 128,-1,15
 829 726 829 726 878.5 742 c 128,-1,16
 928 758 928 758 957 786.5 c 128,-1,17
 986 815 986 815 1005 866.5 c 128,-1,18
 1024 918 1024 918 1024 991 c 0,0,1
292 0 m 2,19,-1
 218 0 l 2,20,21
 189 0 189 0 179.5 14 c 128,-1,22
 170 28 170 28 170 53 c 2,23,-1
 170 1384 l 2,24,25
 170 1402 170 1402 175 1413 c 128,-1,26
 180 1424 180 1424 184.5 1427 c 128,-1,27
 189 1430 189 1430 193 1430 c 1,28,29
 201 1434 201 1434 207 1434 c 2,30,-1
 725 1434 l 2,31,32
 834 1434 834 1434 920.5 1408.5 c 128,-1,33
 1007 1383 1007 1383 1062.5 1340.5 c 128,-1,34
 1118 1298 1118 1298 1154 1240 c 128,-1,35
 1190 1182 1190 1182 1205 1122 c 128,-1,36
 1220 1062 1220 1062 1220 995 c 0,37,38
 1220 805 1220 805 1103 694 c 128,-1,39
 986 583 986 583 774 571 c 0,40,41
 733 569 733 569 649 569 c 2,42,-1
 361 569 l 1,43,-1
 361 49 l 2,44,45
 361 17 361 17 346 8.5 c 128,-1,46
 331 0 331 0 292 0 c 2,19,-1
EndSplineSet
Fore
SplineSet
220 0 m 2,0,1
 170 0 170 0 170 55 c 2,2,-1
 170 1379 l 2,3,4
 170 1434 170 1434 220 1434 c 2,5,-1
 640 1434 l 2,6,7
 980 1434 980 1434 1099 1319.5 c 128,-1,8
 1218 1205 1218 1205 1218 1005 c 256,9,10
 1218 805 1218 805 1099 690.5 c 128,-1,11
 980 576 980 576 640 576 c 2,12,-1
 362 576 l 1,13,-1
 362 55 l 2,14,15
 362 0 362 0 312 0 c 2,16,-1
 220 0 l 2,0,1
362 740 m 1,17,-1
 643 740 l 2,18,19
 863 740 863 740 943 802.5 c 128,-1,20
 1023 865 1023 865 1023 1005 c 256,21,22
 1023 1145 1023 1145 943 1207.5 c 128,-1,23
 863 1270 863 1270 643 1270 c 2,24,-1
 362 1270 l 1,25,-1
 362 740 l 1,17,-1
EndSplineSet
EndChar

StartChar: B
Encoding: 66 66 86
Width: 1358
Flags: W
HStem: 0 164<362 921.981> 664 144<362 836.401> 1270 164<362 894.5>
VStem: 170 192<164 664 808 1270> 991 195<935.644 1185.97> 1043 205<263.769 546.479>
LayerCount: 2
Back
SplineSet
357 811 m 1,0,-1
 592 811 l 2,1,2
 718 811 718 811 810 831 c 128,-1,3
 902 851 902 851 967 915 c 0,4,5
 1023 974 1023 974 1026 1055 c 0,6,7
 1026 1072 1026 1072 1023.5 1087 c 128,-1,8
 1021 1102 1021 1102 1009 1128.5 c 128,-1,9
 997 1155 997 1155 976.5 1176 c 128,-1,10
 956 1197 956 1197 914 1219.5 c 128,-1,11
 872 1242 872 1242 815 1255 c 0,12,13
 740 1272 740 1272 586 1272 c 2,14,-1
 357 1272 l 1,15,-1
 357 811 l 1,0,-1
596 164 m 1,16,-1
 680 163 l 2,17,18
 782 163 782 163 858.5 180.5 c 128,-1,19
 935 198 935 198 976.5 223 c 128,-1,20
 1018 248 1018 248 1043.5 283 c 128,-1,21
 1069 318 1069 318 1076.5 346 c 128,-1,22
 1084 374 1084 374 1084 398.5 c 128,-1,23
 1084 423 1084 423 1079.5 446 c 128,-1,24
 1075 469 1075 469 1063 500 c 128,-1,25
 1051 531 1051 531 1023.5 561.5 c 128,-1,26
 996 592 996 592 957 614 c 0,27,28
 888 656 888 656 808 668 c 128,-1,29
 728 680 728 680 619 680 c 2,30,-1
 357 680 l 1,31,-1
 357 164 l 1,32,-1
 596 164 l 1,16,-1
225 0 m 2,33,34
 170 0 170 0 170 47 c 2,35,-1
 170 1374 l 2,36,37
 170 1390 170 1390 171 1399 c 128,-1,38
 172 1408 172 1408 176.5 1417 c 0,39,40
 185 1434 185 1434 217 1434 c 2,41,-1
 674 1434 l 2,42,43
 738 1432 738 1432 779.5 1429 c 128,-1,44
 821 1426 821 1426 891 1414 c 128,-1,45
 961 1402 961 1402 1019 1374 c 128,-1,46
 1077 1346 1077 1346 1121.5 1301.5 c 128,-1,47
 1166 1257 1166 1257 1192 1194.5 c 128,-1,48
 1218 1132 1218 1132 1218 1067 c 0,49,50
 1218 1037 1218 1037 1213 1008.5 c 128,-1,51
 1208 980 1208 980 1188.5 939.5 c 128,-1,52
 1169 899 1169 899 1137 865.5 c 128,-1,53
 1105 832 1105 832 1043.5 800 c 128,-1,54
 982 768 982 768 899 750 c 1,55,56
 989 739 989 739 1058.5 709.5 c 128,-1,57
 1128 680 1128 680 1168 643.5 c 128,-1,58
 1208 607 1208 607 1234 561.5 c 128,-1,59
 1260 516 1260 516 1269 477 c 128,-1,60
 1278 438 1278 438 1278 397 c 128,-1,61
 1278 356 1278 356 1269 314 c 128,-1,62
 1260 272 1260 272 1237.5 223 c 128,-1,63
 1215 174 1215 174 1167.5 130 c 128,-1,64
 1120 86 1120 86 1053 55 c 0,65,66
 981 23 981 23 902.5 11.5 c 128,-1,67
 824 0 824 0 715 0 c 2,68,-1
 225 0 l 2,33,34
EndSplineSet
Fore
SplineSet
220 0 m 2,0,1
 170 0 170 0 170 55 c 2,2,-1
 170 1379 l 2,3,4
 170 1434 170 1434 220 1434 c 2,5,-1
 610 1434 l 2,6,7
 950 1434 950 1434 1068 1324 c 128,-1,8
 1186 1214 1186 1214 1186 1059 c 256,9,10
 1186 936 1186 936 1088 850.5 c 128,-1,11
 990 765 990 765 898 750 c 1,12,-1
 898 747 l 1,13,14
 999 738 999 738 1123.5 646.5 c 128,-1,15
 1248 555 1248 555 1248 398 c 256,16,17
 1248 228 1248 228 1122.5 114 c 128,-1,18
 997 0 997 0 660 0 c 2,19,-1
 220 0 l 2,0,1
362 164 m 1,20,-1
 628 164 l 2,21,22
 843 164 843 164 943 217 c 128,-1,23
 1043 270 1043 270 1043 404 c 256,24,25
 1043 528 1043 528 941.5 596 c 128,-1,26
 840 664 840 664 628 664 c 2,27,-1
 362 664 l 1,28,-1
 362 164 l 1,20,-1
362 808 m 1,29,-1
 613 808 l 2,30,31
 780 808 780 808 885.5 879.5 c 128,-1,32
 991 951 991 951 991 1059 c 256,33,34
 991 1162 991 1162 912 1216 c 128,-1,35
 833 1270 833 1270 613 1270 c 2,36,-1
 362 1270 l 1,37,-1
 362 808 l 1,29,-1
EndSplineSet
EndChar

StartChar: hyphen
Encoding: 45 45 89
Width: 680
Flags: W
HStem: 483 140<56 624>
VStem: 56 568<483 623>
LayerCount: 2
Fore
SplineSet
101 483 m 2,0,1
 56 483 56 483 56 518 c 2,2,-1
 56 588 l 2,3,4
 56 623 56 623 101 623 c 2,5,-1
 579 623 l 2,6,7
 624 623 624 623 624 588 c 2,8,-1
 624 518 l 2,9,10
 624 483 624 483 579 483 c 2,11,-1
 101 483 l 2,0,1
EndSplineSet
EndChar

StartChar: endash
Encoding: 8211 8211 90
Width: 1024
Flags: W
HStem: 488 130<36 988>
LayerCount: 2
Fore
SplineSet
81 488 m 2,0,1
 36 488 36 488 36 523 c 2,2,-1
 36 583 l 2,3,4
 36 618 36 618 81 618 c 2,5,-1
 943 618 l 2,6,7
 988 618 988 618 988 583 c 2,8,-1
 988 523 l 2,9,10
 988 488 988 488 943 488 c 2,11,-1
 81 488 l 2,0,1
EndSplineSet
EndChar

StartChar: C
Encoding: 67 67 91
Width: 1402
Flags: W
HStem: -30 156<548.436 969.729> 1308 156<548.436 971.435>
VStem: 92 205<418.898 1015.1>
LayerCount: 2
Back
SplineSet
92 719 m 256,0,1
 92 1069 92 1069 264.5 1266.5 c 128,-1,2
 437 1464 437 1464 762 1464 c 256,3,4
 1087 1464 1087 1464 1259.5 1265.5 c 128,-1,5
 1432 1067 1432 1067 1432 717 c 256,6,7
 1432 367 1432 367 1259.5 168.5 c 128,-1,8
 1087 -30 1087 -30 762 -30 c 256,9,10
 437 -30 437 -30 264.5 169.5 c 128,-1,11
 92 369 92 369 92 719 c 256,0,1
297 717 m 256,12,13
 297 437 297 437 412 281.5 c 128,-1,14
 527 126 527 126 762 126 c 256,15,16
 997 126 997 126 1112 281.5 c 128,-1,17
 1227 437 1227 437 1227 717 c 256,18,19
 1227 997 1227 997 1112 1152.5 c 128,-1,20
 997 1308 997 1308 762 1308 c 256,21,22
 527 1308 527 1308 412 1152.5 c 128,-1,23
 297 997 297 997 297 717 c 256,12,13
EndSplineSet
Fore
SplineSet
92 717 m 256,0,1
 92 1067 92 1067 265.5 1265.5 c 128,-1,2
 439 1464 439 1464 764 1464 c 256,3,4
 954 1464 954 1464 1078 1399.5 c 128,-1,5
 1202 1335 1202 1335 1256 1223 c 256,6,7
 1284.17 1164.64 1284.17 1164.64 1247 1143 c 258,8,-1
 1168 1097 l 258,9,10
 1128.11 1073.78 1128.11 1073.78 1097 1135 c 256,11,12
 1064 1198 1064 1198 989 1253 c 128,-1,13
 914 1308 914 1308 774 1308 c 256,14,15
 524 1308 524 1308 410.5 1152.5 c 128,-1,16
 297 997 297 997 297 717 c 256,17,18
 297 437 297 437 410.5 281.5 c 128,-1,19
 524 126 524 126 774 126 c 256,20,21
 918 126 918 126 1004.5 192 c 152,-1,22
 1091 258 1091 258 1130 330 c 256,23,24
 1161.09 388.166 1161.09 388.166 1202 365 c 258,25,-1
 1285 318 l 258,26,27
 1321.24 297.477 1321.24 297.477 1291 238 c 256,28,29
 1232 123 1232 123 1099 46.5 c 152,-1,30
 966 -30 966 -30 764 -30 c 256,31,32
 439 -30 439 -30 265.5 168.5 c 128,-1,33
 92 367 92 367 92 717 c 256,0,1
EndSplineSet
EndChar

StartChar: T
Encoding: 84 84 92
Width: 1240
Flags: W
HStem: 0 21G<549 691> 1262 172<36 524 716 1204>
VStem: 524 192<0.214844 1262>
LayerCount: 2
Back
SplineSet
76 1313 m 2,0,-1
 76 1372 l 2,1,2
 76 1406 76 1406 84.5 1415.5 c 128,-1,3
 93 1425 93 1425 116 1429 c 0,4,5
 120 1430 120 1430 123 1430 c 2,6,-1
 1339 1430 l 2,7,8
 1384 1430 1384 1430 1394.5 1417 c 128,-1,9
 1405 1404 1405 1404 1405 1362 c 2,10,-1
 1405 1327 l 2,11,12
 1405 1290 1405 1290 1394 1278 c 128,-1,13
 1383 1266 1383 1266 1346 1266 c 2,14,-1
 836 1266 l 1,15,-1
 836 61 l 2,16,17
 836 17 836 17 819 6 c 1,18,19
 817 6 817 6 814.5 5 c 128,-1,20
 812 4 812 4 811 4 c 2,21,22
 803 0 803 0 786 0 c 2,23,-1
 711 0 l 2,24,25
 686 0 686 0 672 2.5 c 128,-1,26
 658 5 658 5 652.5 16 c 128,-1,27
 647 27 647 27 646 35.5 c 128,-1,28
 645 44 645 44 645 68 c 2,29,-1
 645 1266 l 1,30,-1
 133 1266 l 2,31,32
 118 1266 118 1266 108 1267.5 c 128,-1,33
 98 1269 98 1269 91.5 1275.5 c 128,-1,34
 85 1282 85 1282 82 1284.5 c 128,-1,35
 79 1287 79 1287 77.5 1298.5 c 128,-1,36
 76 1310 76 1310 76 1313 c 2,0,-1
EndSplineSet
Fore
SplineSet
91 1262 m 2,0,1
 36 1262 36 1262 36 1307 c 2,2,-1
 36 1389 l 2,3,4
 36 1434 36 1434 91 1434 c 2,5,-1
 1149 1434 l 2,6,7
 1204 1434 1204 1434 1204 1389 c 2,8,-1
 1204 1307 l 2,9,10
 1204 1262 1204 1262 1149 1262 c 2,11,-1
 716 1262 l 1,12,-1
 716 55 l 2,13,14
 716 0 716 0 666 0 c 2,15,-1
 574 0 l 2,16,17
 524 0 524 0 524 55 c 2,18,-1
 524 1262 l 1,19,-1
 91 1262 l 2,0,1
EndSplineSet
EndChar

StartChar: V
Encoding: 86 86 93
Width: 1338
Flags: W
HStem: 0 21G<577.5 760.5> 1414 20G<47 202 1136 1291>
DStem2: 572 490 533 61 0.349158 -0.937064<-1022.66 328.361> 766 490 805 61 0.349158 0.937064<-328.361 1022.66>
LayerCount: 2
Back
SplineSet
1276 1434 m 2,0,1
 1328 1434 1328 1434 1303 1368 c 2,2,-1
 805 61 l 2,3,4
 782 0 782 0 739 0 c 2,5,-1
 599 0 l 2,6,7
 556 0 556 0 533 61 c 2,8,-1
 35 1368 l 2,9,10
 10 1434 10 1434 62 1434 c 2,11,-1
 164 1434 l 2,12,13
 217 1434 217 1434 236 1385 c 2,14,-1
 361 1054 l 1,15,-1
 977 1054 l 1,16,-1
 1102 1385 l 2,17,18
 1121 1434 1121 1434 1174 1434 c 2,19,-1
 1276 1434 l 2,0,1
914 890 m 1,20,-1
 424 890 l 1,21,-1
 577 490 l 2,22,23
 598 434 598 434 618.5 366 c 128,-1,24
 639 298 639 298 667 173 c 1,25,-1
 671 173 l 1,26,27
 699 298 699 298 719.5 366 c 128,-1,28
 740 434 740 434 761 490 c 2,29,-1
 914 890 l 1,20,-1
EndSplineSet
Fore
SplineSet
46 1368 m 18,0,1
 21 1434 21 1434 73 1434 c 2,2,-1
 175 1434 l 2,3,4
 229 1434 229 1434 247 1385 c 10,5,-1
 572 490 l 2,6,7
 593 431 593 431 624.5 331.5 c 128,-1,8
 656 232 656 232 667 173 c 1,9,-1
 671 173 l 1,10,11
 682 232 682 232 713.5 331.5 c 128,-1,12
 745 431 745 431 766 490 c 2,13,-1
 1091 1385 l 18,14,15
 1109 1434 1109 1434 1163 1434 c 2,16,-1
 1265 1434 l 2,17,18
 1317 1434 1317 1434 1292 1368 c 10,19,-1
 805 61 l 2,20,21
 782 0 782 0 739 0 c 2,22,-1
 599 0 l 2,23,24
 556 0 556 0 533 61 c 2,25,-1
 46 1368 l 18,0,1
EndSplineSet
EndChar

StartChar: A
Encoding: 65 65 94
Width: 1360
Flags: W
HStem: 0 21G<47 201.5 1158.5 1313> 380 164<435 925> 1414 20G<588.5 771.5>
DStem2: 46 66 435 544 0.356055 0.934465<-12.45 409.496 585.18 1337.76> 816 1373 772 944 0.356055 -0.934465<60.8969 813.482 989.165 1411.11>
LayerCount: 2
Back
SplineSet
609 1373 m 6,8,-1
 1107 66 l 6,9,10
253 66 m 6,2,-1
 751 1373 l 6,3,4
46 66 m 6,2,-1
 544 1373 l 6,3,4
816 1373 m 6,8,-1
 1314 66 l 6,9,10
73 0 m 2,0,1
 21 0 21 0 46 66 c 2,2,-1
 549 1373 l 2,3,4
 572 1434 572 1434 615 1434 c 2,5,-1
 755 1434 l 2,6,7
 798 1434 798 1434 821 1373 c 2,8,-1
 1324 66 l 2,9,10
 1349 0 1349 0 1297 0 c 2,11,-1
 1195 0 l 2,12,13
 1142 0 1142 0 1123 49 c 2,14,-1
 997 380 l 1,15,-1
 373 380 l 1,16,-1
 247 49 l 2,17,18
 228 0 228 0 175 0 c 2,19,-1
 73 0 l 2,0,1
436 544 m 1,20,-1
 934 544 l 1,21,-1
 782 944 l 2,22,23
 767 985 767 985 732.5 1093.5 c 128,-1,24
 698 1202 698 1202 687 1261 c 1,25,-1
 683 1261 l 1,26,27
 672 1202 672 1202 637.5 1093.5 c 128,-1,28
 603 985 603 985 588 944 c 2,29,-1
 436 544 l 1,20,-1
EndSplineSet
Fore
SplineSet
73 0 m 2,0,1
 21 0 21 0 46 66 c 2,2,-1
 544 1373 l 2,3,4
 567 1434 567 1434 610 1434 c 2,5,-1
 750 1434 l 2,6,7
 793 1434 793 1434 816 1373 c 2,8,-1
 1314 66 l 2,9,10
 1339 0 1339 0 1287 0 c 2,11,-1
 1185 0 l 2,12,13
 1132 0 1132 0 1113 49 c 2,14,-1
 988 380 l 1,15,-1
 372 380 l 1,16,-1
 247 49 l 2,17,18
 228 0 228 0 175 0 c 2,19,-1
 73 0 l 2,0,1
435 544 m 1,20,-1
 925 544 l 1,21,-1
 772 944 l 2,22,23
 751 1000 751 1000 730.5 1068 c 128,-1,24
 710 1136 710 1136 682 1261 c 1,25,-1
 678 1261 l 1,26,27
 650 1136 650 1136 629.5 1068 c 128,-1,28
 609 1000 609 1000 588 944 c 2,29,-1
 435 544 l 1,20,-1
EndSplineSet
EndChar

StartChar: afii10029
Encoding: 1051 1051 98
Width: 1474
Flags: W
HStem: -30 157<57.228 294.668> 0 21G<1137 1279> 1270 164<600 1112>
VStem: 434 166<576.595 1270> 1112 192<0.214844 1270>
LayerCount: 2
Back
SplineSet
72 -23 m 256,0,1
 33 -10 33 -10 40 23 c 2,2,-1
 58 112 l 6,3,4
 66 153 66 153 110 135 c 260,5,6
 144 121 144 121 183 121 c 0,7,8
 344 121 344 121 389 384.5 c 128,-1,9
 434 648 434 648 434 1077 c 2,10,-1
 434 1379 l 2,11,12
 434 1434 434 1434 484 1434 c 2,13,-1
 1274 1434 l 2,14,15
 1324 1434 1324 1434 1324 1379 c 2,16,-1
 1324 55 l 2,17,18
 1324 0 1324 0 1274 0 c 2,19,-1
 1182 0 l 2,20,21
 1132 0 1132 0 1132 55 c 2,22,-1
 1132 1270 l 1,23,-1
 596 1270 l 1,24,-1
 596 1021 l 2,25,26
 596 390 596 390 504.5 177 c 128,-1,27
 413 -36 413 -36 206 -36 c 0,28,29
 112 -36 112 -36 72 -23 c 256,0,1
EndSplineSet
Fore
SplineSet
72 -17 m 256,0,1
 33 -4 33 -4 40 29 c 2,2,-1
 57 112 l 2,3,4
 64 148 64 148 109 135 c 256,5,6
 137 127 137 127 183 127 c 0,7,8
 344 127 344 127 389 387.5 c 128,-1,9
 434 648 434 648 434 1077 c 2,10,-1
 434 1379 l 2,11,12
 434 1434 434 1434 484 1434 c 2,13,-1
 1254 1434 l 2,14,15
 1304 1434 1304 1434 1304 1379 c 2,16,-1
 1304 55 l 2,17,18
 1304 0 1304 0 1254 0 c 2,19,-1
 1162 0 l 2,20,21
 1112 0 1112 0 1112 55 c 2,22,-1
 1112 1270 l 1,23,-1
 600 1270 l 1,24,-1
 600 1021 l 2,25,26
 600 390 600 390 506.5 180 c 128,-1,27
 413 -30 413 -30 206 -30 c 0,28,29
 112 -30 112 -30 72 -17 c 256,0,1
EndSplineSet
EndChar

StartChar: afii10038
Encoding: 1060 1060 99
Width: 1752
Flags: W
HStem: -12 21G<805 947> 200 150<470.091 780 972 1281.91> 1110 150<470.091 780 972 1281.91> 1419 20G<805 947>
VStem: 92 205<514.771 945.229> 780 192<-11.7852 200 350 1110 1260 1438.79> 1455 205<514.771 945.229>
CounterMasks: 1 0e
LayerCount: 2
Fore
SplineSet
92 730 m 256,0,1
 92 1010 92 1010 259.5 1135 c 128,-1,2
 427 1260 427 1260 707 1260 c 2,3,-1
 780 1260 l 1,4,-1
 780 1384 l 2,5,6
 780 1439 780 1439 830 1439 c 2,7,-1
 922 1439 l 2,8,9
 972 1439 972 1439 972 1384 c 2,10,-1
 972 1260 l 1,11,-1
 1045 1260 l 2,12,13
 1325 1260 1325 1260 1492.5 1135 c 128,-1,14
 1660 1010 1660 1010 1660 730 c 256,15,16
 1660 450 1660 450 1492.5 325 c 128,-1,17
 1325 200 1325 200 1045 200 c 2,18,-1
 972 200 l 1,19,-1
 972 43 l 2,20,21
 972 -12 972 -12 922 -12 c 2,22,-1
 830 -12 l 2,23,24
 780 -12 780 -12 780 43 c 2,25,-1
 780 200 l 1,26,-1
 707 200 l 2,27,28
 427 200 427 200 259.5 325 c 128,-1,29
 92 450 92 450 92 730 c 256,0,1
297 730 m 256,30,31
 297 530 297 530 398.5 440 c 128,-1,32
 500 350 500 350 730 350 c 2,33,-1
 780 350 l 1,34,-1
 780 1110 l 1,35,-1
 730 1110 l 2,36,37
 500 1110 500 1110 398.5 1020 c 128,-1,38
 297 930 297 930 297 730 c 256,30,31
972 350 m 1,39,-1
 1022 350 l 2,40,41
 1252 350 1252 350 1353.5 440 c 128,-1,42
 1455 530 1455 530 1455 730 c 256,43,44
 1455 930 1455 930 1353.5 1020 c 128,-1,45
 1252 1110 1252 1110 1022 1110 c 2,46,-1
 972 1110 l 1,47,-1
 972 350 l 1,39,-1
EndSplineSet
EndChar

StartChar: g
Encoding: 103 103 100
Width: 1119
Flags: W
HStem: -417 130<325.886 722.16> -17 130<396.785 685.731> 937 130<396.785 688.318> 1030 20G<830.188 954.5>
VStem: 85 186<266.624 783.376> 801 176<-206.563 132 222.317 827.683 925 1049.96>
LayerCount: 2
Fore
SplineSet
85 525 m 256,0,1
 85 740 85 740 189 903.5 c 128,-1,2
 293 1067 293 1067 493 1067 c 256,3,4
 608 1067 608 1067 677 1029 c 128,-1,5
 746 991 746 991 801 925 c 1,6,-1
 803 925 l 1,7,-1
 809 1005 l 2,8,9
 812.375 1050 812.375 1050 848 1050 c 2,10,-1
 932 1050 l 2,11,12
 977 1050 977 1050 977 1005 c 2,13,-1
 977 -8 l 2,14,15
 977 -200 977 -200 888.5 -308.5 c 128,-1,16
 800 -417 800 -417 539 -417 c 256,17,18
 364 -417 364 -417 277 -377.5 c 152,-1,19
 190 -338 190 -338 153 -294 c 256,20,21
 126.256 -261.313 126.256 -261.313 150 -238 c 2,22,-1
 205 -184 l 2,23,24
 227.687 -161.725 227.687 -161.725 269 -198 c 256,25,26
 322 -246 322 -246 371 -266.5 c 128,-1,27
 420 -287 420 -287 540 -287 c 256,28,29
 676 -287 676 -287 738.5 -229 c 128,-1,30
 801 -171 801 -171 801 11 c 2,31,-1
 801 71 l 2,32,33
 801 102 801 102 803 132 c 1,34,-1
 801 132 l 1,35,36
 749 63 749 63 678.5 23 c 128,-1,37
 608 -17 608 -17 493 -17 c 256,38,39
 293 -17 293 -17 189 146.5 c 128,-1,40
 85 310 85 310 85 525 c 256,0,1
271 525 m 256,41,42
 271 341 271 341 334.5 227 c 128,-1,43
 398 113 398 113 550 113 c 256,44,45
 658 113 658 113 729.5 186.5 c 128,-1,46
 801 260 801 260 801 410 c 2,47,-1
 801 640 l 2,48,49
 801 790 801 790 729.5 863.5 c 128,-1,50
 658 937 658 937 550 937 c 256,51,52
 398 937 398 937 334.5 823 c 128,-1,53
 271 709 271 709 271 525 c 256,41,42
EndSplineSet
EndChar

StartChar: u
Encoding: 117 117 101
Width: 1120
Flags: W
HStem: -17 130<393.36 678.909> 0 21G<826.5 955.5> 1030 20G<162.5 293.5 824.5 955.5>
VStem: 140 176<189.639 1050> 802 176<0.0439453 125 223.447 1050>
LayerCount: 2
Back
SplineSet
477 -17 m 256,0,1
 140 -17 140 -17 140 366 c 2,2,-1
 140 1005 l 2,3,4
 140 1050 140 1050 185 1050 c 2,5,-1
 271 1050 l 2,6,7
 316 1050 316 1050 316 1005 c 2,8,-1
 316 414 l 2,9,10
 316 218 316 218 381 165.5 c 128,-1,11
 446 113 446 113 542 113 c 256,12,13
 668 113 668 113 735 190.5 c 128,-1,14
 802 268 802 268 802 456 c 2,15,-1
 802 1005 l 2,16,17
 802 1050 802 1050 847 1050 c 2,18,-1
 933 1050 l 2,19,20
 978 1050 978 1050 978 1005 c 2,21,-1
 978 45 l 2,22,23
 978 0 978 0 933 0 c 2,24,-1
 849 0 l 2,25,26
 804 0 804 0 804 45 c 2,27,-1
 804 125 l 1,28,-1
 800 125 l 1,29,30
 735 53 735 53 660 18 c 128,-1,31
 585 -17 585 -17 477 -17 c 256,0,1
EndSplineSet
Fore
SplineSet
140 366 m 2,0,-1
 140 1005 l 2,1,2
 140 1050 140 1050 185 1050 c 2,3,-1
 271 1050 l 2,4,5
 316 1050 316 1050 316 1005 c 2,6,-1
 316 414 l 2,7,8
 316 218 316 218 381 165.5 c 128,-1,9
 446 113 446 113 542 113 c 256,10,11
 668 113 668 113 735 190.5 c 128,-1,12
 802 268 802 268 802 456 c 2,13,-1
 802 1005 l 2,14,15
 802 1050 802 1050 847 1050 c 2,16,-1
 933 1050 l 2,17,18
 978 1050 978 1050 978 1005 c 2,19,-1
 978 45 l 2,20,21
 978 0 978 0 933 0 c 2,22,-1
 849 0 l 2,23,24
 804 0 804 0 804 45 c 2,25,-1
 804 125 l 1,26,-1
 800 125 l 1,27,28
 735 53 735 53 660 18 c 128,-1,29
 585 -17 585 -17 477 -17 c 256,30,31
 302 -17 302 -17 221 85.5 c 128,-1,32
 140 188 140 188 140 366 c 2,0,-1
EndSplineSet
EndChar

StartChar: z
Encoding: 122 122 102
Width: 950
Flags: W
HStem: 0 132<252 895> 918 132<79 668>
DStem2: 90 166 252 132 0.609003 0.793168<71.6907 948.466>
LayerCount: 2
Back
SplineSet
280 166 m 2,5,-1
 858 920 l 9,6,-1
90 166 m 2,5,-1
 668 920 l 9,6,-1
EndSplineSet
Fore
SplineSet
100 0 m 2,0,1
 55 0 55 0 55 35 c 2,2,-1
 55 86 l 2,3,4
 55 120.464 55 120.464 90 166 c 2,5,-1
 668 918 l 9,6,-1
 668 920 l 25,7,8
 638 918 638 918 608 918 c 2,9,-1
 124 918 l 2,10,11
 79 918 79 918 79 953 c 2,12,-1
 79 1015 l 2,13,14
 79 1050 79 1050 124 1050 c 2,15,-1
 826 1050 l 2,16,17
 871 1050 871 1050 871 1015 c 2,18,-1
 871 968 l 2,19,20
 871 938.189 871 938.189 834 890 c 2,21,-1
 252 132 l 9,22,-1
 252 130 l 17,23,24
 282 132 282 132 312 132 c 2,25,-1
 850 132 l 2,26,27
 895 132 895 132 895 97 c 2,28,-1
 895 35 l 2,29,30
 895 0 895 0 850 0 c 2,31,-1
 100 0 l 2,0,1
EndSplineSet
EndChar

StartChar: m
Encoding: 109 109 103
Width: 1678
Flags: W
HStem: 0 21G<164.5 295.5 774.5 905.5 1384.5 1515.5> 937 130<442.276 689.289 1056.96 1300.09> 1030 20G<164.5 293.5>
VStem: 142 176<4.5e-07 826.553 925 1049.96> 752 176<4.5e-07 816.396> 1362 176<4.5e-07 872.901>
CounterMasks: 1 1c
LayerCount: 2
Back
SplineSet
797 0 m 2,0,1
 752 0 752 0 752 45 c 2,2,-1
 752 995 l 2,3,4
 752 1040 752 1040 797 1040 c 2,5,-1
 881 1040 l 2,6,7
 926 1040 926 1040 926 995 c 2,8,-1
 926 915 l 1,9,-1
 930 915 l 1,10,11
 995 987 995 987 1071 1022 c 128,-1,12
 1147 1057 1147 1057 1217 1057 c 256,13,14
 1376 1057 1376 1057 1457 954.5 c 128,-1,15
 1538 852 1538 852 1538 674 c 2,16,-1
 1538 45 l 2,17,18
 1538 0 1538 0 1493 0 c 2,19,-1
 1407 0 l 2,20,21
 1362 0 1362 0 1362 45 c 2,22,-1
 1362 616 l 2,23,24
 1362 812 1362 812 1313 869.5 c 128,-1,25
 1264 927 1264 927 1162 927 c 256,26,27
 1062 927 1062 927 995 849.5 c 128,-1,28
 928 772 928 772 928 584 c 2,29,-1
 928 45 l 2,30,31
 928 0 928 0 883 0 c 2,32,-1
 797 0 l 2,0,1
187 0 m 2,33,34
 142 0 142 0 142 45 c 2,35,-1
 142 995 l 2,36,37
 142 1040 142 1040 187 1040 c 2,38,-1
 271 1040 l 2,39,40
 316 1040 316 1040 316 995 c 2,41,-1
 316 915 l 1,42,-1
 320 915 l 1,43,44
 385 987 385 987 461 1022 c 128,-1,45
 537 1057 537 1057 607 1057 c 256,46,47
 766 1057 766 1057 847 954.5 c 128,-1,48
 928 852 928 852 928 674 c 2,49,-1
 928 45 l 2,50,51
 928 0 928 0 883 0 c 2,52,-1
 797 0 l 2,53,54
 752 0 752 0 752 45 c 2,55,-1
 752 616 l 2,56,57
 752 812 752 812 703 869.5 c 128,-1,58
 654 927 654 927 552 927 c 256,59,60
 452 927 452 927 385 849.5 c 128,-1,61
 318 772 318 772 318 584 c 2,62,-1
 318 45 l 2,63,64
 318 0 318 0 273 0 c 2,65,-1
 187 0 l 2,33,34
EndSplineSet
Fore
SplineSet
187 0 m 2,0,1
 142 0 142 0 142 45 c 2,2,-1
 142 1005 l 2,3,4
 142 1050 142 1050 187 1050 c 2,5,-1
 271 1050 l 2,6,7
 316 1050 316 1050 316 1005 c 2,8,-1
 316 925 l 1,9,-1
 320 925 l 1,10,11
 385 997 385 997 461 1032 c 128,-1,12
 537 1067 537 1067 607 1067 c 256,13,14
 736 1067 736 1067 805.5 1002.5 c 128,-1,15
 875 938 875 938 895 873 c 1,16,-1
 899 873 l 1,17,18
 954 955 954 955 1038 1011 c 128,-1,19
 1122 1067 1122 1067 1217 1067 c 256,20,21
 1376 1067 1376 1067 1457 964.5 c 128,-1,22
 1538 862 1538 862 1538 684 c 2,23,-1
 1538 45 l 2,24,25
 1538 0 1538 0 1493 0 c 2,26,-1
 1407 0 l 2,27,28
 1362 0 1362 0 1362 45 c 2,29,-1
 1362 626 l 2,30,31
 1362 822 1362 822 1313 879.5 c 128,-1,32
 1264 937 1264 937 1162 937 c 256,33,34
 1062 937 1062 937 995 851.5 c 128,-1,35
 928 766 928 766 928 594 c 2,36,-1
 928 45 l 2,37,38
 928 0 928 0 883 0 c 2,39,-1
 797 0 l 2,40,41
 752 0 752 0 752 45 c 2,42,-1
 752 626 l 2,43,44
 752 822 752 822 703 879.5 c 128,-1,45
 654 937 654 937 552 937 c 256,46,47
 452 937 452 937 385 859.5 c 128,-1,48
 318 782 318 782 318 594 c 2,49,-1
 318 45 l 2,50,51
 318 0 318 0 273 0 c 2,52,-1
 187 0 l 2,0,1
EndSplineSet
EndChar

StartChar: afii10044
Encoding: 1066 1066 105
Width: 1720
Flags: W
HStem: 0 164<754 1296.39> 664 164<754 1296.39> 1270 164<36 562>
VStem: 562 192<164 664 828 1270> 1425 205<271.344 556.656>
LayerCount: 2
Fore
SplineSet
91 1270 m 6,9,10
 36 1270 36 1270 36 1315 c 6,11,-1
 36 1389 l 6,12,13
 36 1434 36 1434 91 1434 c 6,14,-1
 704 1434 l 6,15,16
 754 1434 754 1434 754 1379 c 2,17,-1
 754 828 l 1,18,-1
 1042 828 l 2,19,20
 1379 828 1379 828 1504.5 716 c 128,-1,21
 1630 604 1630 604 1630 414 c 256,22,23
 1630 224 1630 224 1504.5 112 c 128,-1,24
 1379 0 1379 0 1042 0 c 2,25,-1
 612 0 l 2,26,27
 562 0 562 0 562 55 c 2,28,-1
 562 1270 l 5,29,-1
 91 1270 l 6,9,10
754 164 m 1,0,-1
 1010 164 l 2,1,2
 1225 164 1225 164 1325 221.5 c 128,-1,3
 1425 279 1425 279 1425 414 c 256,4,5
 1425 549 1425 549 1325 606.5 c 128,-1,6
 1225 664 1225 664 1010 664 c 2,7,-1
 754 664 l 1,8,-1
 754 164 l 1,0,-1
EndSplineSet
EndChar

StartChar: afii10043
Encoding: 1065 1065 106
Width: 2116
Flags: W
HStem: -370 21G<1906 2032> 0 164<362 924 1116 1678 1870 1886> 1414 20G<195 337 949 1091 1703 1845>
VStem: 170 192<164 1433.79> 924 192<164 1433.79> 1678 192<164 1433.79> 1886 166<-370 0>
LayerCount: 2
Fore
SplineSet
220 0 m 2,0,1
 170 0 170 0 170 55 c 2,2,-1
 170 1379 l 2,3,4
 170 1434 170 1434 220 1434 c 2,5,-1
 312 1434 l 2,6,7
 362 1434 362 1434 362 1379 c 2,8,-1
 362 164 l 1,9,-1
 924 164 l 1,10,-1
 924 1379 l 2,11,12
 924 1434 924 1434 974 1434 c 2,13,-1
 1066 1434 l 2,14,15
 1116 1434 1116 1434 1116 1379 c 2,16,-1
 1116 164 l 1,17,-1
 1678 164 l 1,18,-1
 1678 1379 l 2,19,20
 1678 1434 1678 1434 1728 1434 c 2,21,-1
 1820 1434 l 2,22,23
 1870 1434 1870 1434 1870 1379 c 2,24,-1
 1870 164 l 1,25,-1
 2002 164 l 2,26,27
 2052 164 2052 164 2052 109 c 2,28,-1
 2052 -320 l 2,29,30
 2052 -370 2052 -370 2012 -370 c 2,31,-1
 1926 -370 l 2,32,33
 1886 -370 1886 -370 1886 -320 c 2,34,-1
 1886 0 l 1,35,-1
 220 0 l 2,0,1
EndSplineSet
EndChar

StartChar: afii10048
Encoding: 1070 1070 107
Width: 2020
Flags: W
HStem: -30 156<1043.59 1472.86> 0 21G<195 337> 664 164<362 589> 1308 156<1043.92 1472.86> 1414 20G<195 337>
VStem: 170 192<0.214844 664 828 1433.79> 589 204<422.862 664 828 1017.19> 1723 205<419.703 1015.91>
LayerCount: 2
Back
SplineSet
588 719 m 260,0,1
 588 1069 588 1069 760.5 1266.5 c 132,-1,2
 933 1464 933 1464 1258 1464 c 260,3,4
 1583 1464 1583 1464 1755.5 1265.5 c 132,-1,5
 1928 1067 1928 1067 1928 717 c 260,6,7
 1928 367 1928 367 1755.5 168.5 c 132,-1,8
 1583 -30 1583 -30 1258 -30 c 260,9,10
 933 -30 933 -30 760.5 169.5 c 132,-1,11
 588 369 588 369 588 719 c 260,0,1
793 719 m 260,12,13
 793 439 793 439 908 282.5 c 132,-1,14
 1023 126 1023 126 1258 126 c 260,15,16
 1493 126 1493 126 1608 282.5 c 132,-1,17
 1723 439 1723 439 1723 719 c 260,18,19
 1723 999 1723 999 1608 1153.5 c 132,-1,20
 1493 1308 1493 1308 1258 1308 c 260,21,22
 1023 1308 1023 1308 908 1153.5 c 132,-1,23
 793 999 793 999 793 719 c 260,12,13
704 664 m 1,24,-1
 362 664 l 1,25,-1
 362 55 l 2,26,27
 362 0 362 0 312 0 c 2,28,-1
 220 0 l 2,29,30
 170 0 170 0 170 55 c 2,31,-1
 170 1379 l 2,32,33
 170 1434 170 1434 220 1434 c 2,34,-1
 312 1434 l 2,35,36
 362 1434 362 1434 362 1379 c 2,37,-1
 362 828 l 1,38,-1
 704 828 l 1,39,-1
 704 664 l 1,24,-1
EndSplineSet
Fore
SplineSet
220 0 m 2,0,1
 170 0 170 0 170 55 c 2,2,-1
 170 1379 l 2,3,4
 170 1434 170 1434 220 1434 c 2,5,-1
 312 1434 l 2,6,7
 362 1434 362 1434 362 1379 c 2,8,-1
 362 828 l 1,9,-1
 591 828 l 1,10,11
 612 1096 612 1096 772.5 1280 c 128,-1,12
 933 1464 933 1464 1258 1464 c 256,13,14
 1583 1464 1583 1464 1755.5 1265.5 c 128,-1,15
 1928 1067 1928 1067 1928 717 c 256,16,17
 1928 367 1928 367 1755.5 168.5 c 128,-1,18
 1583 -30 1583 -30 1258 -30 c 256,19,20
 933 -30 933 -30 767.5 161.5 c 128,-1,21
 602 353 602 353 589 664 c 1,22,-1
 362 664 l 1,23,-1
 362 55 l 2,24,25
 362 0 362 0 312 0 c 2,26,-1
 220 0 l 2,0,1
793 717 m 256,27,28
 793 437 793 437 908 281.5 c 128,-1,29
 1023 126 1023 126 1258 126 c 256,30,31
 1493 126 1493 126 1608 281.5 c 128,-1,32
 1723 437 1723 437 1723 717 c 256,33,34
 1723 997 1723 997 1608 1152.5 c 128,-1,35
 1493 1308 1493 1308 1258 1308 c 256,36,37
 1023 1308 1023 1308 908 1152.5 c 128,-1,38
 793 997 793 997 793 717 c 256,27,28
EndSplineSet
EndChar

StartChar: M
Encoding: 77 77 108
Width: 1708
Flags: W
HStem: 0 21G<195 337 776 932 1371 1513> 1414 20G<195 452 1256 1513>
VStem: 170 192<0.214844 1184> 1346 192<0.214844 1184>
DStem2: 490 1374 364 1184 0.312164 -0.950028<141.173 1219.93> 932 477 975 61 0.312164 0.950028<-278.479 800.282>
LayerCount: 2
Fore
SplineSet
220 0 m 2,0,1
 170 0 170 0 170 55 c 2,2,-1
 170 1379 l 2,3,4
 170 1434 170 1434 220 1434 c 2,5,-1
 433 1434 l 2,6,7
 471 1434 471 1434 490 1374 c 2,8,-1
 776 477 l 2,9,10
 820 339 820 339 828 310.5 c 128,-1,11
 836 282 836 282 851 206 c 1,12,-1
 857 206 l 1,13,14
 872 282 872 282 880 310.5 c 128,-1,15
 888 339 888 339 932 477 c 2,16,-1
 1218 1374 l 2,17,18
 1237 1434 1237 1434 1275 1434 c 2,19,-1
 1488 1434 l 2,20,21
 1538 1434 1538 1434 1538 1379 c 2,22,-1
 1538 55 l 2,23,24
 1538 0 1538 0 1488 0 c 2,25,-1
 1396 0 l 2,26,27
 1346 0 1346 0 1346 55 c 2,28,-1
 1346 1104 l 2,29,30
 1346 1144 1346 1144 1348 1184 c 9,31,-1
 1344 1184 l 25,32,-1
 975 61 l 2,33,34
 955 0 955 0 909 0 c 2,35,-1
 799 0 l 2,36,37
 753 -0 753 -0 733 61 c 2,38,-1
 364 1184 l 25,39,-1
 360 1184 l 17,40,41
 362 1144 362 1144 362 1104 c 2,42,-1
 362 55 l 2,43,44
 362 0 362 0 312 0 c 2,45,-1
 220 0 l 2,0,1
EndSplineSet
EndChar

StartChar: Z
Encoding: 90 90 109
Width: 1216
Flags: W
HStem: 0 164<313 1151> 1270 164<97 881>
DStem2: 95 182 313 166 0.575547 0.817769<112.385 1340.48>
LayerCount: 2
Back
SplineSet
98 1362 m 1,0,-1
 97 1382 l 2,1,2
 97 1434 97 1434 140 1434 c 2,3,-1
 1091 1434 l 2,4,5
 1138 1434 1138 1434 1138 1409 c 1,6,7
 1142 1397 1142 1397 1142 1372 c 2,8,-1
 1142 1343 l 2,9,10
 1142 1325 1142 1325 1134 1310 c 128,-1,11
 1126 1295 1126 1295 1091 1247 c 2,12,-1
 319 164 l 1,13,-1
 1062 164 l 1,14,-1
 1103 162 l 1,15,-1
 1104 162 l 2,16,17
 1152 162 1152 162 1152 123 c 1,18,19
 1154 115 1154 115 1154 94 c 2,20,-1
 1154 59 l 2,21,22
 1154 44 1154 44 1151.5 33 c 128,-1,23
 1149 22 1149 22 1145.5 17 c 128,-1,24
 1142 12 1142 12 1137.5 8.5 c 0,25,26
 1131.71 4 1131.71 4 1128 4 c 2,27,28
 1117 0 1117 0 1095 0 c 2,29,-1
 126 0 l 2,30,31
 106 0 106 0 92.5 5 c 128,-1,32
 79 10 79 10 75 15 c 128,-1,33
 71 20 71 20 71 25 c 2,34,35
 67 37 67 37 67 63 c 2,36,-1
 66 88 l 2,37,38
 66 112 66 112 82 139 c 0,39,40
 91 154 91 154 188 290 c 2,41,-1
 245 369 l 1,42,-1
 890 1274 l 1,43,-1
 147 1274 l 2,44,45
 98 1274 98 1274 98 1315 c 2,46,-1
 98 1362 l 1,0,-1
EndSplineSet
Fore
SplineSet
120 0 m 2,0,1
 65 0 65 0 65 45 c 2,2,-1
 65 93 l 2,3,4
 65 141 65 141 95 182 c 2,5,-1
 881 1268 l 9,6,-1
 881 1272 l 25,7,8
 841 1270 841 1270 801 1270 c 2,9,-1
 152 1270 l 2,10,11
 97 1270 97 1270 97 1315 c 2,12,-1
 97 1389 l 2,13,14
 97 1434 97 1434 152 1434 c 2,15,-1
 1074 1434 l 2,16,17
 1129 1434 1129 1434 1129 1389 c 2,18,-1
 1129 1358 l 2,19,20
 1129 1325 1129 1325 1109 1297 c 2,21,-1
 313 166 l 9,22,-1
 313 162 l 17,23,24
 340 164 340 164 393 164 c 2,25,-1
 1096 164 l 2,26,27
 1151 164 1151 164 1151 119 c 2,28,-1
 1151 45 l 2,29,30
 1151 0 1151 0 1096 0 c 2,31,-1
 120 0 l 2,0,1
EndSplineSet
EndChar

StartChar: afii10026
Encoding: 1048 1048 110
Width: 1452
Flags: W
HStem: 0 21G<195 384 1115 1257> 1414 20G<195 337 1068 1257>
VStem: 170 192<260 1433.79> 1090 192<0.214844 1174>
DStem2: 364 260 448 50 0.494806 0.869003<0 1152.51>
LayerCount: 2
Back
SplineSet
229 1434 m 2,0,-1
 314 1434 l 2,1,2
 334 1434 334 1434 344 1423.5 c 128,-1,3
 354 1413 354 1413 355 1402.5 c 128,-1,4
 356 1392 356 1392 356 1368 c 2,5,-1
 356 258 l 2,6,7
 356 174 356 174 358 131 c 1,8,9
 363 151 363 151 378 188 c 128,-1,10
 393 225 393 225 418 275 c 2,11,-1
 462 363 l 1,12,-1
 509.5 454.5 l 2,13,14
 538 508 538 508 545 522 c 2,15,-1
 1001 1368 l 2,16,17
 1026 1413 1026 1413 1041.5 1423.5 c 128,-1,18
 1057 1434 1057 1434 1098 1434 c 2,19,-1
 1159 1434 l 1,20,-1
 1198 1435 l 1,21,-1
 1217 1434 l 2,22,23
 1245 1434 1245 1434 1253.5 1421 c 128,-1,24
 1262 1408 1262 1408 1262 1380 c 2,25,-1
 1262 48 l 2,26,27
 1262 17 1262 17 1246 8.5 c 128,-1,28
 1230 0 1230 0 1194 0 c 2,29,-1
 1145 0 l 2,30,31
 1118 0 1118 0 1106 4 c 1,32,33
 1081 4 1081 4 1081 66 c 2,34,-1
 1081 1178 l 2,35,36
 1081 1262 1081 1262 1079 1303 c 1,37,38
 1070 1264 1070 1264 1048.5 1218 c 128,-1,39
 1027 1172 1027 1172 895 911 c 2,40,-1
 502 182 l 1,41,-1
 476 135.5 l 1,42,-1
 438.5 67.5 l 2,43,44
 424.8 43.8093 424.8 43.8093 412 27 c 0,45,46
 405 17 405 17 400 14.5 c 128,-1,47
 395 12 395 12 388.5 7.5 c 128,-1,48
 382 3 382 3 374.5 2.5 c 128,-1,49
 367 2 367 2 359.5 1 c 128,-1,50
 352 0 352 0 340 0 c 2,51,-1
 221 0 l 2,52,53
 201 0 201 0 190 10 c 128,-1,54
 179 20 179 20 177.5 29 c 128,-1,55
 176 38 176 38 176 53 c 2,56,-1
 176 1386 l 2,57,58
 176 1416 176 1416 190.5 1425 c 128,-1,59
 205 1434 205 1434 229 1434 c 2,0,-1
EndSplineSet
Fore
SplineSet
220 0 m 2,0,1
 170 0 170 0 170 55 c 2,2,-1
 170 1379 l 2,3,4
 170 1434 170 1434 220 1434 c 2,5,-1
 312 1434 l 2,6,7
 362 1434 362 1434 362 1379 c 2,8,-1
 362 340 l 2,9,10
 362 300 362 300 360 260 c 25,11,-1
 364 260 l 17,12,-1
 1004 1384 l 2,13,14
 1032 1434 1032 1434 1104 1434 c 2,15,-1
 1232 1434 l 2,16,17
 1282 1434 1282 1434 1282 1379 c 2,18,-1
 1282 55 l 2,19,20
 1282 0 1282 0 1232 0 c 2,21,-1
 1140 0 l 2,22,23
 1090 0 1090 0 1090 55 c 2,24,-1
 1090 1094 l 2,25,26
 1090 1134 1090 1134 1092 1174 c 9,27,-1
 1088 1174 l 17,28,-1
 448 50 l 2,29,30
 420 0 420 0 348 0 c 2,31,-1
 220 0 l 2,0,1
EndSplineSet
EndChar

StartChar: afii10049
Encoding: 1071 1071 111
Width: 1373
Flags: W
HStem: 0 21G<105.5 279 1036 1178> 613 164<735.229 1011> 1270 164<459.875 1011>
VStem: 161 205<887.146 1189.44> 1011 192<0.214844 613 777 1270>
DStem2: 120 66 327 39 0.576057 0.817409<18.5442 708.502>
LayerCount: 2
Back
SplineSet
138 0 m 2,0,1
 72.0167 0 72.0167 0 120 66 c 2,2,-1
 381 425 l 6,3,4
 399.43 450.35 399.43 450.35 459.215 513.175 c 132,-1,6
 519 576 519 576 608 636 c 5,7,-1
 608 638 l 5,8,9
 423 657 423 657 292 751.5 c 128,-1,10
 161 846 161 846 161 1021 c 256,11,12
 161 1233 161 1233 290.5 1333.5 c 128,-1,13
 420 1434 420 1434 709 1434 c 2,14,-1
 1153 1434 l 2,15,16
 1203 1434 1203 1434 1203 1379 c 2,17,-1
 1203 55 l 2,18,19
 1203 0 1203 0 1153 0 c 2,20,-1
 1061 0 l 2,21,22
 1011 0 1011 0 1011 55 c 2,23,-1
 1011 613 l 1,24,-1
 926 613 l 6,25,26
 801 613 801 613 722.124 547.354 c 132,-1,28
 643.247 481.709 643.247 481.709 578 388 c 6,29,-1
 335 39 l 2,30,31
 307.845 0 307.845 0 265 0 c 2,32,-1
 138 0 l 2,0,1
366 1053 m 256,33,34
 366 888 366 888 471 832.5 c 128,-1,35
 576 777 576 777 771 777 c 2,36,-1
 1011 777 l 1,37,-1
 1011 1270 l 1,38,-1
 723 1270 l 2,39,40
 558 1270 558 1270 462 1226.5 c 128,-1,41
 366 1183 366 1183 366 1053 c 256,33,34
320 1028 m 2,0,1
 320 916.473 320 916.473 375.5 864 c 0,2,3
 403 838 403 838 434 821.5 c 128,-1,4
 465 805 465 805 511 797 c 128,-1,5
 557 789 557 789 595 786.5 c 128,-1,6
 633 784 633 784 685 784 c 2,7,-1
 1013 784 l 1,8,-1
 1013 1272 l 1,9,-1
 630 1272 l 2,10,11
 593 1270 593 1270 566.5 1268 c 128,-1,12
 540 1266 540 1266 505.5 1259.5 c 128,-1,13
 471 1253 471 1253 446.5 1243.5 c 128,-1,14
 422 1234 422 1234 396.5 1216.5 c 128,-1,15
 371 1199 371 1199 355.5 1176 c 128,-1,16
 340 1153 340 1153 330 1118.5 c 128,-1,17
 320 1084 320 1084 320 1041 c 2,18,-1
 320 1028 l 2,0,1
240 0 m 2,19,-1
 146 0 l 2,20,21
 120 0 120 0 107 2 c 1,22,23
 98 2 98 2 92 8 c 128,-1,24
 86 14 86 14 86 21 c 0,25,26
 86 36 86 36 107 57 c 2,27,-1
 585 639 l 1,28,29
 511 647 511 647 474 653 c 0,30,31
 381 674 381 674 312 714.5 c 128,-1,32
 243 755 243 755 208.5 797 c 128,-1,33
 174 839 174 839 153.5 891 c 128,-1,34
 133 943 133 943 129 974.5 c 128,-1,35
 125 1006 125 1006 125 1037 c 0,36,37
 125 1090 125 1090 137.5 1140 c 128,-1,38
 150 1190 150 1190 186.5 1245 c 128,-1,39
 223 1300 223 1300 280.5 1340.5 c 128,-1,40
 338 1381 338 1381 438 1407.5 c 128,-1,41
 538 1434 538 1434 667 1434 c 2,42,-1
 1168 1434 l 1,43,44
 1170 1433 1170 1433 1178.5 1429.5 c 128,-1,45
 1187 1426 1187 1426 1188.5 1424 c 128,-1,46
 1190 1422 1190 1422 1194.5 1415.5 c 128,-1,47
 1199 1409 1199 1409 1200 1398.5 c 128,-1,48
 1201 1388 1201 1388 1201 1372 c 2,49,-1
 1201 57 l 2,50,51
 1201 43 1201 43 1199.5 35 c 128,-1,52
 1198 27 1198 27 1193.5 18 c 0,53,54
 1184.5 0 1184.5 0 1149 0 c 2,55,-1
 1049 0 l 1,56,57
 1013 6 1013 6 1013 47 c 2,58,-1
 1013 637 l 1,59,-1
 769 637 l 1,60,61
 749 609 749 609 631.5 457.5 c 2,62,-1
 406 168 l 1,63,-1
 298 31 l 2,64,65
 284 14 284 14 272 7 c 128,-1,66
 260 0 260 0 240 0 c 2,19,-1
EndSplineSet
Fore
SplineSet
138 0 m 2,0,1
 73 0 73 0 120 66 c 2,2,-1
 373 425 l 2,3,4
 390 449 390 449 459.5 524.5 c 128,-1,5
 529 600 529 600 590 636 c 1,6,-1
 590 638 l 1,7,8
 421 658 421 658 291 752 c 128,-1,9
 161 846 161 846 161 1021 c 256,10,11
 161 1233 161 1233 290.5 1333.5 c 128,-1,12
 420 1434 420 1434 709 1434 c 2,13,-1
 1153 1434 l 2,14,15
 1203 1434 1203 1434 1203 1379 c 2,16,-1
 1203 55 l 2,17,18
 1203 0 1203 0 1153 0 c 2,19,-1
 1061 0 l 2,20,21
 1011 0 1011 0 1011 55 c 2,22,-1
 1011 613 l 1,23,-1
 910 613 l 2,24,25
 780 613 780 613 701.5 546 c 128,-1,26
 623 479 623 479 562 388 c 2,27,-1
 327 39 l 2,28,29
 301 0 301 0 257 0 c 2,30,-1
 138 0 l 2,0,1
366 1053 m 256,31,32
 366 888 366 888 471 832.5 c 128,-1,33
 576 777 576 777 771 777 c 2,34,-1
 1011 777 l 1,35,-1
 1011 1270 l 1,36,-1
 723 1270 l 2,37,38
 558 1270 558 1270 462 1226.5 c 128,-1,39
 366 1183 366 1183 366 1053 c 256,31,32
EndSplineSet
EndChar

StartChar: S
Encoding: 83 83 112
Width: 1224
Flags: W
LayerCount: 2
Fore
SplineSet
141 108 m 256,0,1
 88 156 88 156 113 192 c 2,2,-1
 165 267 l 2,3,4
 192 306 192 306 252 261 c 256,5,6
 331 202 331 202 416.5 164 c 128,-1,7
 502 126 502 126 624 126 c 256,8,9
 714 126 714 126 776 153 c 128,-1,10
 838 180 838 180 875.5 230.5 c 128,-1,11
 913 281 913 281 913 353 c 256,12,13
 913 405 913 405 897.5 449.5 c 128,-1,14
 882 494 882 494 848 524 c 128,-1,15
 814 554 814 554 777 571 c 256,16,17
 716 599 716 599 594.5 636 c 128,-1,18
 473 673 473 673 382 716 c 256,19,20
 292 759 292 759 238.5 820 c 128,-1,21
 185 881 185 881 167.5 945.5 c 128,-1,22
 150 1010 150 1010 150 1093 c 256,23,24
 150 1220 150 1220 224 1312 c 128,-1,25
 298 1404 298 1404 405.5 1434 c 128,-1,26
 513 1464 513 1464 624 1464 c 256,27,28
 751 1464 751 1464 845 1431 c 152,-1,29
 939 1398 939 1398 1013 1345 c 256,30,31
 1065 1308 1065 1308 1037 1267 c 26,32,-1
 986 1194 l 18,33,34
 963 1161 963 1161 896 1208 c 256,35,36
 845 1244 845 1244 771.5 1275.5 c 128,-1,37
 698 1307 698 1307 626 1307 c 256,38,39
 534 1307 534 1307 473 1285.5 c 128,-1,40
 412 1264 412 1264 377 1213 c 128,-1,41
 342 1162 342 1162 342 1095 c 256,42,43
 342 1053 342 1053 350 1017.5 c 128,-1,44
 358 982 358 982 391 945 c 128,-1,45
 424 908 424 908 471 888 c 256,46,47
 534 861 534 861 666.5 824.5 c 128,-1,48
 799 788 799 788 898 735 c 256,49,50
 990 686 990 686 1030.5 632.5 c 128,-1,51
 1071 579 1071 579 1093.5 516.5 c 128,-1,52
 1116 454 1116 454 1116 376 c 256,53,54
 1116 234 1116 234 1043 139 c 128,-1,55
 970 44 970 44 870 7 c 128,-1,56
 770 -30 770 -30 619 -30 c 256,57,58
 438 -30 438 -30 319 12 c 152,-1,59
 200 54 200 54 141 108 c 256,0,1
EndSplineSet
EndChar

StartChar: afii10025
Encoding: 1047 1047 113
Width: 1281
Flags: W
HStem: -30 156<402.042 840.125> 675 158<420 803.402> 1308 156<405.364 832.946>
VStem: 923 195<950.345 1226.72> 966 205<238.546 575.343>
LayerCount: 2
Fore
SplineSet
128 148 m 256,0,1
 86 198 86 198 112 223 c 2,2,-1
 184 292 l 2,3,4
 222 328 222 328 265 274 c 280,5,6
 273 264 273 264 362.5 195 c 128,-1,7
 452 126 452 126 607 126 c 256,8,9
 777 126 777 126 871.5 188.5 c 128,-1,10
 966 251 966 251 966 421 c 256,11,12
 966 556 966 556 879 615.5 c 128,-1,13
 792 675 792 675 655 675 c 2,14,-1
 475 675 l 2,15,16
 420 675 420 675 420 718 c 2,17,-1
 420 788 l 2,18,19
 420 833 420 833 475 833 c 2,20,-1
 609 833 l 2,21,22
 771 833 771 833 847 911.5 c 128,-1,23
 923 990 923 990 923 1092 c 256,24,25
 923 1206 923 1206 844 1257 c 128,-1,26
 765 1308 765 1308 611 1308 c 256,27,28
 509 1308 509 1308 417.5 1269 c 128,-1,29
 326 1230 326 1230 282 1182 c 256,30,31
 239 1135 239 1135 210 1167 c 2,32,-1
 145 1239 l 2,33,34
 113 1274 113 1274 168 1322 c 256,35,36
 250 1394 250 1394 370.5 1429 c 128,-1,37
 491 1464 491 1464 616 1464 c 256,38,39
 891 1464 891 1464 1004.5 1354.5 c 128,-1,40
 1118 1245 1118 1245 1118 1092 c 256,41,42
 1118 966 1118 966 1043.5 882.5 c 128,-1,43
 969 799 969 799 847 767 c 1,44,-1
 847 763 l 1,45,46
 975 751 975 751 1073 667.5 c 128,-1,47
 1171 584 1171 584 1171 397 c 256,48,49
 1171 189 1171 189 1020.5 79.5 c 128,-1,50
 870 -30 870 -30 600 -30 c 256,51,52
 415 -30 415 -30 293 33.5 c 128,-1,53
 171 97 171 97 128 148 c 256,0,1
EndSplineSet
EndChar

StartChar: afii10021
Encoding: 1044 1044 114
Width: 1522
Flags: W
HStem: -370 534<54.5981 216.792 1292.16 1457.4> 0 164<386 1088 1280 1292> 1270 164<576 1088>
VStem: 54 166<-370 0> 410 166<602.48 1270> 1088 192<164 1270> 1292 166<-370 0>
LayerCount: 2
Back
SplineSet
48 -23 m 256,0,1
 9 -10 9 -10 16 23 c 2,2,-1
 34 112 l 2,3,4
 42 153 42 153 86 135 c 256,5,6
 120 121 120 121 159 121 c 0,7,8
 320 121 320 121 365 384.5 c 128,-1,9
 410 648 410 648 410 1077 c 2,10,-1
 410 1379 l 2,11,12
 410 1434 410 1434 460 1434 c 2,13,-1
 1250 1434 l 2,14,15
 1300 1434 1300 1434 1300 1379 c 2,16,-1
 1300 55 l 2,17,18
 1300 0 1300 0 1250 0 c 2,19,-1
 1158 0 l 2,20,21
 1108 0 1108 0 1108 55 c 2,22,-1
 1108 1270 l 1,23,-1
 572 1270 l 1,24,-1
 572 1021 l 2,25,26
 572 390 572 390 480.5 177 c 128,-1,27
 389 -36 389 -36 182 -36 c 0,28,29
 88 -36 88 -36 48 -23 c 256,0,1
EndSplineSet
Fore
SplineSet
94 -370 m 2,0,1
 54 -370 54 -370 54 -320 c 2,2,-1
 54 109 l 2,3,4
 54 164 54 164 104 164 c 2,5,-1
 186 164 l 1,6,7
 357 369 357 369 383.5 618 c 128,-1,8
 410 867 410 867 410 1107 c 2,9,-1
 410 1379 l 2,10,11
 410 1434 410 1434 460 1434 c 2,12,-1
 1230 1434 l 2,13,14
 1280 1434 1280 1434 1280 1379 c 2,15,-1
 1280 164 l 1,16,-1
 1408 164 l 2,17,18
 1458 164 1458 164 1458 109 c 2,19,-1
 1458 -320 l 2,20,21
 1458 -370 1458 -370 1418 -370 c 2,22,-1
 1332 -370 l 2,23,24
 1292 -370 1292 -370 1292 -320 c 2,25,-1
 1292 0 l 1,26,-1
 220 0 l 1,27,-1
 220 -320 l 2,28,29
 220 -370 220 -370 180 -370 c 2,30,-1
 94 -370 l 2,0,1
386 164 m 1,31,-1
 1088 164 l 1,32,-1
 1088 1270 l 1,33,-1
 576 1270 l 1,34,-1
 576 1051 l 2,35,36
 576 597 576 597 511.5 408 c 128,-1,37
 447 219 447 219 386 164 c 1,31,-1
EndSplineSet
EndChar

StartChar: afii10047
Encoding: 1069 1069 115
Width: 1406
Flags: W
HStem: -30 156<411.753 867.554> 668 164<382 1105> 1308 156<413.01 857.261>
VStem: 1109 205<396.743 668 832 1022.92>
LayerCount: 2
Back
SplineSet
1314 719 m 256,0,1
 1314 1069 1314 1069 1140.5 1266.5 c 128,-1,2
 967 1464 967 1464 642 1464 c 256,3,4
 452 1464 452 1464 328 1399.5 c 128,-1,5
 204 1335 204 1335 150 1223 c 256,6,7
 122 1165 122 1165 159 1143 c 258,8,-1
 238 1097 l 258,9,10
 278 1074 278 1074 309 1135 c 256,11,12
 342 1198 342 1198 417 1253 c 128,-1,13
 492 1308 492 1308 632 1308 c 256,14,15
 882 1308 882 1308 995.5 1152.5 c 128,-1,16
 1109 997 1109 997 1109 717 c 256,17,18
 1109 437 1109 437 995.5 281.5 c 128,-1,19
 882 126 882 126 632 126 c 256,20,21
 488 126 488 126 401.5 192 c 152,-1,22
 315 258 315 258 276 330 c 256,23,24
 245 388 245 388 204 365 c 258,25,-1
 121 318 l 258,26,27
 85 297 85 297 115 238 c 256,28,29
 174 123 174 123 307 46.5 c 152,-1,30
 440 -30 440 -30 642 -30 c 256,31,32
 967 -30 967 -30 1140.5 169.5 c 128,-1,33
 1314 369 1314 369 1314 719 c 256,0,1
1150 832 m 1,0,-1
 1150 668 l 1,1,-1
 437 668 l 2,2,3
 382 668 382 668 382 713 c 2,4,5
 382 787 l 2,6,7
 382 832 382 832 437 832 c 2,8,-1
 1150 832 l 1,0,-1
EndSplineSet
Fore
SplineSet
125 172 m 256,0,1
 81 223 81 223 113 248 c 258,2,-1
 190 310 l 258,3,4
 223 337 223 337 266 286 c 256,5,6
 329 212 329 212 413 169 c 128,-1,7
 497 126 497 126 632 126 c 256,8,9
 877 126 877 126 988.5 258.5 c 128,-1,10
 1100 391 1100 391 1109 668 c 257,11,-1
 437 668 l 2,12,13
 382 668 382 668 382 713 c 2,14,-1
 382 787 l 2,15,16
 382 832 382 832 437 832 c 2,17,-1
 1105 832 l 257,18,19
 1087 1051 1087 1051 976 1179.5 c 128,-1,20
 865 1308 865 1308 620 1308 c 256,21,22
 511 1308 511 1308 422 1267.5 c 128,-1,23
 333 1227 333 1227 291 1170 c 256,24,25
 254 1119 254 1119 222 1147 c 258,26,-1
 153 1206 l 258,27,28
 119 1236 119 1236 165 1291 c 256,29,30
 228 1365 228 1365 345.5 1414.5 c 128,-1,31
 463 1464 463 1464 642 1464 c 256,32,33
 967 1464 967 1464 1140.5 1282.5 c 128,-1,34
 1314 1101 1314 1101 1314 719 c 256,35,36
 1314 339 1314 339 1140.5 154.5 c 128,-1,37
 967 -30 967 -30 642 -30 c 256,38,39
 449 -30 449 -30 323.5 28.5 c 128,-1,40
 198 87 198 87 125 172 c 256,0,1
EndSplineSet
EndChar

StartChar: afii10037
Encoding: 1059 1059 120
Width: 1346
Flags: W
HStem: -30 157<228.109 560.191> 1414 20G<62.5 218.5 1137 1292.5>
DStem2: 612 716 66 1368 0.461404 -0.88719<-832.349 296.109> 828 732 855 331 0.388335 0.921518<-302.226 778.898>
LayerCount: 2
Back
SplineSet
393 0 m 2,0,1
 364.295 -0.565479 364.295 -0.565479 348 4 c 1,2,3
 337 10 337 10 332 33 c 1,4,-1
 332 113 l 2,5,6
 332 143 332 143 339.5 152.5 c 128,-1,7
 347 162 347 162 373 162 c 0,8,9
 399 164 399 164 453 164 c 2,10,-1
 485 164 l 2,11,12
 561 164 561 164 596.5 180 c 128,-1,13
 632 196 632 196 662 238 c 1,14,-1
 662 240 l 1,15,16
 660 243 660 243 498 549 c 2,17,-1
 76 1346 l 2,18,19
 47 1401 47 1401 47 1411 c 0,20,21
 47 1434 47 1434 76 1434 c 2,22,-1
 94 1435 l 1,23,-1
 129 1434 l 1,24,-1
 178 1434 l 2,25,26
 189 1434 189 1434 196.5 1433 c 128,-1,27
 204 1432 204 1432 211 1431.5 c 128,-1,28
 218 1431 218 1431 224 1427 c 128,-1,29
 230 1423 230 1423 234.5 1420.5 c 128,-1,30
 239 1418 239 1418 245 1409.5 c 128,-1,31
 251 1401 251 1401 255 1396 c 128,-1,32
 259 1391 259 1391 266.5 1376.5 c 2,33,-1
 279 1353 l 1,34,-1
 313 1286 l 1,35,-1
 610 709 l 2,36,37
 731 463 731 463 750 371 c 1,38,39
 757 429 757 429 864 721 c 2,40,-1
 1130 1386 l 2,41,42
 1144 1417 1144 1417 1156.5 1425.5 c 128,-1,43
 1169 1434 1169 1434 1200 1434 c 2,44,-1
 1315 1434 l 1,45,46
 1337 1429 1337 1429 1337 1407 c 0,47,48
 1337 1398 1337 1398 1282 1264 c 2,49,-1
 1206 1079 l 1,50,-1
 944 434 l 2,51,52
 875 268 875 268 825 192 c 0,53,54
 713 21 713 21 553 4 c 0,55,56
 520 0 520 0 451 0 c 2,57,-1
 393 0 l 2,0,1
EndSplineSet
Fore
SplineSet
66 1368 m 22,0,1
 32 1434 32 1434 93 1434 c 2,2,-1
 195 1434 l 2,3,4
 242 1434 242 1434 267 1385 c 10,5,-1
 612 716 l 2,6,7
 643 655 643 655 675.5 584 c 128,-1,8
 708 513 708 513 730 441 c 1,9,-1
 734 441 l 1,10,11
 750 519 750 519 774.5 590 c 128,-1,12
 799 661 799 661 828 732 c 2,13,-1
 1091 1385 l 18,14,15
 1111 1434 1111 1434 1163 1434 c 2,16,-1
 1265 1434 l 2,17,18
 1320 1434 1320 1434 1292 1368 c 10,19,-1
 855 331 l 2,20,21
 779 150 779 150 695 60 c 128,-1,22
 611 -30 611 -30 436 -30 c 256,23,24
 306 -30 306 -30 228 15 c 256,25,26
 193 35 193 35 205 66 c 2,27,-1
 238 150 l 2,28,29
 254 190 254 190 293 164 c 256,30,31
 348 127 348 127 413 127 c 256,32,33
 494 127 494 127 536.5 153.5 c 128,-1,34
 579 180 579 180 606 224 c 2,35,-1
 636 272 l 9,36,-1
 66 1368 l 22,0,1
EndSplineSet
EndChar

StartChar: cyrBreve
Encoding: 63185 63185 122
Width: 1452
Flags: MW
HStem: 1548 136<553.424 898.576>
VStem: 340 178<1783 1866.81> 934 178<1783 1866.81>
LayerCount: 2
Fore
SplineSet
340 1819 m 2,0,1
 336 1867 336 1867 388 1867 c 2,2,-1
 469 1867 l 2,3,4
 511 1867 511 1867 518 1819 c 2,5,-1
 523 1783 l 2,6,7
 529 1736 529 1736 582.5 1710 c 128,-1,8
 636 1684 636 1684 726 1684 c 256,9,10
 816 1684 816 1684 869.5 1710 c 128,-1,11
 923 1736 923 1736 929 1783 c 2,12,-1
 934 1819 l 2,13,14
 941 1867 941 1867 983 1867 c 2,15,-1
 1064 1867 l 2,16,17
 1116 1867 1116 1867 1112 1819 c 2,18,-1
 1106 1749 l 2,19,20
 1098 1660 1098 1660 984.5 1604 c 128,-1,21
 871 1548 871 1548 726 1548 c 256,22,23
 581 1548 581 1548 467.5 1604 c 128,-1,24
 354 1660 354 1660 346 1749 c 2,25,-1
 340 1819 l 2,0,1
EndSplineSet
EndChar

StartChar: dieresis
Encoding: 168 168 123
Width: 614
Flags: W
HStem: 1240 176<16 192 422 598>
VStem: 16 176<1240 1416> 422 176<1240 1416>
LayerCount: 2
Fore
SplineSet
61 1240 m 2,0,1
 16 1240 16 1240 16 1285 c 2,2,-1
 16 1371 l 2,3,4
 16 1416 16 1416 61 1416 c 2,5,-1
 147 1416 l 2,6,7
 192 1416 192 1416 192 1371 c 2,8,-1
 192 1285 l 2,9,10
 192 1240 192 1240 147 1240 c 2,11,-1
 61 1240 l 2,0,1
467 1240 m 2,12,13
 422 1240 422 1240 422 1285 c 2,14,-1
 422 1371 l 2,15,16
 422 1416 422 1416 467 1416 c 2,17,-1
 553 1416 l 2,18,19
 598 1416 598 1416 598 1371 c 2,20,-1
 598 1285 l 2,21,22
 598 1240 598 1240 553 1240 c 2,23,-1
 467 1240 l 2,12,13
EndSplineSet
EndChar

StartChar: dieresis.cap
Encoding: 63179 63179 125
Width: 820
Flags: W
HStem: 1550 182<80 262 558 740>
VStem: 80 182<1550 1732> 558 182<1550 1732>
LayerCount: 2
Fore
SplineSet
125 1550 m 2,0,1
 80 1550 80 1550 80 1595 c 2,2,-1
 80 1687 l 2,3,4
 80 1732 80 1732 125 1732 c 2,5,-1
 217 1732 l 2,6,7
 262 1732 262 1732 262 1687 c 2,8,-1
 262 1595 l 2,9,10
 262 1550 262 1550 217 1550 c 2,11,-1
 125 1550 l 2,0,1
603 1550 m 2,12,13
 558 1550 558 1550 558 1595 c 2,14,-1
 558 1687 l 2,15,16
 558 1732 558 1732 603 1732 c 2,17,-1
 695 1732 l 2,18,19
 740 1732 740 1732 740 1687 c 2,20,-1
 740 1595 l 2,21,22
 740 1550 740 1550 695 1550 c 2,23,-1
 603 1550 l 2,12,13
EndSplineSet
EndChar

StartChar: r
Encoding: 114 114 129
Width: 722
Flags: W
HStem: 0 21G<164.5 295.5> 937 130<453.92 689.422> 1030 20G<164.5 293.5>
VStem: 142 176<4.5e-07 777.845 885 1049.96>
LayerCount: 2
Back
SplineSet
747 874.5 m 128,-1,0
 682 927 682 927 582 927 c 256,1,2
 452 927 452 927 385 849.5 c 128,-1,3
 318 772 318 772 318 584 c 2,4,-1
 318 45 l 2,5,6
 318 0 318 0 273 0 c 2,7,-1
 187 0 l 2,8,9
 142 0 142 0 142 45 c 2,10,-1
 142 995 l 2,11,12
 142 1040 142 1040 187 1040 c 2,13,-1
 271 1040 l 2,14,15
 316 1040 316 1040 316 995 c 2,16,-1
 316 915 l 1,17,-1
 320 915 l 1,18,19
 385 987 385 987 460 1022 c 128,-1,20
 535 1057 535 1057 647 1057 c 256,21,22
 829 1057 829 1057 908.5 954.5 c 128,-1,15
677 1005 m 6,0,-1
 676 967 l 5,1,-1
 676 946 l 6,2,3
 676 930 676 930 669 921.5 c 132,-1,4
 662 913 662 913 654.5 911 c 132,-1,5
 647 909 647 909 631 907 c 6,6,-1
 618 907 l 6,7,8
 547 897 547 897 488.5 852.5 c 132,-1,9
 430 808 430 808 394 745 c 132,-1,10
 358 682 358 682 338.5 612 c 132,-1,11
 319 542 319 542 319 475 c 4,12,13
 317 444 317 444 317 381 c 6,14,-1
 317 50 l 6,15,16
 317 36 317 36 316 29 c 132,-1,17
 315 22 315 22 309.5 14 c 132,-1,18
 304 6.00001 304 6.00001 292.5 3 c 132,-1,19
 281 6.19888e-06 281 6.19888e-06 262 0 c 6,20,-1
 203 0 l 6,21,22
 162 0 162 0 151.5 12 c 132,-1,23
 141 24 141 24 141 61 c 6,24,-1
 141 985 l 6,25,26
 141 1021 141 1021 153.5 1031 c 132,-1,27
 166 1041 166 1041 197 1041 c 6,28,-1
 223 1040 l 5,29,-1
 272 1040 l 6,30,31
 290 1040 290 1040 299.5 1029.5 c 132,-1,32
 309 1019 309 1019 311 1007.5 c 132,-1,33
 313 996 313 996 313 975 c 6,34,-1
 312 913 l 6,35,36
 312 908 312 908 312.5 898 c 132,-1,37
 313 888 313 888 313 883 c 5,38,39
 372 960 372 960 458.5 1008.5 c 132,-1,40
 545 1057 545 1057 629 1057 c 6,41,42
 632 1058 632 1058 641 1058 c 4,43,44
 676 1058 676 1058 676 1024 c 5,45,46
 677 1018 677 1018 677 1005 c 6,0,-1
EndSplineSet
Fore
SplineSet
187 0 m 2,0,1
 142 0 142 0 142 45 c 2,2,-1
 142 1005 l 2,3,4
 142 1050 142 1050 187 1050 c 2,5,-1
 271 1050 l 2,6,7
 316 1050 316 1050 316 1005 c 2,8,-1
 316 885 l 1,9,-1
 320 885 l 1,10,11
 368 975 368 975 433 1021 c 128,-1,12
 498 1067 498 1067 595 1067 c 256,13,14
 659 1067 659 1067 685 1056 c 256,15,16
 707.901 1047.04 707.901 1047.04 702 1026 c 2,17,-1
 679 944 l 2,18,19
 673.954 926.009 673.954 926.009 653 930 c 256,20,21
 618 937 618 937 587 937 c 256,22,23
 470 937 470 937 394 831.5 c 128,-1,24
 318 726 318 726 318 544 c 2,25,-1
 318 45 l 2,26,27
 318 0 318 0 273 0 c 2,28,-1
 187 0 l 2,0,1
EndSplineSet
EndChar

StartChar: F
Encoding: 70 70 130
Width: 1166
Flags: W
HStem: 0 21G<195 337> 632 164<362 1004> 1270 164<362 1090>
VStem: 170 192<0.214844 632 796 1270>
LayerCount: 2
Fore
SplineSet
220 0 m 2,0,1
 170 0 170 0 170 55 c 2,2,-1
 170 1379 l 2,3,4
 170 1434 170 1434 220 1434 c 2,5,-1
 1035 1434 l 2,6,7
 1090 1434 1090 1434 1090 1389 c 2,8,-1
 1090 1315 l 2,9,10
 1090 1270 1090 1270 1035 1270 c 2,11,-1
 362 1270 l 9,12,-1
 362 796 l 1,13,-1
 949 796 l 2,14,15
 1004 796 1004 796 1004 751 c 2,16,-1
 1004 677 l 2,17,18
 1004 632 1004 632 949 632 c 2,19,-1
 362 632 l 1,20,-1
 362 55 l 2,21,22
 362 0 362 0 312 0 c 2,23,-1
 220 0 l 2,0,1
EndSplineSet
EndChar

StartChar: w
Encoding: 119 119 133
Width: 1444
Flags: MW
HStem: 0 21G<328 486 958 1116> 1030 20G<52 195 659.5 784.5 1249 1392>
DStem2: 390.5 260 293 61 0.255101 -0.966914<-641.245 93.2188> 432.5 253 521 61 0.254525 0.967066<-84.7947 672.231> 812 1011 753 722 0.254525 -0.967066<111.583 868.609> 1033 169 1151 61 0.255101 0.966914<0 748.001>
LayerCount: 2
Fore
SplineSet
45 1001 m 2,0,1
 32 1050 32 1050 72 1050 c 2,2,-1
 177 1050 l 2,3,4
 213 1050 213 1050 222 1011 c 2,5,-1
 369 351 l 2,6,7
 376 322 376 322 390.5 260 c 128,-1,8
 405 198 405 198 411 169 c 1,9,-1
 415 169 l 1,10,11
 420 197 420 197 432.5 253 c 152,-1,12
 445 309 445 309 456 351 c 2,13,-1
 632 1011 l 2,14,15
 642 1050 642 1050 677 1050 c 2,16,-1
 767 1050 l 2,17,18
 802 1050 802 1050 812 1011 c 2,19,-1
 988 351 l 2,20,21
 999 309 999 309 1011.5 253 c 152,-1,22
 1024 197 1024 197 1029 169 c 1,23,-1
 1033 169 l 1,24,25
 1039 198 1039 198 1053.5 260 c 128,-1,26
 1068 322 1068 322 1075 351 c 2,27,-1
 1222 1011 l 2,28,29
 1231 1050 1231 1050 1267 1050 c 2,30,-1
 1372 1050 l 2,31,32
 1412 1050 1412 1050 1399 1001 c 2,33,-1
 1151 61 l 2,34,35
 1135 0 1135 0 1097 0 c 2,36,-1
 977 0 l 2,37,38
 939 -0 939 -0 923 61 c 2,39,-1
 753 722 l 2,40,41
 735 792 735 792 730.5 820 c 128,-1,42
 726 848 726 848 723 873 c 1,43,-1
 721 873 l 1,44,45
 718 848 718 848 713.5 820 c 128,-1,46
 709 792 709 792 691 722 c 2,47,-1
 521 61 l 2,48,49
 505 0 505 0 467 0 c 2,50,-1
 347 0 l 2,51,52
 309 -0 309 -0 293 61 c 2,53,-1
 45 1001 l 2,0,1
EndSplineSet
EndChar

StartChar: L
Encoding: 76 76 134
Width: 1136
Flags: W
HStem: 0 164<362 1080> 1414 20G<195 337>
VStem: 170 192<164 1433.79>
LayerCount: 2
Fore
SplineSet
220 0 m 2,0,1
 170 0 170 0 170 55 c 2,2,-1
 170 1379 l 2,3,4
 170 1434 170 1434 220 1434 c 2,5,-1
 312 1434 l 2,6,7
 362 1434 362 1434 362 1379 c 2,8,-1
 362 164 l 17,9,-1
 1025 164 l 2,10,11
 1080 164 1080 164 1080 119 c 2,12,-1
 1080 45 l 2,13,14
 1080 0 1080 0 1025 0 c 2,15,-1
 220 0 l 2,0,1
EndSplineSet
EndChar

StartChar: D
Encoding: 68 68 135
Width: 1436
Flags: W
HStem: 0 164<362 880.806> 1272 162<362 880.806>
VStem: 170 192<164 1272> 1139 205<430.652 1006.93>
LayerCount: 2
Fore
SplineSet
220 0 m 2,0,1
 170 0 170 0 170 55 c 2,2,-1
 170 1379 l 2,3,4
 170 1434 170 1434 220 1434 c 2,5,-1
 589 1434 l 2,6,7
 1013 1434 1013 1434 1178.5 1246.5 c 128,-1,8
 1344 1059 1344 1059 1344 719 c 256,9,10
 1344 379 1344 379 1178.5 189.5 c 128,-1,11
 1013 0 1013 0 589 0 c 10,12,-1
 220 0 l 2,0,1
362 164 m 1,13,-1
 580 164 l 2,14,15
 910 164 910 164 1024.5 304 c 128,-1,16
 1139 444 1139 444 1139 719 c 256,17,18
 1139 994 1139 994 1024.5 1133 c 128,-1,19
 910 1272 910 1272 580 1272 c 2,20,-1
 362 1272 l 1,21,-1
 362 164 l 1,13,-1
EndSplineSet
EndChar

StartChar: exclam
Encoding: 33 33 136
Width: 600
Flags: W
HStem: 0 212<199 401> 1414 20G<223 377>
VStem: 199 202<0 212 749.541 1433.88> 219 162<390 1079.44>
LayerCount: 2
Fore
SplineSet
198 1379 m 2,0,1
 198 1434 198 1434 248 1434 c 2,2,-1
 352 1434 l 2,3,4
 402 1434 402 1434 402 1379 c 2,5,-1
 381 435 l 2,6,7
 381 390 381 390 336 390 c 2,8,-1
 264 390 l 2,9,10
 219 390 219 390 219 435 c 2,11,-1
 198 1379 l 2,0,1
244 0 m 2,12,13
 199 0 199 0 199 45 c 2,14,-1
 199 167 l 2,15,16
 199 212 199 212 244 212 c 2,17,-1
 356 212 l 2,18,19
 401 212 401 212 401 167 c 2,20,-1
 401 45 l 2,21,22
 401 0 401 0 356 0 c 2,23,-1
 244 0 l 2,12,13
EndSplineSet
EndChar

StartChar: one
Encoding: 49 49 137
Width: 827
Flags: W
HStem: 0 21G<473.5 604.5> 1420 20G<482.5 604>
VStem: 451 176<0 1201>
LayerCount: 2
Fore
SplineSet
161 1151 m 2,0,1
 148 1183 148 1183 185 1197 c 256,2,3
 262 1226 262 1226 331 1290 c 128,-1,4
 400 1354 400 1354 440 1404 c 256,5,6
 469 1440 469 1440 496 1440 c 2,7,-1
 581 1440 l 2,8,9
 627 1440 627 1440 627 1395 c 2,10,-1
 627 45 l 2,11,12
 627 0 627 0 582 0 c 2,13,-1
 496 0 l 2,14,15
 451 0 451 0 451 45 c 2,16,-1
 451 1141 l 2,17,18
 451 1171 451 1171 453 1201 c 1,19,-1
 451 1201 l 1,20,21
 420 1162 420 1162 360 1121 c 128,-1,22
 300 1080 300 1080 250 1061 c 256,23,24
 206 1044 206 1044 192 1077 c 258,25,-1
 161 1151 l 2,0,1
EndSplineSet
EndChar

StartChar: one.tab
Encoding: 65536 -1 138
Width: 1110
Flags: W
HStem: 0 130<209 479 655 925> 1420 20G<510.5 632>
VStem: 479 176<130 1201>
LayerCount: 2
Back
SplineSet
184 1151 m 2,0,1
 171 1183 171 1183 208 1197 c 256,2,3
 285 1226 285 1226 354 1290 c 128,-1,4
 423 1354 423 1354 463 1404 c 256,5,6
 492 1440 492 1440 519 1440 c 2,7,-1
 604 1440 l 2,8,9
 650 1440 650 1440 650 1395 c 2,10,-1
 650 45 l 2,11,12
 650 0 650 0 605 0 c 2,13,-1
 519 0 l 2,14,15
 474 0 474 0 474 45 c 2,16,-1
 474 1141 l 2,17,18
 474 1171 474 1171 476 1201 c 1,19,-1
 474 1201 l 1,20,21
 443 1162 443 1162 383 1121 c 128,-1,22
 323 1080 323 1080 273 1061 c 256,23,24
 229 1044 229 1044 215 1077 c 258,25,-1
 184 1151 l 2,0,1
248 0 m 2,26,27
 204 0 204 0 204 35 c 2,28,-1
 204 95 l 2,29,30
 204 130 204 130 249 130 c 2,31,-1
 875 130 l 2,32,33
 920 130 920 130 920 95 c 2,34,-1
 920 35 l 2,35,36
 920 0 920 0 876 0 c 2,37,-1
 248 0 l 2,26,27
EndSplineSet
Fore
SplineSet
189 1151 m 258,0,1
 176 1183 176 1183 213 1197 c 256,2,3
 290 1226 290 1226 358.5 1289.5 c 128,-1,4
 427 1353 427 1353 468 1404 c 256,5,6
 497 1440 497 1440 524 1440 c 2,7,-1
 609 1440 l 2,8,9
 655 1440 655 1440 655 1395 c 2,10,-1
 655 130 l 1,11,-1
 880 130 l 2,12,13
 925 130 925 130 925 95 c 2,14,-1
 925 35 l 2,15,16
 925 0 925 0 881 0 c 2,17,-1
 253 0 l 2,18,19
 209 0 209 0 209 35 c 2,20,-1
 209 95 l 2,21,22
 209 130 209 130 254 130 c 2,23,-1
 479 130 l 1,24,-1
 479 1141 l 2,25,26
 479 1171 479 1171 481 1201 c 1,27,-1
 479 1201 l 1,28,29
 448 1162 448 1162 388.5 1121 c 128,-1,30
 329 1080 329 1080 278 1061 c 256,31,32
 234 1044 234 1044 220 1077 c 258,33,-1
 189 1151 l 258,0,1
EndSplineSet
EndChar

StartChar: U
Encoding: 85 85 139
Width: 1402
Flags: W
HStem: -30 156<495.466 906.534> 1414 20G<195 337 1065 1207>
VStem: 170 192<269.811 1433.79> 1040 192<269.811 1433.79>
LayerCount: 2
Fore
SplineSet
170 547 m 2,0,-1
 170 1379 l 2,1,2
 170 1434 170 1434 220 1434 c 2,3,-1
 312 1434 l 2,4,5
 362 1434 362 1434 362 1379 c 2,6,-1
 362 577 l 2,7,8
 362 297 362 297 441.5 211.5 c 128,-1,9
 521 126 521 126 701 126 c 256,10,11
 881 126 881 126 960.5 211.5 c 128,-1,12
 1040 297 1040 297 1040 577 c 2,13,-1
 1040 1379 l 2,14,15
 1040 1434 1040 1434 1090 1434 c 2,16,-1
 1182 1434 l 2,17,18
 1232 1434 1232 1434 1232 1379 c 2,19,-1
 1232 547 l 2,20,21
 1232 230 1232 230 1086.5 100 c 128,-1,22
 941 -30 941 -30 701 -30 c 256,23,24
 461 -30 461 -30 315.5 100 c 128,-1,25
 170 230 170 230 170 547 c 2,0,-1
EndSplineSet
EndChar

StartChar: N
Encoding: 78 78 140
Width: 1438
Flags: W
HStem: 0 21G<195 337 1095 1243> 1414 20G<195 383 1101 1243>
VStem: 170 192<0.214844 1163> 1076 192<335 1433.79>
DStem2: 448 1384 364 1163 0.513475 -0.858105<146.509 1221.59>
LayerCount: 2
Back
SplineSet
376 1144 m 2,6,-1
 1002 95 l 9,7,-1
448 1384 m 2,6,-1
 1074 335 l 9,7,-1
EndSplineSet
Fore
SplineSet
220 0 m 2,0,1
 170 0 170 0 170 55 c 2,2,-1
 170 1379 l 2,3,4
 170 1434 170 1434 220 1434 c 2,5,-1
 348 1434 l 2,6,7
 418 1434 418 1434 448 1384 c 2,8,-1
 1074 335 l 9,9,-1
 1078 335 l 17,10,11
 1076 375 1076 375 1076 415 c 2,12,-1
 1076 1379 l 2,13,14
 1076 1434 1076 1434 1126 1434 c 2,15,-1
 1218 1434 l 2,16,17
 1268 1434 1268 1434 1268 1379 c 2,18,-1
 1268 55 l 2,19,20
 1268 0 1268 0 1218 0 c 2,21,-1
 1130 0 l 2,22,23
 1060 -0 1060 -0 1030 50 c 2,24,-1
 364 1163 l 9,25,-1
 360 1163 l 25,26,27
 362 1123 362 1123 362 1083 c 2,28,-1
 362 55 l 2,29,30
 362 0 362 0 312 0 c 2,31,-1
 220 0 l 2,0,1
EndSplineSet
EndChar

StartChar: G
Encoding: 71 71 141
Width: 1470
Flags: W
HStem: -30 156<559.038 1057.12> 510 164<806 1158> 1308 156<561.587 979.938>
VStem: 92 205<422.073 1004.35> 1158 192<202.11 510>
LayerCount: 2
Back
SplineSet
92 719 m 256,0,1
 92 1069 92 1069 265.5 1266.5 c 128,-1,2
 439 1464 439 1464 764 1464 c 256,3,4
 954 1464 954 1464 1078 1399.5 c 128,-1,5
 1202 1335 1202 1335 1256 1223 c 256,6,7
 1284 1165 1284 1165 1247 1143 c 258,8,-1
 1168 1097 l 258,9,10
 1128 1074 1128 1074 1097 1135 c 256,11,12
 1064 1198 1064 1198 989 1253 c 128,-1,13
 914 1308 914 1308 774 1308 c 256,14,15
 524 1308 524 1308 410.5 1152.5 c 128,-1,16
 297 997 297 997 297 717 c 256,17,18
 297 437 297 437 410.5 281.5 c 128,-1,19
 524 126 524 126 774 126 c 256,20,21
 918 126 918 126 1004.5 192 c 152,-1,22
 1091 258 1091 258 1130 330 c 256,23,24
 1161 388 1161 388 1202 365 c 258,25,-1
 1285 318 l 258,26,27
 1321 297 1321 297 1291 238 c 256,28,29
 1232 123 1232 123 1099 46.5 c 152,-1,30
 966 -30 966 -30 764 -30 c 256,31,32
 439 -30 439 -30 265.5 169.5 c 128,-1,33
 92 369 92 369 92 719 c 256,0,1
EndSplineSet
Fore
SplineSet
92 717 m 256,0,1
 92 1067 92 1067 273 1265.5 c 128,-1,2
 454 1464 454 1464 776 1464 c 256,3,4
 969 1464 969 1464 1091 1397.5 c 128,-1,5
 1213 1331 1213 1331 1270 1241 c 256,6,7
 1305 1185 1305 1185 1269 1160 c 2,8,-1
 1194 1108 l 2,9,10
 1157 1082 1157 1082 1120 1139 c 256,11,12
 1090 1184 1090 1184 1007 1246 c 128,-1,13
 924 1308 924 1308 786 1308 c 256,14,15
 541 1308 541 1308 419 1152.5 c 128,-1,16
 297 997 297 997 297 717 c 256,17,18
 297 437 297 437 416 281.5 c 128,-1,19
 535 126 535 126 796 126 c 256,20,21
 926 126 926 126 1022.5 157.5 c 152,-1,22
 1119 189 1119 189 1158 245 c 9,23,-1
 1158 510 l 1,24,-1
 861 510 l 2,25,26
 806 510 806 510 806 555 c 2,27,-1
 806 629 l 2,28,29
 806 674 806 674 861 674 c 2,30,-1
 1295 674 l 2,31,32
 1350 674 1350 674 1350 629 c 2,33,-1
 1350 157 l 17,34,35
 1228 68 1228 68 1106 19 c 152,-1,36
 984 -30 984 -30 786 -30 c 256,37,38
 456 -30 456 -30 274 168.5 c 128,-1,39
 92 367 92 367 92 717 c 256,0,1
EndSplineSet
EndChar

StartChar: J
Encoding: 74 74 142
Width: 824
Flags: W
HStem: -30 156<158.253 419.071> 1414 20G<487 629>
VStem: 462 192<167.271 1433.79>
LayerCount: 2
Fore
SplineSet
67 29 m 256,0,1
 21 54 21 54 39 94 c 2,2,-1
 72 165 l 2,3,4
 94 213 94 213 145 179 c 256,5,6
 226 126 226 126 307 126 c 256,7,8
 404 126 404 126 433 191.5 c 128,-1,9
 462 257 462 257 462 378 c 2,10,-1
 462 1379 l 2,11,12
 462 1434 462 1434 512 1434 c 2,13,-1
 604 1434 l 2,14,15
 654 1434 654 1434 654 1379 c 2,16,-1
 654 401 l 2,17,18
 654 203 654 203 592 86.5 c 128,-1,19
 530 -30 530 -30 302 -30 c 256,20,21
 177 -30 177 -30 67 29 c 256,0,1
EndSplineSet
EndChar

StartChar: K
Encoding: 75 75 143
Width: 1328
Flags: W
HStem: 0 21G<195 337 1106 1281> 1414 20G<195 337 1086 1264.5>
VStem: 170 192<0.214844 471 711 1433.79>
DStem2: 364 711 601 714 0.699904 0.714237<0 168.02 357.544 1055.42> 733 850 601 714 0.563664 -0.826004<37.933 932.272>
LayerCount: 2
Back
SplineSet
1068 26 m 10,29,-1
 515 839 l 25,30,-1
1268 66 m 10,29,-1
 715 879 l 25,30,-1
1030 1393 m 2,5,-1
 155 499 l 1,6,-1
1241 1368 m 2,5,-1
 366 474 l 1,6,-1
EndSplineSet
Fore
SplineSet
220 0 m 2,0,1
 170 0 170 0 170 55 c 2,2,-1
 170 1379 l 2,3,4
 170 1434 170 1434 220 1434 c 2,5,-1
 312 1434 l 2,6,7
 362 1434 362 1434 362 1379 c 2,8,-1
 362 791 l 2,9,10
 362 751 362 751 360 711 c 1,11,-1
 364 711 l 1,12,-1
 1032 1395 l 2,13,14
 1070 1434 1070 1434 1102 1434 c 2,15,-1
 1223 1434 l 2,16,17
 1306 1434 1306 1434 1241 1368 c 2,18,-1
 733 850 l 1,19,-1
 1268 66 l 2,20,21
 1312 0 1312 0 1250 0 c 2,22,-1
 1128 0 l 2,23,24
 1084 0 1084 0 1058 39 c 2,25,-1
 601 714 l 1,26,-1
 362 471 l 1,27,-1
 362 55 l 2,28,29
 362 0 362 0 312 0 c 2,30,-1
 220 0 l 2,0,1
EndSplineSet
EndChar

StartChar: Q
Encoding: 81 81 144
Width: 1524
Flags: MW
HStem: -377 140<955.712 1265.78> -26 152<551.062 679.851 867 977.82> 1308 156<547.141 976.859>
VStem: 92 205<420.648 1016.8> 1227 205<419.648 1015.91>
LayerCount: 2
Back
SplineSet
92 719 m 260,0,1
 92 1069 92 1069 264.5 1266.5 c 132,-1,2
 437 1464 437 1464 762 1464 c 260,3,4
 1087 1464 1087 1464 1259.5 1265.5 c 132,-1,5
 1432 1067 1432 1067 1432 717 c 260,6,7
 1432 367 1432 367 1259.5 168.5 c 132,-1,8
 1087 -30 1087 -30 762 -30 c 260,9,10
 437 -30 437 -30 264.5 169.5 c 132,-1,11
 92 369 92 369 92 719 c 260,0,1
297 719 m 260,12,13
 297 439 297 439 412 282.5 c 132,-1,14
 527 126 527 126 762 126 c 260,15,16
 997 126 997 126 1112 282.5 c 132,-1,17
 1227 439 1227 439 1227 719 c 260,18,19
 1227 999 1227 999 1112 1153.5 c 132,-1,20
 997 1308 997 1308 762 1308 c 260,21,22
 527 1308 527 1308 412 1153.5 c 132,-1,23
 297 999 297 999 297 719 c 260,12,13
EndSplineSet
Fore
SplineSet
92 719 m 256,0,1
 92 1069 92 1069 264.5 1266.5 c 128,-1,2
 437 1464 437 1464 762 1464 c 256,3,4
 1087 1464 1087 1464 1259.5 1265.5 c 128,-1,5
 1432 1067 1432 1067 1432 717 c 256,6,7
 1432 367 1432 367 1260 168 c 1,8,9
 1116 3 1116 3 867 -24 c 1,10,11
 877 -121 877 -121 939 -179 c 128,-1,12
 1001 -237 1001 -237 1116 -237 c 0,13,14
 1178 -237 1178 -237 1217 -227 c 256,15,16
 1256 -217 1256 -217 1261 -238 c 2,17,-1
 1281 -326 l 2,18,19
 1286 -350 1286 -350 1256 -357 c 0,20,21
 1167 -377 1167 -377 1084 -377 c 0,22,23
 869 -377 869 -377 776.5 -269.5 c 128,-1,24
 684 -162 684 -162 675 -26 c 1,25,26
 413 -2 413 -2 264 170 c 0,27,28
 92 369 92 369 92 719 c 256,0,1
297 717 m 256,29,30
 297 437 297 437 412 281.5 c 128,-1,31
 527 126 527 126 762 126 c 256,32,33
 997 126 997 126 1112 281.5 c 128,-1,34
 1227 437 1227 437 1227 717 c 256,35,36
 1227 997 1227 997 1112 1152.5 c 128,-1,37
 997 1308 997 1308 762 1308 c 256,38,39
 527 1308 527 1308 412 1152.5 c 128,-1,40
 297 997 297 997 297 717 c 256,29,30
EndSplineSet
EndChar

StartChar: R
Encoding: 82 82 145
Width: 1394
Flags: W
HStem: 0 21G<195 337 1128.5 1295.5> 621 164<362 703.373> 1270 164<362 956.983>
VStem: 170 192<0.214844 621 785 1270> 1056 195<888.768 1186.61>
DStem2: 1058 433 874 396 0.524356 -0.851499<-253.38 427.329>
LayerCount: 2
Back
SplineSet
728 784 m 2,0,1
 784 784 784 784 828 789 c 128,-1,2
 872 794 872 794 917 809.5 c 128,-1,3
 962 825 962 825 991.5 851 c 128,-1,4
 1021 877 1021 877 1040 922 c 128,-1,5
 1059 967 1059 967 1059 1028 c 0,6,7
 1059 1138 1059 1138 999 1198 c 0,8,9
 950 1260 950 1260 741 1272 c 2,10,-1
 367 1272 l 1,11,-1
 367 784 l 1,12,-1
 728 784 l 2,0,1
300 -1 m 1,13,-1
 250 0 l 1,14,-1
 231 0 l 2,15,16
 211 0 211 0 203 4 c 2,17,18
 200.5 4 200.5 4 195.25 7.5 c 128,-1,19
 190 11 190 11 186.5 15.5 c 128,-1,20
 183 20 183 20 180.5 30 c 128,-1,21
 178 40 178 40 178 53 c 2,22,-1
 178 1372 l 2,23,24
 178 1396 178 1396 183.5 1410.5 c 128,-1,25
 189 1425 189 1425 195 1428.5 c 128,-1,26
 201 1432 201 1432 207 1432 c 2,27,28
 213 1434 213 1434 225 1434 c 2,29,-1
 713 1434 l 2,30,31
 851 1430 851 1430 943.5 1408 c 128,-1,32
 1036 1386 1036 1386 1120 1321 c 0,33,34
 1183 1270 1183 1270 1218 1193 c 128,-1,35
 1253 1116 1253 1116 1253 1032 c 0,36,37
 1253 998 1253 998 1247.5 964 c 128,-1,38
 1242 930 1242 930 1220 881 c 128,-1,39
 1198 832 1198 832 1161 793 c 128,-1,40
 1124 754 1124 754 1053.5 718 c 128,-1,41
 983 682 983 682 889 666 c 1,42,-1
 1202 174 l 2,43,44
 1268 69 1268 69 1279.5 49.5 c 128,-1,45
 1291 30 1291 30 1291 20.5 c 128,-1,46
 1291 11 1291 11 1283.5 6.5 c 128,-1,47
 1276 2 1276 2 1270 2 c 1,48,49
 1257 0 1257 0 1231 0 c 2,50,-1
 1169 0 l 2,51,52
 1149.33 0 1149.33 0 1133 3.5 c 0,53,54
 1126 5 1126 5 1119.5 11 c 2,55,-1
 1108.5 21 l 2,56,57
 1104 25 1104 25 1095.5 38 c 2,58,-1
 1080.5 60.5 l 2,59,60
 1074 70 1074 70 1060.5 92.5 c 2,61,-1
 1036 133 l 1,62,-1
 711 651 l 1,63,-1
 367 651 l 1,64,-1
 367 45 l 2,65,66
 367 -1 367 -1 302 -1 c 2,67,-1
 300 -1 l 1,13,-1
EndSplineSet
Fore
SplineSet
220 0 m 2,0,1
 170 0 170 0 170 55 c 2,2,-1
 170 1379 l 2,3,4
 170 1434 170 1434 220 1434 c 2,5,-1
 703 1434 l 2,6,7
 992 1434 992 1434 1121.5 1326 c 128,-1,8
 1251 1218 1251 1218 1251 1041 c 256,9,10
 1251 885 1251 885 1146.5 779 c 128,-1,11
 1042 673 1042 673 849 657 c 1,12,-1
 849 655 l 1,13,14
 951 579 951 579 984 539.5 c 128,-1,15
 1017 500 1017 500 1058 433 c 2,16,-1
 1284 66 l 2,17,18
 1325 0 1325 0 1266 0 c 2,19,-1
 1152 0 l 2,20,21
 1105 0 1105 0 1082 39 c 2,22,-1
 874 396 l 2,23,24
 829 473 829 473 745 547 c 128,-1,25
 661 621 661 621 536 621 c 2,26,-1
 362 621 l 1,27,-1
 362 55 l 2,28,29
 362 0 362 0 312 0 c 2,30,-1
 220 0 l 2,0,1
362 785 m 1,31,-1
 651 785 l 2,32,33
 846 785 846 785 951 836.5 c 128,-1,34
 1056 888 1056 888 1056 1053 c 256,35,36
 1056 1179 1056 1179 960 1224.5 c 128,-1,37
 864 1270 864 1270 699 1270 c 2,38,-1
 362 1270 l 1,39,-1
 362 785 l 1,31,-1
EndSplineSet
EndChar

StartChar: Y
Encoding: 89 89 146
Width: 1302
Flags: MW
HStem: 0 21G<580 722> 1414 20G<46 215 1087 1256>
VStem: 555 192<0.214844 590>
DStem2: 265 1385 54 1368 0.541413 -0.840757<-86.8111 631.237> 783 948 747 590 0.541413 0.840757<-69.7618 606.9>
LayerCount: 2
Fore
SplineSet
54 1368 m 22,0,1
 11 1434 11 1434 81 1434 c 6,2,-1
 193 1434 l 6,3,4
 237 1434 237 1434 265 1385 c 14,5,-1
 519 948 l 6,6,7
 561 876 561 876 591 822.5 c 132,-1,8
 621 769 621 769 649 709 c 5,9,-1
 653 709 l 5,10,11
 681 769 681 769 711 822.5 c 132,-1,12
 741 876 741 876 783 948 c 6,13,-1
 1037 1385 l 22,14,15
 1065 1434 1065 1434 1109 1434 c 6,16,-1
 1221 1434 l 6,17,18
 1291 1434 1291 1434 1248 1368 c 14,19,-1
 747 590 l 5,20,-1
 747 55 l 2,21,22
 747 0 747 0 697 0 c 2,23,-1
 605 0 l 2,24,25
 555 0 555 0 555 55 c 2,26,-1
 555 590 l 5,27,-1
 54 1368 l 22,0,1
EndSplineSet
EndChar

StartChar: W
Encoding: 87 87 147
Width: 1888
Flags: W
HStem: 0 21G<439 616 1272 1449> 1414 20G<53 212 849.5 1038.5 1676 1835>
VStem: 48 191<1326.22 1434> 1649 191<1326.22 1434>
DStem2: 462 427 392 77 0.256364 -0.96658<-685.853 261.406> 552.5 290 662 84 0.243725 0.969844<-119.199 1033.39> 1077 1380 959 1162.5 0.230756 -0.973012<88.8376 1237.63> 1364 173 1496 77 0.256364 0.96658<0 990.516>
LayerCount: 2
Fore
SplineSet
48 1374 m 2,0,1
 32 1434 32 1434 74 1434 c 2,2,-1
 196 1434 l 2,3,4
 228 1434 228 1434 239 1388 c 2,5,-1
 462 427 l 2,6,7
 476 369 476 369 493.5 301 c 128,-1,8
 511 233 511 233 524 173 c 1,9,-1
 529 173 l 1,10,11
 539 232 539 232 552.5 290 c 152,-1,12
 566 348 566 348 583 426 c 2,13,-1
 811 1380 l 2,14,15
 824 1434 824 1434 875 1434 c 2,16,-1
 1013 1434 l 2,17,18
 1064 1434 1064 1434 1077 1380 c 2,19,-1
 1305 426 l 2,20,21
 1322 348 1322 348 1335.5 290 c 152,-1,22
 1349 232 1349 232 1359 173 c 1,23,-1
 1364 173 l 1,24,25
 1377 233 1377 233 1394.5 301 c 128,-1,26
 1412 369 1412 369 1426 427 c 2,27,-1
 1649 1388 l 2,28,29
 1660 1434 1660 1434 1692 1434 c 2,30,-1
 1814 1434 l 2,31,32
 1856 1434 1856 1434 1840 1374 c 2,33,-1
 1496 77 l 2,34,35
 1476 0 1476 0 1422 0 c 2,36,-1
 1297 0 l 2,37,38
 1247 -0 1247 -0 1226 84 c 2,39,-1
 985 1043 l 2,40,41
 967 1116 967 1116 959 1162.5 c 128,-1,42
 951 1209 951 1209 945 1259 c 1,43,-1
 943 1259 l 1,44,45
 937 1209 937 1209 929 1162.5 c 128,-1,46
 921 1116 921 1116 903 1043 c 2,47,-1
 662 84 l 2,48,49
 641 0 641 0 591 0 c 2,50,-1
 466 0 l 2,51,52
 412 -0 412 -0 392 77 c 2,53,-1
 48 1374 l 2,0,1
EndSplineSet
EndChar

StartChar: three
Encoding: 51 51 148
Width: 1110
Flags: W
HStem: -30 150<349.464 703.046> 696 142<387 655.649> 1302 150<361.578 691.411>
VStem: 770 188<948.922 1229.08> 818 196<236.923 583.258>
LayerCount: 2
Fore
SplineSet
109 148 m 256,0,1
 69 194 69 194 93 223 c 2,2,-1
 145 286 l 2,3,4
 179 327 179 327 226 268 c 256,5,6
 278 203 278 203 354.5 161.5 c 128,-1,7
 431 120 431 120 515 120 c 256,8,9
 680 120 680 120 749 202 c 128,-1,10
 818 284 818 284 818 421 c 256,11,12
 818 566 818 566 726 631 c 128,-1,13
 634 696 634 696 520 696 c 2,14,-1
 432 696 l 2,15,16
 387 696 387 696 387 729 c 2,17,-1
 387 803 l 2,18,19
 387 838 387 838 432 838 c 2,20,-1
 503 838 l 2,21,22
 613 838 613 838 691.5 910 c 128,-1,23
 770 982 770 982 770 1106 c 256,24,25
 770 1192 770 1192 707 1247 c 128,-1,26
 644 1302 644 1302 530 1302 c 256,27,28
 423 1302 423 1302 355 1253 c 128,-1,29
 287 1204 287 1204 259 1168 c 256,30,31
 222 1120 222 1120 187 1153 c 2,32,-1
 128 1210 l 2,33,34
 102 1235 102 1235 151 1293 c 256,35,36
 203 1354 203 1354 300.5 1403 c 128,-1,37
 398 1452 398 1452 533 1452 c 256,38,39
 740 1452 740 1452 849 1352 c 128,-1,40
 958 1252 958 1252 958 1093 c 256,41,42
 958 967 958 967 880.5 882.5 c 128,-1,43
 803 798 803 798 711 778 c 1,44,-1
 711 774 l 1,45,46
 818 759 818 759 916 658 c 128,-1,47
 1014 557 1014 557 1014 417 c 256,48,49
 1014 209 1014 209 893.5 89.5 c 128,-1,50
 773 -30 773 -30 511 -30 c 256,51,52
 359 -30 359 -30 260 29.5 c 128,-1,53
 161 89 161 89 109 148 c 256,0,1
EndSplineSet
EndChar

StartChar: two
Encoding: 50 50 149
Width: 1110
Flags: W
HStem: 0 164<334 1014> 1302 150<387.903 710.423>
VStem: 109 152<1025.21 1170> 802 196<849.288 1206.33>
DStem2: 127 165 334 166 0.704406 0.709797<146.522 956.581>
LayerCount: 2
Fore
SplineSet
149 0 m 2,0,1
 94 0 94 0 94 45 c 2,2,-1
 94 93 l 2,3,4
 94 132 94 132 127 165 c 2,5,-1
 519 560 l 2,6,7
 693 735 693 735 747.5 830.5 c 128,-1,8
 802 926 802 926 802 1051 c 256,9,10
 802 1156 802 1156 740.5 1229 c 128,-1,11
 679 1302 679 1302 554 1302 c 256,12,13
 442 1302 442 1302 368 1245 c 128,-1,14
 294 1188 294 1188 261 1054 c 256,15,16
 247 997 247 997 202 1010 c 2,17,-1
 124 1033 l 258,18,19
 93 1042 93 1042 109 1118 c 256,20,21
 138 1249 138 1249 249.5 1350.5 c 128,-1,22
 361 1452 361 1452 546 1452 c 256,23,24
 781 1452 781 1452 889.5 1334 c 128,-1,25
 998 1216 998 1216 998 1045 c 256,26,27
 998 878 998 878 908.5 757 c 128,-1,28
 819 636 819 636 663 485 c 2,29,-1
 334 166 l 9,30,-1
 334 162 l 17,31,32
 361 164 361 164 414 164 c 2,33,-1
 959 164 l 2,34,35
 1014 164 1014 164 1014 119 c 2,36,-1
 1014 45 l 2,37,38
 1014 0 1014 0 959 0 c 2,39,-1
 149 0 l 2,0,1
EndSplineSet
EndChar

StartChar: minus
Encoding: 8722 8722 150
Width: 1280
Flags: W
HStem: 665 120<80 1200>
LayerCount: 2
Fore
SplineSet
125 665 m 2,0,1
 80 665 80 665 80 700 c 2,2,-1
 80 750 l 2,3,4
 80 785 80 785 125 785 c 2,5,-1
 1155 785 l 2,6,7
 1200 785 1200 785 1200 750 c 2,8,-1
 1200 700 l 2,9,10
 1200 665 1200 665 1155 665 c 2,11,-1
 125 665 l 2,0,1
EndSplineSet
EndChar

StartChar: five
Encoding: 53 53 151
Width: 1110
Flags: W
HStem: -30 150<359.675 684.998> 736 150<388.305 708.879> 1258 164<328 932>
VStem: 152 176<803 1258> 806 196<250.895 629.864>
LayerCount: 2
Fore
SplineSet
114 163 m 256,0,1
 76 213 76 213 105 239 c 258,2,-1
 167 294 l 258,3,4
 201 324 201 324 246 269 c 256,5,6
 273 236 273 236 341 178 c 128,-1,7
 409 120 409 120 518 120 c 256,8,9
 661 120 661 120 733.5 208 c 128,-1,10
 806 296 806 296 806 441 c 256,11,12
 806 578 806 578 744 657 c 128,-1,13
 682 736 682 736 558 736 c 256,14,15
 481 736 481 736 430 721 c 128,-1,16
 379 706 379 706 324 658 c 256,17,18
 286 625 286 625 244 625 c 2,19,-1
 197 625 l 2,20,21
 152 625 152 625 152 670 c 2,22,-1
 152 1377 l 2,23,24
 152 1422 152 1422 197 1422 c 2,25,-1
 887 1422 l 2,26,27
 932 1422 932 1422 932 1377 c 2,28,-1
 932 1303 l 2,29,30
 932 1258 932 1258 887 1258 c 2,31,-1
 328 1258 l 1,32,-1
 328 863 l 2,33,34
 328 833 328 833 326 803 c 1,35,-1
 330 803 l 1,36,37
 386 850 386 850 461 868 c 128,-1,38
 536 886 536 886 600 886 c 256,39,40
 786 886 786 886 894 762 c 128,-1,41
 1002 638 1002 638 1002 437 c 256,42,43
 1002 218 1002 218 872.5 94 c 128,-1,44
 743 -30 743 -30 520 -30 c 256,45,46
 357 -30 357 -30 257.5 37.5 c 128,-1,47
 158 105 158 105 114 163 c 256,0,1
EndSplineSet
EndChar

StartChar: quotesingle
Encoding: 39 39 152
Width: 478
Flags: MW
HStem: 824 645<172.289 305.711>
VStem: 151 176<1041.95 1469>
LayerCount: 2
Back
SplineSet
253 816 m 2,20,-1
 219 815 l 2,21,22
 203 815 203 815 193.5 818 c 128,-1,23
 184 821 184 821 179.5 828.5 c 128,-1,24
 175 836 175 836 174 843 c 128,-1,25
 173 850 173 850 173 862 c 2,26,-1
 173 875 l 1,27,-1
 150 1420 l 2,28,29
 150 1453 150 1453 159 1461 c 0,30,31
 169 1469 169 1469 192 1469 c 2,32,-1
 287 1469 l 2,33,34
 311 1469 311 1469 320 1460.5 c 128,-1,35
 329 1452 329 1452 329 1430 c 2,36,-1
 328 1414 l 1,37,-1
 306 867 l 2,38,39
 306 834 306 834 295.5 825 c 128,-1,40
 285 816 285 816 253 816 c 2,20,-1
EndSplineSet
Fore
SplineSet
151 1414 m 2,0,1
 149 1469 149 1469 187 1469 c 2,2,-1
 291 1469 l 2,3,4
 329 1469 329 1469 327 1414 c 2,5,-1
 306 869 l 2,6,7
 304 824 304 824 271 824 c 2,8,-1
 207 824 l 2,9,10
 174 824 174 824 172 869 c 2,11,-1
 151 1414 l 2,0,1
EndSplineSet
EndChar

StartChar: underscore
Encoding: 95 95 154
Width: 1100
Flags: W
HStem: -390 130<-24 1124>
LayerCount: 2
Fore
SplineSet
21 -390 m 2,0,1
 -24 -390 -24 -390 -24 -355 c 2,2,-1
 -24 -295 l 2,3,4
 -24 -260 -24 -260 21 -260 c 2,5,-1
 1079 -260 l 2,6,7
 1124 -260 1124 -260 1124 -295 c 2,8,-1
 1124 -355 l 2,9,10
 1124 -390 1124 -390 1079 -390 c 2,11,-1
 21 -390 l 2,0,1
EndSplineSet
EndChar

StartChar: parenleft
Encoding: 40 40 155
Width: 670
Flags: W
VStem: 124 196<175.33 912.67>
LayerCount: 2
Back
SplineSet
124 544 m 256,0,1
 124 852 124 852 228 1084 c 128,-1,2
 332 1316 332 1316 491 1493 c 256,3,4
 527 1533 527 1533 553 1515 c 258,5,-1
 602 1481 l 258,6,7
 634 1459 634 1459 600 1422 c 256,8,9
 510 1326 510 1326 415 1101 c 128,-1,10
 320 876 320 876 320 544 c 256,11,12
 320 212 320 212 415 -13 c 128,-1,13
 510 -238 510 -238 600 -334 c 256,14,15
 634 -371 634 -371 602 -393 c 258,16,-1
 553 -427 l 258,17,18
 527 -445 527 -445 491 -405 c 256,19,20
 332 -228 332 -228 228 4 c 128,-1,21
 124 236 124 236 124 544 c 256,0,1
EndSplineSet
Fore
SplineSet
124 544 m 256,0,1
 124 852 124 852 228 1084 c 128,-1,2
 332 1316 332 1316 491 1493 c 256,3,4
 529 1536 529 1536 559 1513 c 258,5,-1
 594 1486 l 258,6,7
 625 1462 625 1462 592 1427 c 256,8,9
 502 1331 502 1331 411 1103.5 c 128,-1,10
 320 876 320 876 320 544 c 256,11,12
 320 212 320 212 411 -15.5 c 128,-1,13
 502 -243 502 -243 592 -339 c 256,14,15
 625 -374 625 -374 594 -398 c 258,16,-1
 559 -425 l 258,17,18
 529 -448 529 -448 491 -405 c 256,19,20
 332 -228 332 -228 228 4 c 128,-1,21
 124 236 124 236 124 544 c 256,0,1
EndSplineSet
EndChar

StartChar: parenright
Encoding: 41 41 156
Width: 670
Flags: W
VStem: 350 196<175.33 912.67>
LayerCount: 2
Fore
SplineSet
76 -398 m 258,0,1
 45 -374 45 -374 78 -339 c 256,2,3
 168 -243 168 -243 259 -15.5 c 128,-1,4
 350 212 350 212 350 544 c 256,5,6
 350 876 350 876 259 1103.5 c 128,-1,7
 168 1331 168 1331 78 1427 c 256,8,9
 45 1462 45 1462 76 1486 c 258,10,-1
 111 1513 l 258,11,12
 141 1536 141 1536 179 1493 c 256,13,14
 338 1316 338 1316 442 1084 c 128,-1,15
 546 852 546 852 546 544 c 256,16,17
 546 236 546 236 442 4 c 128,-1,18
 338 -228 338 -228 179 -405 c 256,19,20
 141 -448 141 -448 111 -425 c 258,21,-1
 76 -398 l 258,0,1
EndSplineSet
EndChar

StartChar: uni2116
Encoding: 8470 8470 157
Width: 2005
Flags: W
HStem: 0 130<1354 1878> 247 100<1518.65 1713.35> 839 100<1518.65 1713.35> 1414 20G<195 370.5 1021 1163>
VStem: 170 192<0.214844 1130> 996 192<365 1433.79> 1327 144<395.073 790.927> 1761 144<395.073 790.927>
DStem2: 434 1384 364 1130 0.481919 -0.876216<188.825 1162.74>
LayerCount: 2
Back
SplineSet
423 1023 m 2,8,-1
 983 4 l 9,9,-1
434 1384 m 2,8,-1
 994 365 l 9,9,-1
EndSplineSet
Fore
SplineSet
220 0 m 2,0,1
 170 0 170 0 170 55 c 2,2,-1
 170 1379 l 2,3,4
 170 1434 170 1434 220 1434 c 2,5,-1
 334 1434 l 2,6,7
 407 1434 407 1434 434 1384 c 2,8,-1
 994 365 l 9,9,-1
 998 365 l 17,10,11
 996 405 996 405 996 445 c 2,12,-1
 996 1379 l 2,13,14
 996 1434 996 1434 1046 1434 c 2,15,-1
 1138 1434 l 2,16,17
 1188 1434 1188 1434 1188 1379 c 2,18,-1
 1188 55 l 2,19,20
 1188 0 1188 0 1138 0 c 2,21,-1
 1058 0 l 2,22,23
 986 0 986 0 958 50 c 2,24,-1
 364 1130 l 9,25,-1
 360 1130 l 25,26,27
 362 1090 362 1090 362 1050 c 2,28,-1
 362 55 l 2,29,30
 362 0 362 0 312 0 c 2,31,-1
 220 0 l 2,0,1
1327 593 m 256,32,33
 1327 773 1327 773 1404 856 c 128,-1,34
 1481 939 1481 939 1616 939 c 256,35,36
 1751 939 1751 939 1828 856 c 128,-1,37
 1905 773 1905 773 1905 593 c 256,38,39
 1905 413 1905 413 1828 330 c 128,-1,40
 1751 247 1751 247 1616 247 c 256,41,42
 1481 247 1481 247 1404 330 c 128,-1,43
 1327 413 1327 413 1327 593 c 256,32,33
1471 593 m 256,44,45
 1471 473 1471 473 1506 410 c 128,-1,46
 1541 347 1541 347 1616 347 c 256,47,48
 1691 347 1691 347 1726 410 c 128,-1,49
 1761 473 1761 473 1761 593 c 256,50,51
 1761 713 1761 713 1726 776 c 128,-1,52
 1691 839 1691 839 1616 839 c 256,53,54
 1541 839 1541 839 1506 776 c 128,-1,55
 1471 713 1471 713 1471 593 c 256,44,45
1399 0 m 2,56,57
 1354 0 1354 0 1354 35 c 2,58,-1
 1354 95 l 2,59,60
 1354 130 1354 130 1399 130 c 2,61,-1
 1833 130 l 2,62,63
 1878 130 1878 130 1878 95 c 2,64,-1
 1878 35 l 2,65,66
 1878 0 1878 0 1833 0 c 2,67,-1
 1399 0 l 2,56,57
EndSplineSet
EndChar

StartChar: eight
Encoding: 56 56 158
Width: 1110
Flags: W
HStem: -30 150<391.088 718.759> 684 162<402.951 706.791> 1302 150<392.869 717.131>
VStem: 92 195<225.22 561.813> 127 188<935.769 1220.01> 795 188<935.656 1220.01> 822 196<225.22 561.813>
LayerCount: 2
Fore
SplineSet
92 410 m 256,0,1
 92 550 92 550 179 648.5 c 128,-1,2
 266 747 266 747 351 768 c 1,3,-1
 351 771 l 1,4,5
 259 800 259 800 193 879 c 128,-1,6
 127 958 127 958 127 1088 c 256,7,8
 127 1253 127 1253 246 1352.5 c 128,-1,9
 365 1452 365 1452 555 1452 c 256,10,11
 745 1452 745 1452 864 1352.5 c 128,-1,12
 983 1253 983 1253 983 1088 c 256,13,14
 983 958 983 958 913 878.5 c 128,-1,15
 843 799 843 799 751 770 c 1,16,-1
 751 768 l 1,17,18
 836 747 836 747 927 648.5 c 128,-1,19
 1018 550 1018 550 1018 410 c 256,20,21
 1018 210 1018 210 906.5 90 c 128,-1,22
 795 -30 795 -30 555 -30 c 256,23,24
 315 -30 315 -30 203.5 90 c 128,-1,25
 92 210 92 210 92 410 c 256,0,1
287 406 m 256,26,27
 287 266 287 266 356 193 c 128,-1,28
 425 120 425 120 555 120 c 256,29,30
 685 120 685 120 753.5 193 c 128,-1,31
 822 266 822 266 822 406 c 256,32,33
 822 516 822 516 751 600 c 128,-1,34
 680 684 680 684 555 684 c 256,35,36
 430 684 430 684 358.5 600 c 128,-1,37
 287 516 287 516 287 406 c 256,26,27
315 1088 m 256,38,39
 315 988 315 988 372.5 917 c 128,-1,40
 430 846 430 846 555 846 c 256,41,42
 680 846 680 846 737.5 917 c 128,-1,43
 795 988 795 988 795 1088 c 256,44,45
 795 1168 795 1168 740 1235 c 128,-1,46
 685 1302 685 1302 555 1302 c 256,47,48
 425 1302 425 1302 370 1235 c 128,-1,49
 315 1168 315 1168 315 1088 c 256,38,39
EndSplineSet
EndChar

StartChar: guilsinglleft
Encoding: 8249 8249 159
Width: 682
Flags: W
DStem2: 121 563 259 540 0.648215 0.761457<71.9401 544.484> 259 540 121 517 0.648215 -0.761457<0 472.544>
LayerCount: 2
Fore
SplineSet
121 517 m 2,0,1
 102 540 102 540 121 563 c 2,2,-1
 453 953 l 2,3,4
 475 979 475 979 496 961 c 2,5,-1
 544 918 l 2,6,7
 563 901 563 901 541 874 c 2,8,-1
 259 540 l 1,9,-1
 541 206 l 2,10,11
 563 179 563 179 544 162 c 2,12,-1
 496 119 l 2,13,14
 475 101 475 101 453 127 c 2,15,-1
 121 517 l 2,0,1
EndSplineSet
EndChar

StartChar: guilsinglright
Encoding: 8250 8250 161
Width: 682
Flags: W
DStem2: 423 540 561 563 0.648215 -0.761457<-472.544 0> 561 517 423 540 0.648215 0.761457<-544.484 -71.9401>
LayerCount: 2
Fore
SplineSet
138 162 m 2,0,1
 119 179 119 179 141 206 c 2,2,-1
 423 540 l 1,3,-1
 141 874 l 2,4,5
 119 901 119 901 138 918 c 2,6,-1
 186 961 l 2,7,8
 207 979 207 979 229 953 c 2,9,-1
 561 563 l 2,10,11
 580 540 580 540 561 517 c 2,12,-1
 229 127 l 2,13,14
 207 101 207 101 186 119 c 2,15,-1
 138 162 l 2,0,1
EndSplineSet
EndChar

StartChar: six
Encoding: 54 54 163
Width: 1110
Flags: MW
HStem: -30 150<427.935 707.389> 746 153<423.596 724.007> 1302 150<467.658 798.049>
VStem: 92 181<743 1053.1> 824 196<251.298 642.197>
LayerCount: 2
Fore
SplineSet
92 671 m 256,0,1
 92 1111 92 1111 245 1281.5 c 128,-1,2
 398 1452 398 1452 617 1452 c 256,3,4
 742 1452 742 1452 817 1420 c 128,-1,5
 892 1388 892 1388 946 1338 c 256,6,7
 988 1299 988 1299 965 1273 c 2,8,-1
 918 1218 l 2,9,10
 890 1186 890 1186 845 1224 c 256,11,12
 808 1256 808 1256 756 1279 c 128,-1,13
 704 1302 704 1302 608 1302 c 256,14,15
 473 1302 473 1302 373 1167 c 128,-1,16
 273 1032 273 1032 273 743 c 1,17,-1
 275 743 l 1,18,19
 320 808 320 808 404.5 853.5 c 128,-1,20
 489 899 489 899 618 899 c 256,21,22
 778 899 778 899 899 789.5 c 128,-1,23
 1020 680 1020 680 1020 460 c 256,24,25
 1020 242 1020 242 904.5 106 c 128,-1,26
 789 -30 789 -30 563 -30 c 256,27,28
 327 -30 327 -30 209.5 157.5 c 128,-1,29
 92 345 92 345 92 671 c 256,0,1
307 447 m 256,30,31
 307 323 307 323 375.5 221.5 c 128,-1,32
 444 120 444 120 565 120 c 256,33,34
 690 120 690 120 757 214 c 128,-1,35
 824 308 824 308 824 454 c 256,36,37
 824 599 824 599 756 672.5 c 128,-1,38
 688 746 688 746 586 746 c 256,39,40
 454 746 454 746 380.5 665 c 128,-1,41
 307 584 307 584 307 447 c 256,30,31
EndSplineSet
EndChar

StartChar: nine
Encoding: 57 57 164
Width: 1110
Flags: MW
HStem: -30 150<311.951 642.342> 523 153<385.993 686.404> 1302 150<402.611 682.065>
VStem: 90 196<779.803 1170.7> 837 181<368.902 679>
LayerCount: 2
Fore
SplineSet
90 962 m 256,0,1
 90 1180 90 1180 205.5 1316 c 128,-1,2
 321 1452 321 1452 547 1452 c 256,3,4
 783 1452 783 1452 900.5 1264.5 c 128,-1,5
 1018 1077 1018 1077 1018 751 c 256,6,7
 1018 311 1018 311 865 140.5 c 128,-1,8
 712 -30 712 -30 493 -30 c 256,9,10
 368 -30 368 -30 293 2 c 128,-1,11
 218 34 218 34 164 84 c 256,12,13
 122 123 122 123 145 149 c 2,14,-1
 192 204 l 2,15,16
 220 236 220 236 265 198 c 256,17,18
 302 166 302 166 354 143 c 128,-1,19
 406 120 406 120 502 120 c 256,20,21
 637 120 637 120 737 255 c 128,-1,22
 837 390 837 390 837 679 c 1,23,-1
 835 679 l 1,24,25
 790 614 790 614 705.5 568.5 c 128,-1,26
 621 523 621 523 492 523 c 256,27,28
 332 523 332 523 211 632.5 c 128,-1,29
 90 742 90 742 90 962 c 256,0,1
286 968 m 256,30,31
 286 823 286 823 354 749.5 c 128,-1,32
 422 676 422 676 524 676 c 256,33,34
 656 676 656 676 729.5 757 c 128,-1,35
 803 838 803 838 803 975 c 256,36,37
 803 1099 803 1099 734.5 1200.5 c 128,-1,38
 666 1302 666 1302 545 1302 c 256,39,40
 420 1302 420 1302 353 1208 c 128,-1,41
 286 1114 286 1114 286 968 c 256,30,31
EndSplineSet
EndChar

StartChar: emdash
Encoding: 8212 8212 165
Width: 2048
Flags: W
HStem: 488 130<36 2012>
LayerCount: 2
Fore
SplineSet
81 488 m 2,0,1
 36 488 36 488 36 523 c 2,2,-1
 36 583 l 2,3,4
 36 618 36 618 81 618 c 2,5,-1
 1967 618 l 2,6,7
 2012 618 2012 618 2012 583 c 2,8,-1
 2012 523 l 2,9,10
 2012 488 2012 488 1967 488 c 2,11,-1
 81 488 l 2,0,1
EndSplineSet
EndChar

StartChar: slash
Encoding: 47 47 166
Width: 840
Flags: W
DStem2: 722 1436 833 1391 0.374368 0.92728<-1955.29 45.0261>
LayerCount: 2
Fore
SplineSet
24 -391 m 2,0,1
 -10 -377 -10 -377 7 -335 c 2,2,-1
 722 1436 l 2,3,4
 739 1478 739 1478 773 1464 c 2,5,-1
 818 1446 l 2,6,7
 850 1433 850 1433 833 1391 c 2,8,-1
 118 -380 l 2,9,10
 101 -422 101 -422 69 -409 c 2,11,-1
 24 -391 l 2,0,1
EndSplineSet
EndChar

StartChar: bar
Encoding: 124 124 167
Width: 590
Flags: W
VStem: 230 130<-440 1496>
LayerCount: 2
Fore
SplineSet
265 -440 m 2,0,1
 230 -440 230 -440 230 -395 c 2,2,-1
 230 1451 l 2,3,4
 230 1496 230 1496 265 1496 c 2,5,-1
 325 1496 l 2,6,7
 360 1496 360 1496 360 1451 c 2,8,-1
 360 -395 l 2,9,10
 360 -440 360 -440 325 -440 c 2,11,-1
 265 -440 l 2,0,1
EndSplineSet
EndChar

StartChar: backslash
Encoding: 92 92 168
Width: 840
Flags: W
DStem2: 118 1436 7 1391 0.374368 -0.92728<-45.0261 1955.29>
LayerCount: 2
Fore
SplineSet
7 1391 m 6,0,1
 -10 1433 -10 1433 22 1446 c 2,2,-1
 67 1464 l 2,3,4
 101 1478 101 1478 118 1436 c 2,5,-1
 833 -335 l 2,6,7
 850 -377 850 -377 816 -391 c 2,8,-1
 771 -409 l 2,9,10
 739 -422 739 -422 722 -380 c 2,11,-1
 7 1391 l 6,0,1
EndSplineSet
EndChar

StartChar: plus
Encoding: 43 43 169
Width: 1280
Flags: W
HStem: 665 120<80 579 699 1200>
VStem: 579 120<165 665 785 1285>
LayerCount: 2
Fore
SplineSet
125 665 m 2,0,1
 80 665 80 665 80 700 c 2,2,-1
 80 750 l 2,3,4
 80 785 80 785 125 785 c 2,5,-1
 579 785 l 1,6,-1
 579 1240 l 2,7,8
 579 1285 579 1285 614 1285 c 2,9,-1
 664 1285 l 2,10,11
 699 1285 699 1285 699 1240 c 2,12,-1
 699 785 l 1,13,-1
 1155 785 l 2,14,15
 1200 785 1200 785 1200 750 c 2,16,-1
 1200 700 l 2,17,18
 1200 665 1200 665 1155 665 c 2,19,-1
 699 665 l 1,20,-1
 699 210 l 2,21,22
 699 165 699 165 664 165 c 2,23,-1
 614 165 l 2,24,25
 579 165 579 165 579 210 c 2,26,-1
 579 665 l 1,27,-1
 125 665 l 2,0,1
EndSplineSet
EndChar

StartChar: bracketright
Encoding: 93 93 171
Width: 658
Flags: W
HStem: -408 130<70 312> 1366 130<70 312>
VStem: 312 176<-278 1366>
LayerCount: 2
Fore
SplineSet
115 -408 m 2,0,1
 70 -408 70 -408 70 -373 c 2,2,-1
 70 -313 l 2,3,4
 70 -278 70 -278 115 -278 c 2,5,-1
 312 -278 l 1,6,-1
 312 1366 l 1,7,-1
 115 1366 l 2,8,9
 70 1366 70 1366 70 1401 c 2,10,-1
 70 1461 l 2,11,12
 70 1496 70 1496 115 1496 c 2,13,-1
 443 1496 l 2,14,15
 488 1496 488 1496 488 1451 c 2,16,-1
 488 -363 l 2,17,18
 488 -408 488 -408 443 -408 c 2,19,-1
 115 -408 l 2,0,1
EndSplineSet
EndChar

StartChar: bracketleft
Encoding: 91 91 172
Width: 658
Flags: W
HStem: -408 130<346 588> 1366 130<346 588>
VStem: 170 176<-278 1366>
LayerCount: 2
Fore
SplineSet
215 -408 m 2,0,1
 170 -408 170 -408 170 -363 c 2,2,-1
 170 1451 l 2,3,4
 170 1496 170 1496 215 1496 c 2,5,-1
 543 1496 l 2,6,7
 588 1496 588 1496 588 1461 c 2,8,-1
 588 1401 l 2,9,10
 588 1366 588 1366 543 1366 c 2,11,-1
 346 1366 l 1,12,-1
 346 -278 l 1,13,-1
 543 -278 l 2,14,15
 588 -278 588 -278 588 -313 c 2,16,-1
 588 -373 l 2,17,18
 588 -408 588 -408 543 -408 c 2,19,-1
 215 -408 l 2,0,1
EndSplineSet
EndChar

StartChar: question
Encoding: 63 63 173
Width: 1016
Flags: W
HStem: 0 212<387 589> 1314 150<329.992 650.217>
VStem: 387 202<4.5e-07 212 371.329 601.693> 714 196<954.021 1250.98>
LayerCount: 2
Fore
SplineSet
111 1164 m 258,0,1
 80 1178 80 1178 108 1250 c 256,2,3
 135 1317 135 1317 226.5 1390.5 c 128,-1,4
 318 1464 318 1464 493 1464 c 256,5,6
 708 1464 708 1464 809 1361.5 c 128,-1,7
 910 1259 910 1259 910 1088 c 256,8,9
 910 945 910 945 743.5 760.5 c 152,-1,10
 577 576 577 576 577 438 c 2,11,-1
 577 415 l 2,12,13
 577 370 577 370 532 370 c 2,14,-1
 446 370 l 2,15,16
 401 370 401 370 401 415 c 2,17,-1
 401 452 l 2,18,19
 401 621 401 621 557.5 799.5 c 152,-1,20
 714 978 714 978 714 1094 c 256,21,22
 714 1216 714 1216 657 1265 c 128,-1,23
 600 1314 600 1314 500 1314 c 256,24,25
 390 1314 390 1314 334.5 1274 c 128,-1,26
 279 1234 279 1234 250 1165 c 256,27,28
 227 1111 227 1111 185 1130 c 2,29,-1
 111 1164 l 258,0,1
432 0 m 2,30,31
 387 0 387 0 387 45 c 2,32,-1
 387 167 l 2,33,34
 387 212 387 212 432 212 c 2,35,-1
 544 212 l 2,36,37
 589 212 589 212 589 167 c 2,38,-1
 589 45 l 2,39,40
 589 0 589 0 544 0 c 2,41,-1
 432 0 l 2,30,31
EndSplineSet
EndChar

StartChar: .notdef
Encoding: 0 0 174
Width: 1240
Flags: W
HStem: 0 120<270 970> 1314 120<270 970>
VStem: 150 120<120 1314> 970 120<120 1314>
LayerCount: 2
Fore
SplineSet
195 0 m 2,0,1
 150 0 150 0 150 45 c 2,2,-1
 150 1389 l 2,3,4
 150 1434 150 1434 187 1434 c 2,5,-1
 1045 1434 l 2,6,7
 1090 1434 1090 1434 1090 1389 c 2,8,-1
 1090 45 l 2,9,10
 1090 0 1090 0 1045 0 c 2,11,-1
 195 0 l 2,0,1
270 120 m 1,12,-1
 970 120 l 1,13,-1
 970 1314 l 1,14,-1
 270 1314 l 1,15,-1
 270 120 l 1,12,-1
EndSplineSet
EndChar

StartChar: braceleft
Encoding: 123 123 175
Width: 776
Flags: W
HStem: -408 130<543.788 706> 479 130<90 237.888> 1366 130<543.788 706>
VStem: 350 176<-261.699 361.046 726.954 1349.7>
CounterMasks: 1 e0
LayerCount: 2
Fore
SplineSet
125 479 m 0,0,1
 90 479 90 479 90 524 c 2,2,-1
 90 564 l 2,3,4
 90 609 90 609 125 609 c 0,5,6
 197 609 197 609 273.5 683.5 c 128,-1,7
 350 758 350 758 350 931 c 2,8,-1
 350 1166 l 2,9,10
 350 1335 350 1335 413 1415.5 c 128,-1,11
 476 1496 476 1496 661 1496 c 0,12,13
 706 1496 706 1496 706 1461 c 2,14,-1
 706 1401 l 2,15,16
 706 1366 706 1366 661 1366 c 0,17,18
 563 1366 563 1366 544.5 1325 c 128,-1,19
 526 1284 526 1284 526 1189 c 2,20,-1
 526 903 l 2,21,22
 526 698 526 698 434.5 626 c 128,-1,23
 343 554 343 554 279 545 c 1,24,-1
 279 543 l 17,25,26
 343 534 343 534 434.5 462 c 128,-1,27
 526 390 526 390 526 185 c 2,28,-1
 526 -101 l 2,29,30
 526 -196 526 -196 544.5 -237 c 128,-1,31
 563 -278 563 -278 661 -278 c 0,32,33
 706 -278 706 -278 706 -313 c 2,34,-1
 706 -373 l 2,35,36
 706 -408 706 -408 661 -408 c 0,37,38
 476 -408 476 -408 413 -327.5 c 128,-1,39
 350 -247 350 -247 350 -78 c 2,40,-1
 350 157 l 2,41,42
 350 330 350 330 273.5 404.5 c 128,-1,43
 197 479 197 479 125 479 c 0,0,1
EndSplineSet
EndChar

StartChar: braceright
Encoding: 125 125 176
Width: 776
Flags: W
HStem: -408 130<70 232.212> 479 130<538.112 686> 1366 130<70 232.212>
VStem: 250 176<-261.699 361.046 726.954 1349.7>
CounterMasks: 1 e0
LayerCount: 2
Fore
SplineSet
115 -408 m 0,0,1
 70 -408 70 -408 70 -373 c 2,2,-1
 70 -313 l 2,3,4
 70 -278 70 -278 115 -278 c 0,5,6
 213 -278 213 -278 231.5 -237 c 128,-1,7
 250 -196 250 -196 250 -101 c 2,8,-1
 250 185 l 2,9,10
 250 390 250 390 341.5 462 c 128,-1,11
 433 534 433 534 497 543 c 1,12,-1
 497 545 l 17,13,14
 433 554 433 554 341.5 626 c 128,-1,15
 250 698 250 698 250 903 c 2,16,-1
 250 1189 l 2,17,18
 250 1284 250 1284 231.5 1325 c 128,-1,19
 213 1366 213 1366 115 1366 c 0,20,21
 70 1366 70 1366 70 1401 c 2,22,-1
 70 1461 l 2,23,24
 70 1496 70 1496 115 1496 c 0,25,26
 300 1496 300 1496 363 1415.5 c 128,-1,27
 426 1335 426 1335 426 1166 c 2,28,-1
 426 931 l 2,29,30
 426 758 426 758 502.5 683.5 c 128,-1,31
 579 609 579 609 651 609 c 0,32,33
 686 609 686 609 686 564 c 2,34,-1
 686 524 l 2,35,36
 686 479 686 479 651 479 c 0,37,38
 579 479 579 479 502.5 404.5 c 128,-1,39
 426 330 426 330 426 157 c 2,40,-1
 426 -78 l 2,41,42
 426 -247 426 -247 363 -327.5 c 128,-1,43
 300 -408 300 -408 115 -408 c 0,0,1
EndSplineSet
EndChar

StartChar: perthousandzero
Encoding: 61698 61698 178
Width: 698
Flags: W
HStem: -57 115<247.899 450.101> 598 115<247.899 450.101>
VStem: 40 160<121.762 534.238> 498 160<121.762 534.238>
LayerCount: 2
Fore
SplineSet
40 328 m 256,0,1
 40 488 40 488 124.5 600.5 c 128,-1,2
 209 713 209 713 349 713 c 256,3,4
 489 713 489 713 573.5 600.5 c 128,-1,5
 658 488 658 488 658 328 c 256,6,7
 658 168 658 168 573.5 55.5 c 128,-1,8
 489 -57 489 -57 349 -57 c 256,9,10
 209 -57 209 -57 124.5 55.5 c 128,-1,11
 40 168 40 168 40 328 c 256,0,1
200 328 m 256,12,13
 200 188 200 188 234.5 123 c 128,-1,14
 269 58 269 58 349 58 c 256,15,16
 429 58 429 58 463.5 123 c 128,-1,17
 498 188 498 188 498 328 c 256,18,19
 498 468 498 468 463.5 533 c 128,-1,20
 429 598 429 598 349 598 c 256,21,22
 269 598 269 598 234.5 533 c 128,-1,23
 200 468 200 468 200 328 c 256,12,13
EndSplineSet
EndChar

StartChar: uni2215
Encoding: 8725 8725 179
Width: 802
Flags: W
DStem2: 819 1507 921 1444 0.529948 0.84803<-1814.42 45.0686>
LayerCount: 2
Fore
SplineSet
-113 -50 m 2,0,1
 -143 -32 -143 -32 -119 6 c 2,2,-1
 819 1507 l 2,3,4
 843 1545 843 1545 873 1527 c 2,5,-1
 915 1500 l 2,6,7
 945 1482 945 1482 921 1444 c 2,8,-1
 -17 -57 l 2,9,10
 -41 -95 -41 -95 -71 -77 c 2,11,-1
 -113 -50 l 2,0,1
EndSplineSet
EndChar

StartChar: at
Encoding: 64 64 180
Width: 1992
Flags: W
HStem: -332 120<746.404 1294.36> 111 120<764.346 991.483 1315.94 1557.07> 924 118<895.775 1134.27> 1353 120<776 1343.6>
VStem: 120 122<269.375 829.838> 546 171<277.415 691.241> 1750 122<442.396 972.84>
DStem2: 1177 582 1316 380 0.216406 0.976304<-192.46 142.342 291.986 443.556>
LayerCount: 2
Back
SplineSet
238 571 m 128,-1,0
 238 730 238 730 300 875 c 128,-1,1
 362 1020 362 1020 466.5 1124.5 c 128,-1,2
 571 1229 571 1229 716 1291.5 c 128,-1,3
 861 1354 861 1354 1020 1354 c 128,-1,4
 1179 1354 1179 1354 1324 1291.5 c 128,-1,5
 1469 1229 1469 1229 1573.5 1124.5 c 128,-1,6
 1678 1020 1678 1020 1740 875 c 128,-1,7
 1802 730 1802 730 1802 571 c 128,-1,8
 1802 412 1802 412 1740 267 c 128,-1,9
 1678 122 1678 122 1573.5 17.5 c 128,-1,10
 1469 -87 1469 -87 1324 -149.5 c 128,-1,11
 1179 -212 1179 -212 1020 -212 c 128,-1,12
 861 -212 861 -212 716 -149.5 c 128,-1,13
 571 -87 571 -87 466.5 17.5 c 128,-1,14
 362 122 362 122 300 267 c 128,-1,15
 238 412 238 412 238 571 c 128,-1,0
118 571 m 128,-1,15
 118 754 118 754 189.5 921.5 c 128,-1,16
 261 1089 261 1089 381.5 1209.5 c 128,-1,17
 502 1330 502 1330 669.5 1402 c 128,-1,18
 837 1474 837 1474 1020 1474 c 128,-1,19
 1203 1474 1203 1474 1370.5 1402 c 128,-1,20
 1538 1330 1538 1330 1658.5 1209.5 c 128,-1,21
 1779 1089 1779 1089 1850.5 921.5 c 128,-1,22
 1922 754 1922 754 1922 571 c 128,-1,23
 1922 388 1922 388 1850.5 220.5 c 128,-1,24
 1779 53 1779 53 1658.5 -67.5 c 128,-1,25
 1538 -188 1538 -188 1370.5 -260 c 128,-1,26
 1203 -332 1203 -332 1020 -332 c 128,-1,27
 837 -332 837 -332 669.5 -260 c 128,-1,28
 502 -188 502 -188 381.5 -67.5 c 128,-1,29
 261 53 261 53 189.5 220.5 c 128,-1,30
 118 388 118 388 118 571 c 128,-1,15
EndSplineSet
Fore
SplineSet
120 551 m 256,0,1
 120 932 120 932 380 1202.5 c 128,-1,2
 640 1473 640 1473 1060 1473 c 256,3,4
 1366 1473 1366 1473 1619 1294.5 c 128,-1,5
 1872 1116 1872 1116 1872 716 c 256,6,7
 1872 422 1872 422 1731 266.5 c 128,-1,8
 1590 111 1590 111 1360 111 c 256,9,10
 1230 111 1230 111 1194 168 c 128,-1,11
 1158 225 1158 225 1158 332 c 9,12,-1
 1156 332 l 17,13,14
 1118 243 1118 243 1026 177 c 128,-1,15
 934 111 934 111 843 111 c 256,16,17
 709 111 709 111 627.5 207 c 128,-1,18
 546 303 546 303 546 467 c 256,19,20
 546 673 546 673 677.5 857.5 c 128,-1,21
 809 1042 809 1042 1006 1042 c 256,22,23
 1197 1042 1197 1042 1241 866 c 1,24,-1
 1245 866 l 1,25,-1
 1268 972 l 2,26,27
 1275 1006 1275 1006 1310 1006 c 2,28,-1
 1420 1006 l 2,29,30
 1455 1006 1455 1006 1447 971 c 2,31,-1
 1316 380 l 2,32,33
 1294 282 1294 282 1320 256.5 c 128,-1,34
 1346 231 1346 231 1391 231 c 256,35,36
 1537 231 1537 231 1643.5 342.5 c 128,-1,37
 1750 454 1750 454 1750 716 c 256,38,39
 1750 1020 1750 1020 1556 1186.5 c 128,-1,40
 1362 1353 1362 1353 1062 1353 c 256,41,42
 720 1353 720 1353 481 1134.5 c 128,-1,43
 242 916 242 916 242 536 c 256,44,45
 242 204 242 204 470.5 -4 c 128,-1,46
 699 -212 699 -212 1020 -212 c 256,47,48
 1170 -212 1170 -212 1322.5 -157.5 c 128,-1,49
 1475 -103 1475 -103 1606 3 c 24,50,51
 1633 25 1633 25 1649 3 c 2,52,-1
 1688 -51 l 2,53,54
 1705 -75 1705 -75 1678 -93 c 24,55,56
 1515 -208 1515 -208 1355.5 -270 c 128,-1,57
 1196 -332 1196 -332 1011 -332 c 256,58,59
 652 -332 652 -332 386 -94 c 128,-1,60
 120 144 120 144 120 551 c 256,0,1
717 447 m 256,61,62
 717 324 717 324 761.5 277.5 c 128,-1,63
 806 231 806 231 885 231 c 256,64,65
 986 231 986 231 1073.5 373.5 c 128,-1,66
 1161 516 1161 516 1177 582 c 280,67,68
 1192 646 1192 646 1192 727 c 256,69,70
 1192 796 1192 796 1151 860 c 128,-1,71
 1110 924 1110 924 1030 924 c 256,72,73
 896 924 896 924 806.5 780 c 128,-1,74
 717 636 717 636 717 447 c 256,61,62
EndSplineSet
EndChar

StartChar: acute
Encoding: 180 180 181
Width: 614
Flags: W
HStem: 1150 285<313.656 359.906>
LayerCount: 2
Fore
SplineSet
191 1150 m 18,0,1
 141 1150 141 1150 179 1203 c 2,2,-1
 318 1398 l 2,3,4
 344 1435 344 1435 399 1435 c 2,5,-1
 510 1435 l 2,6,7
 569 1435 569 1435 524 1383 c 2,8,-1
 346 1179 l 2,9,10
 321 1150 321 1150 265 1150 c 2,11,-1
 191 1150 l 18,0,1
EndSplineSet
EndChar

StartChar: asterisk
Encoding: 42 42 182
Width: 940
Flags: W
HStem: 1444 20G<423.5 516.5>
VStem: 393 154<654.094 862.183 1252.82 1460.91>
LayerCount: 2
Fore
SplineSet
370 1057 m 1,0,-1
 156 1150 l 274,1,2
 74 1185 74 1185 115 1256 c 2,3,-1
 121 1266 l 258,4,5
 162 1336 162 1336 233 1283 c 258,6,-1
 420 1144 l 1,7,-1
 393 1376 l 258,8,9
 383 1464 383 1464 464 1464 c 258,10,-1
 476 1464 l 2,11,12
 557 1464 557 1464 547 1376 c 266,13,-1
 520 1144 l 1,14,-1
 707 1283 l 274,15,16
 778 1336 778 1336 819 1266 c 2,17,-1
 825 1256 l 258,18,19
 866 1185 866 1185 784 1150 c 258,20,-1
 570 1057 l 1,21,-1
 784 965 l 258,22,23
 866 930 866 930 825 859 c 258,24,-1
 819 849 l 2,25,26
 778 779 778 779 707 831 c 266,27,-1
 520 971 l 1,28,-1
 547 739 l 274,29,30
 557 651 557 651 476 651 c 2,31,-1
 464 651 l 258,32,33
 383 651 383 651 393 739 c 258,34,-1
 420 971 l 1,35,-1
 233 831 l 258,36,37
 162 779 162 779 121 849 c 258,38,-1
 115 859 l 2,39,40
 74 930 74 930 156 965 c 266,41,-1
 370 1057 l 1,0,-1
EndSplineSet
EndChar

StartChar: grave
Encoding: 96 96 183
Width: 614
Flags: W
HStem: 1150 285<343.094 389.344>
LayerCount: 2
Fore
SplineSet
179 1383 m 2,0,1
 134 1435 134 1435 193 1435 c 2,2,-1
 304 1435 l 2,3,4
 359 1435 359 1435 385 1398 c 2,5,-1
 524 1203 l 2,6,7
 562 1150 562 1150 512 1150 c 10,8,-1
 438 1150 l 2,9,10
 382 1150 382 1150 357 1179 c 2,11,-1
 179 1383 l 2,0,1
EndSplineSet
EndChar

StartChar: numbersign
Encoding: 35 35 184
Width: 1390
Flags: W
HStem: 0 21G<287.5 384.5 755.5 852.5> 375 120<89.3718 336 489 804 957 1203.63> 927 120<186.5 433 587 901 1055 1301.5> 1402 20G<538.5 635.5 1006.5 1103.5>
DStem2: 278 45 410 45 0.173743 0.984791<-30.0801 335.058 479.816 895.516 1040.45 1405.59> 746 45 878 45 0.173743 0.984791<-30.0801 335.058 479.816 895.516 1040.45 1405.59>
LayerCount: 2
Back
SplineSet
845 0 m 2,0,1
 810 0 810 0 810 45 c 2,2,-1
 810 1377 l 2,3,4
 810 1422 810 1422 845 1422 c 2,5,-1
 905 1422 l 2,6,7
 940 1422 940 1422 940 1377 c 2,8,-1
 940 45 l 2,9,10
 940 0 940 0 905 0 c 2,11,-1
 845 0 l 2,0,1
375 0 m 2,12,13
 340 0 340 0 340 45 c 2,14,-1
 340 1377 l 2,15,16
 340 1422 340 1422 375 1422 c 2,17,-1
 435 1422 l 2,18,19
 470 1422 470 1422 470 1377 c 2,20,-1
 470 45 l 2,21,22
 470 0 470 0 435 0 c 2,23,-1
 375 0 l 2,12,13
125 927 m 2,24,25
 80 927 80 927 80 962 c 2,26,-1
 80 1012 l 2,27,28
 80 1047 80 1047 125 1047 c 2,29,-1
 1155 1047 l 2,30,31
 1200 1047 1200 1047 1200 1012 c 2,32,-1
 1200 962 l 2,33,34
 1200 927 1200 927 1155 927 c 2,35,-1
 125 927 l 2,24,25
125 375 m 2,36,37
 80 375 80 375 80 410 c 2,38,-1
 80 460 l 2,39,40
 80 495 80 495 125 495 c 2,41,-1
 1155 495 l 2,42,43
 1200 495 1200 495 1200 460 c 2,44,-1
 1200 410 l 2,45,46
 1200 375 1200 375 1155 375 c 2,47,-1
 125 375 l 2,36,37
EndSplineSet
Fore
SplineSet
121 375 m 2,0,1
 76 375 76 375 82 410 c 2,2,-1
 91 460 l 2,3,4
 97 495 97 495 142 495 c 2,5,-1
 357 495 l 1,6,-1
 433 927 l 1,7,-1
 218 927 l 2,8,9
 174 927 174 927 180 962 c 2,10,-1
 188 1012 l 2,11,12
 194 1047 194 1047 240 1047 c 2,13,-1
 455 1047 l 1,14,-1
 513 1377 l 2,15,16
 521 1422 521 1422 556 1422 c 2,17,-1
 618 1422 l 2,18,19
 653 1422 653 1422 645 1377 c 2,20,-1
 587 1047 l 1,21,-1
 923 1047 l 1,22,-1
 981 1377 l 2,23,24
 989 1422 989 1422 1024 1422 c 2,25,-1
 1086 1422 l 2,26,27
 1121 1422 1121 1422 1113 1377 c 2,28,-1
 1055 1047 l 1,29,-1
 1270 1047 l 2,30,31
 1314 1047 1314 1047 1308 1012 c 2,32,-1
 1300 962 l 2,33,34
 1294 927 1294 927 1248 927 c 2,35,-1
 1033 927 l 1,36,-1
 957 495 l 1,37,-1
 1172 495 l 2,38,39
 1217 495 1217 495 1211 460 c 2,40,-1
 1202 410 l 2,41,42
 1196 375 1196 375 1151 375 c 2,43,-1
 936 375 l 1,44,-1
 878 45 l 2,45,46
 870 0 870 0 835 0 c 2,47,-1
 773 0 l 2,48,49
 738 0 738 0 746 45 c 2,50,-1
 804 375 l 1,51,-1
 468 375 l 1,52,-1
 410 45 l 2,53,54
 402 0 402 0 367 0 c 2,55,-1
 305 0 l 2,56,57
 270 0 270 0 278 45 c 2,58,-1
 336 375 l 1,59,-1
 121 375 l 2,0,1
489 495 m 1,60,-1
 825 495 l 1,61,-1
 901 927 l 1,62,-1
 565 927 l 1,63,-1
 489 495 l 1,60,-1
EndSplineSet
EndChar

